%TF.GenerationSoftware,KiCad,Pcbnew,7.0.5-0*%
%TF.CreationDate,2023-06-19T18:26:53+02:00*%
%TF.ProjectId,Apple TimeMaster - reloaded,4170706c-6520-4546-996d-654d61737465,rev?*%
%TF.SameCoordinates,Original*%
%TF.FileFunction,Legend,Top*%
%TF.FilePolarity,Positive*%
%FSLAX46Y46*%
G04 Gerber Fmt 4.6, Leading zero omitted, Abs format (unit mm)*
G04 Created by KiCad (PCBNEW 7.0.5-0) date 2023-06-19 18:26:53*
%MOMM*%
%LPD*%
G01*
G04 APERTURE LIST*
%ADD10C,0.250000*%
%ADD11C,0.300000*%
%ADD12C,0.500000*%
%ADD13C,0.150000*%
%ADD14C,0.375000*%
%ADD15C,0.120000*%
%ADD16C,0.100000*%
%ADD17C,0.010000*%
G04 APERTURE END LIST*
D10*
X91159949Y-63952000D02*
X91302806Y-63999619D01*
X91302806Y-63999619D02*
X91540901Y-63999619D01*
X91540901Y-63999619D02*
X91636139Y-63952000D01*
X91636139Y-63952000D02*
X91683758Y-63904380D01*
X91683758Y-63904380D02*
X91731377Y-63809142D01*
X91731377Y-63809142D02*
X91731377Y-63713904D01*
X91731377Y-63713904D02*
X91683758Y-63618666D01*
X91683758Y-63618666D02*
X91636139Y-63571047D01*
X91636139Y-63571047D02*
X91540901Y-63523428D01*
X91540901Y-63523428D02*
X91350425Y-63475809D01*
X91350425Y-63475809D02*
X91255187Y-63428190D01*
X91255187Y-63428190D02*
X91207568Y-63380571D01*
X91207568Y-63380571D02*
X91159949Y-63285333D01*
X91159949Y-63285333D02*
X91159949Y-63190095D01*
X91159949Y-63190095D02*
X91207568Y-63094857D01*
X91207568Y-63094857D02*
X91255187Y-63047238D01*
X91255187Y-63047238D02*
X91350425Y-62999619D01*
X91350425Y-62999619D02*
X91588520Y-62999619D01*
X91588520Y-62999619D02*
X91731377Y-63047238D01*
X92159949Y-63475809D02*
X92493282Y-63475809D01*
X92636139Y-63999619D02*
X92159949Y-63999619D01*
X92159949Y-63999619D02*
X92159949Y-62999619D01*
X92159949Y-62999619D02*
X92636139Y-62999619D01*
X92921854Y-62999619D02*
X93493282Y-62999619D01*
X93207568Y-63999619D02*
X93207568Y-62999619D01*
X80936377Y-121467238D02*
X80841139Y-121419619D01*
X80841139Y-121419619D02*
X80698282Y-121419619D01*
X80698282Y-121419619D02*
X80555425Y-121467238D01*
X80555425Y-121467238D02*
X80460187Y-121562476D01*
X80460187Y-121562476D02*
X80412568Y-121657714D01*
X80412568Y-121657714D02*
X80364949Y-121848190D01*
X80364949Y-121848190D02*
X80364949Y-121991047D01*
X80364949Y-121991047D02*
X80412568Y-122181523D01*
X80412568Y-122181523D02*
X80460187Y-122276761D01*
X80460187Y-122276761D02*
X80555425Y-122372000D01*
X80555425Y-122372000D02*
X80698282Y-122419619D01*
X80698282Y-122419619D02*
X80793520Y-122419619D01*
X80793520Y-122419619D02*
X80936377Y-122372000D01*
X80936377Y-122372000D02*
X80983996Y-122324380D01*
X80983996Y-122324380D02*
X80983996Y-121991047D01*
X80983996Y-121991047D02*
X80793520Y-121991047D01*
X81412568Y-122419619D02*
X81412568Y-121419619D01*
X81412568Y-121419619D02*
X81983996Y-122419619D01*
X81983996Y-122419619D02*
X81983996Y-121419619D01*
X82460187Y-122419619D02*
X82460187Y-121419619D01*
X82460187Y-121419619D02*
X82698282Y-121419619D01*
X82698282Y-121419619D02*
X82841139Y-121467238D01*
X82841139Y-121467238D02*
X82936377Y-121562476D01*
X82936377Y-121562476D02*
X82983996Y-121657714D01*
X82983996Y-121657714D02*
X83031615Y-121848190D01*
X83031615Y-121848190D02*
X83031615Y-121991047D01*
X83031615Y-121991047D02*
X82983996Y-122181523D01*
X82983996Y-122181523D02*
X82936377Y-122276761D01*
X82936377Y-122276761D02*
X82841139Y-122372000D01*
X82841139Y-122372000D02*
X82698282Y-122419619D01*
X82698282Y-122419619D02*
X82460187Y-122419619D01*
X80936377Y-108767238D02*
X80841139Y-108719619D01*
X80841139Y-108719619D02*
X80698282Y-108719619D01*
X80698282Y-108719619D02*
X80555425Y-108767238D01*
X80555425Y-108767238D02*
X80460187Y-108862476D01*
X80460187Y-108862476D02*
X80412568Y-108957714D01*
X80412568Y-108957714D02*
X80364949Y-109148190D01*
X80364949Y-109148190D02*
X80364949Y-109291047D01*
X80364949Y-109291047D02*
X80412568Y-109481523D01*
X80412568Y-109481523D02*
X80460187Y-109576761D01*
X80460187Y-109576761D02*
X80555425Y-109672000D01*
X80555425Y-109672000D02*
X80698282Y-109719619D01*
X80698282Y-109719619D02*
X80793520Y-109719619D01*
X80793520Y-109719619D02*
X80936377Y-109672000D01*
X80936377Y-109672000D02*
X80983996Y-109624380D01*
X80983996Y-109624380D02*
X80983996Y-109291047D01*
X80983996Y-109291047D02*
X80793520Y-109291047D01*
X81412568Y-109719619D02*
X81412568Y-108719619D01*
X81412568Y-108719619D02*
X81983996Y-109719619D01*
X81983996Y-109719619D02*
X81983996Y-108719619D01*
X82460187Y-109719619D02*
X82460187Y-108719619D01*
X82460187Y-108719619D02*
X82698282Y-108719619D01*
X82698282Y-108719619D02*
X82841139Y-108767238D01*
X82841139Y-108767238D02*
X82936377Y-108862476D01*
X82936377Y-108862476D02*
X82983996Y-108957714D01*
X82983996Y-108957714D02*
X83031615Y-109148190D01*
X83031615Y-109148190D02*
X83031615Y-109291047D01*
X83031615Y-109291047D02*
X82983996Y-109481523D01*
X82983996Y-109481523D02*
X82936377Y-109576761D01*
X82936377Y-109576761D02*
X82841139Y-109672000D01*
X82841139Y-109672000D02*
X82698282Y-109719619D01*
X82698282Y-109719619D02*
X82460187Y-109719619D01*
X80364949Y-101813904D02*
X80841139Y-101813904D01*
X80269711Y-102099619D02*
X80603044Y-101099619D01*
X80603044Y-101099619D02*
X80936377Y-102099619D01*
X81269711Y-102099619D02*
X81269711Y-101099619D01*
X81269711Y-101099619D02*
X81507806Y-101099619D01*
X81507806Y-101099619D02*
X81650663Y-101147238D01*
X81650663Y-101147238D02*
X81745901Y-101242476D01*
X81745901Y-101242476D02*
X81793520Y-101337714D01*
X81793520Y-101337714D02*
X81841139Y-101528190D01*
X81841139Y-101528190D02*
X81841139Y-101671047D01*
X81841139Y-101671047D02*
X81793520Y-101861523D01*
X81793520Y-101861523D02*
X81745901Y-101956761D01*
X81745901Y-101956761D02*
X81650663Y-102052000D01*
X81650663Y-102052000D02*
X81507806Y-102099619D01*
X81507806Y-102099619D02*
X81269711Y-102099619D01*
X82555425Y-101099619D02*
X82555425Y-101813904D01*
X82555425Y-101813904D02*
X82507806Y-101956761D01*
X82507806Y-101956761D02*
X82412568Y-102052000D01*
X82412568Y-102052000D02*
X82269711Y-102099619D01*
X82269711Y-102099619D02*
X82174473Y-102099619D01*
X91207568Y-66539619D02*
X91207568Y-65539619D01*
X91207568Y-65539619D02*
X91540901Y-66253904D01*
X91540901Y-66253904D02*
X91874234Y-65539619D01*
X91874234Y-65539619D02*
X91874234Y-66539619D01*
X92540901Y-65539619D02*
X92731377Y-65539619D01*
X92731377Y-65539619D02*
X92826615Y-65587238D01*
X92826615Y-65587238D02*
X92921853Y-65682476D01*
X92921853Y-65682476D02*
X92969472Y-65872952D01*
X92969472Y-65872952D02*
X92969472Y-66206285D01*
X92969472Y-66206285D02*
X92921853Y-66396761D01*
X92921853Y-66396761D02*
X92826615Y-66492000D01*
X92826615Y-66492000D02*
X92731377Y-66539619D01*
X92731377Y-66539619D02*
X92540901Y-66539619D01*
X92540901Y-66539619D02*
X92445663Y-66492000D01*
X92445663Y-66492000D02*
X92350425Y-66396761D01*
X92350425Y-66396761D02*
X92302806Y-66206285D01*
X92302806Y-66206285D02*
X92302806Y-65872952D01*
X92302806Y-65872952D02*
X92350425Y-65682476D01*
X92350425Y-65682476D02*
X92445663Y-65587238D01*
X92445663Y-65587238D02*
X92540901Y-65539619D01*
X93398044Y-66539619D02*
X93398044Y-65539619D01*
X93398044Y-65539619D02*
X93636139Y-65539619D01*
X93636139Y-65539619D02*
X93778996Y-65587238D01*
X93778996Y-65587238D02*
X93874234Y-65682476D01*
X93874234Y-65682476D02*
X93921853Y-65777714D01*
X93921853Y-65777714D02*
X93969472Y-65968190D01*
X93969472Y-65968190D02*
X93969472Y-66111047D01*
X93969472Y-66111047D02*
X93921853Y-66301523D01*
X93921853Y-66301523D02*
X93874234Y-66396761D01*
X93874234Y-66396761D02*
X93778996Y-66492000D01*
X93778996Y-66492000D02*
X93636139Y-66539619D01*
X93636139Y-66539619D02*
X93398044Y-66539619D01*
X94398044Y-66015809D02*
X94731377Y-66015809D01*
X94874234Y-66539619D02*
X94398044Y-66539619D01*
X94398044Y-66539619D02*
X94398044Y-65539619D01*
X94398044Y-65539619D02*
X94874234Y-65539619D01*
D11*
X191054510Y-58919400D02*
X192197368Y-58919400D01*
X191625939Y-59490828D02*
X191625939Y-58347971D01*
D10*
X80888758Y-103639619D02*
X80412568Y-103639619D01*
X80412568Y-103639619D02*
X80364949Y-104115809D01*
X80364949Y-104115809D02*
X80412568Y-104068190D01*
X80412568Y-104068190D02*
X80507806Y-104020571D01*
X80507806Y-104020571D02*
X80745901Y-104020571D01*
X80745901Y-104020571D02*
X80841139Y-104068190D01*
X80841139Y-104068190D02*
X80888758Y-104115809D01*
X80888758Y-104115809D02*
X80936377Y-104211047D01*
X80936377Y-104211047D02*
X80936377Y-104449142D01*
X80936377Y-104449142D02*
X80888758Y-104544380D01*
X80888758Y-104544380D02*
X80841139Y-104592000D01*
X80841139Y-104592000D02*
X80745901Y-104639619D01*
X80745901Y-104639619D02*
X80507806Y-104639619D01*
X80507806Y-104639619D02*
X80412568Y-104592000D01*
X80412568Y-104592000D02*
X80364949Y-104544380D01*
X81222092Y-103639619D02*
X81555425Y-104639619D01*
X81555425Y-104639619D02*
X81888758Y-103639619D01*
X91207568Y-71619619D02*
X91207568Y-70619619D01*
X92255186Y-71619619D02*
X91921853Y-71143428D01*
X91683758Y-71619619D02*
X91683758Y-70619619D01*
X91683758Y-70619619D02*
X92064710Y-70619619D01*
X92064710Y-70619619D02*
X92159948Y-70667238D01*
X92159948Y-70667238D02*
X92207567Y-70714857D01*
X92207567Y-70714857D02*
X92255186Y-70810095D01*
X92255186Y-70810095D02*
X92255186Y-70952952D01*
X92255186Y-70952952D02*
X92207567Y-71048190D01*
X92207567Y-71048190D02*
X92159948Y-71095809D01*
X92159948Y-71095809D02*
X92064710Y-71143428D01*
X92064710Y-71143428D02*
X91683758Y-71143428D01*
X93350424Y-71714857D02*
X93255186Y-71667238D01*
X93255186Y-71667238D02*
X93159948Y-71572000D01*
X93159948Y-71572000D02*
X93017091Y-71429142D01*
X93017091Y-71429142D02*
X92921853Y-71381523D01*
X92921853Y-71381523D02*
X92826615Y-71381523D01*
X92874234Y-71619619D02*
X92778996Y-71572000D01*
X92778996Y-71572000D02*
X92683758Y-71476761D01*
X92683758Y-71476761D02*
X92636139Y-71286285D01*
X92636139Y-71286285D02*
X92636139Y-70952952D01*
X92636139Y-70952952D02*
X92683758Y-70762476D01*
X92683758Y-70762476D02*
X92778996Y-70667238D01*
X92778996Y-70667238D02*
X92874234Y-70619619D01*
X92874234Y-70619619D02*
X93064710Y-70619619D01*
X93064710Y-70619619D02*
X93159948Y-70667238D01*
X93159948Y-70667238D02*
X93255186Y-70762476D01*
X93255186Y-70762476D02*
X93302805Y-70952952D01*
X93302805Y-70952952D02*
X93302805Y-71286285D01*
X93302805Y-71286285D02*
X93255186Y-71476761D01*
X93255186Y-71476761D02*
X93159948Y-71572000D01*
X93159948Y-71572000D02*
X93064710Y-71619619D01*
X93064710Y-71619619D02*
X92874234Y-71619619D01*
X80888758Y-116339619D02*
X80412568Y-116339619D01*
X80412568Y-116339619D02*
X80364949Y-116815809D01*
X80364949Y-116815809D02*
X80412568Y-116768190D01*
X80412568Y-116768190D02*
X80507806Y-116720571D01*
X80507806Y-116720571D02*
X80745901Y-116720571D01*
X80745901Y-116720571D02*
X80841139Y-116768190D01*
X80841139Y-116768190D02*
X80888758Y-116815809D01*
X80888758Y-116815809D02*
X80936377Y-116911047D01*
X80936377Y-116911047D02*
X80936377Y-117149142D01*
X80936377Y-117149142D02*
X80888758Y-117244380D01*
X80888758Y-117244380D02*
X80841139Y-117292000D01*
X80841139Y-117292000D02*
X80745901Y-117339619D01*
X80745901Y-117339619D02*
X80507806Y-117339619D01*
X80507806Y-117339619D02*
X80412568Y-117292000D01*
X80412568Y-117292000D02*
X80364949Y-117244380D01*
X81222092Y-116339619D02*
X81555425Y-117339619D01*
X81555425Y-117339619D02*
X81888758Y-116339619D01*
X91207568Y-69079619D02*
X91207568Y-68079619D01*
X91207568Y-68079619D02*
X91778996Y-69079619D01*
X91778996Y-69079619D02*
X91778996Y-68079619D01*
X92255187Y-69079619D02*
X92255187Y-68079619D01*
X92255187Y-68079619D02*
X92588520Y-68793904D01*
X92588520Y-68793904D02*
X92921853Y-68079619D01*
X92921853Y-68079619D02*
X92921853Y-69079619D01*
X93398044Y-69079619D02*
X93398044Y-68079619D01*
X80745901Y-119355809D02*
X80888758Y-119403428D01*
X80888758Y-119403428D02*
X80936377Y-119451047D01*
X80936377Y-119451047D02*
X80983996Y-119546285D01*
X80983996Y-119546285D02*
X80983996Y-119689142D01*
X80983996Y-119689142D02*
X80936377Y-119784380D01*
X80936377Y-119784380D02*
X80888758Y-119832000D01*
X80888758Y-119832000D02*
X80793520Y-119879619D01*
X80793520Y-119879619D02*
X80412568Y-119879619D01*
X80412568Y-119879619D02*
X80412568Y-118879619D01*
X80412568Y-118879619D02*
X80745901Y-118879619D01*
X80745901Y-118879619D02*
X80841139Y-118927238D01*
X80841139Y-118927238D02*
X80888758Y-118974857D01*
X80888758Y-118974857D02*
X80936377Y-119070095D01*
X80936377Y-119070095D02*
X80936377Y-119165333D01*
X80936377Y-119165333D02*
X80888758Y-119260571D01*
X80888758Y-119260571D02*
X80841139Y-119308190D01*
X80841139Y-119308190D02*
X80745901Y-119355809D01*
X80745901Y-119355809D02*
X80412568Y-119355809D01*
D12*
X104659423Y-91963238D02*
X105802280Y-91963238D01*
X105230851Y-93963238D02*
X105230851Y-91963238D01*
X106468947Y-93963238D02*
X106468947Y-91963238D01*
X107421328Y-93963238D02*
X107421328Y-91963238D01*
X107421328Y-91963238D02*
X108087995Y-93391809D01*
X108087995Y-93391809D02*
X108754661Y-91963238D01*
X108754661Y-91963238D02*
X108754661Y-93963238D01*
X109707042Y-92915619D02*
X110373709Y-92915619D01*
X110659423Y-93963238D02*
X109707042Y-93963238D01*
X109707042Y-93963238D02*
X109707042Y-91963238D01*
X109707042Y-91963238D02*
X110659423Y-91963238D01*
X111516566Y-93963238D02*
X111516566Y-91963238D01*
X111516566Y-91963238D02*
X112183233Y-93391809D01*
X112183233Y-93391809D02*
X112849899Y-91963238D01*
X112849899Y-91963238D02*
X112849899Y-93963238D01*
X113707042Y-93391809D02*
X114659423Y-93391809D01*
X113516566Y-93963238D02*
X114183232Y-91963238D01*
X114183232Y-91963238D02*
X114849899Y-93963238D01*
X115421328Y-93868000D02*
X115707042Y-93963238D01*
X115707042Y-93963238D02*
X116183233Y-93963238D01*
X116183233Y-93963238D02*
X116373709Y-93868000D01*
X116373709Y-93868000D02*
X116468947Y-93772761D01*
X116468947Y-93772761D02*
X116564185Y-93582285D01*
X116564185Y-93582285D02*
X116564185Y-93391809D01*
X116564185Y-93391809D02*
X116468947Y-93201333D01*
X116468947Y-93201333D02*
X116373709Y-93106095D01*
X116373709Y-93106095D02*
X116183233Y-93010857D01*
X116183233Y-93010857D02*
X115802280Y-92915619D01*
X115802280Y-92915619D02*
X115611804Y-92820380D01*
X115611804Y-92820380D02*
X115516566Y-92725142D01*
X115516566Y-92725142D02*
X115421328Y-92534666D01*
X115421328Y-92534666D02*
X115421328Y-92344190D01*
X115421328Y-92344190D02*
X115516566Y-92153714D01*
X115516566Y-92153714D02*
X115611804Y-92058476D01*
X115611804Y-92058476D02*
X115802280Y-91963238D01*
X115802280Y-91963238D02*
X116278471Y-91963238D01*
X116278471Y-91963238D02*
X116564185Y-92058476D01*
X117135614Y-91963238D02*
X118278471Y-91963238D01*
X117707042Y-93963238D02*
X117707042Y-91963238D01*
X118945138Y-92915619D02*
X119611805Y-92915619D01*
X119897519Y-93963238D02*
X118945138Y-93963238D01*
X118945138Y-93963238D02*
X118945138Y-91963238D01*
X118945138Y-91963238D02*
X119897519Y-91963238D01*
X121897519Y-93963238D02*
X121230852Y-93010857D01*
X120754662Y-93963238D02*
X120754662Y-91963238D01*
X120754662Y-91963238D02*
X121516567Y-91963238D01*
X121516567Y-91963238D02*
X121707043Y-92058476D01*
X121707043Y-92058476D02*
X121802281Y-92153714D01*
X121802281Y-92153714D02*
X121897519Y-92344190D01*
X121897519Y-92344190D02*
X121897519Y-92629904D01*
X121897519Y-92629904D02*
X121802281Y-92820380D01*
X121802281Y-92820380D02*
X121707043Y-92915619D01*
X121707043Y-92915619D02*
X121516567Y-93010857D01*
X121516567Y-93010857D02*
X120754662Y-93010857D01*
X124278472Y-93963238D02*
X124278472Y-91963238D01*
X125230853Y-93963238D02*
X125230853Y-91963238D01*
X127707044Y-93963238D02*
X127707044Y-91963238D01*
X127707044Y-92915619D02*
X128849901Y-92915619D01*
X128849901Y-93963238D02*
X128849901Y-91963238D01*
X129802282Y-93772761D02*
X129897520Y-93868000D01*
X129897520Y-93868000D02*
X129802282Y-93963238D01*
X129802282Y-93963238D02*
X129707044Y-93868000D01*
X129707044Y-93868000D02*
X129802282Y-93772761D01*
X129802282Y-93772761D02*
X129802282Y-93963238D01*
X131135615Y-91963238D02*
X131516568Y-91963238D01*
X131516568Y-91963238D02*
X131707044Y-92058476D01*
X131707044Y-92058476D02*
X131897520Y-92248952D01*
X131897520Y-92248952D02*
X131992758Y-92629904D01*
X131992758Y-92629904D02*
X131992758Y-93296571D01*
X131992758Y-93296571D02*
X131897520Y-93677523D01*
X131897520Y-93677523D02*
X131707044Y-93868000D01*
X131707044Y-93868000D02*
X131516568Y-93963238D01*
X131516568Y-93963238D02*
X131135615Y-93963238D01*
X131135615Y-93963238D02*
X130945139Y-93868000D01*
X130945139Y-93868000D02*
X130754663Y-93677523D01*
X130754663Y-93677523D02*
X130659425Y-93296571D01*
X130659425Y-93296571D02*
X130659425Y-92629904D01*
X130659425Y-92629904D02*
X130754663Y-92248952D01*
X130754663Y-92248952D02*
X130945139Y-92058476D01*
X130945139Y-92058476D02*
X131135615Y-91963238D01*
X132849901Y-93772761D02*
X132945139Y-93868000D01*
X132945139Y-93868000D02*
X132849901Y-93963238D01*
X132849901Y-93963238D02*
X132754663Y-93868000D01*
X132754663Y-93868000D02*
X132849901Y-93772761D01*
X132849901Y-93772761D02*
X132849901Y-93963238D01*
D13*
X123452493Y-96590771D02*
X123404874Y-96543152D01*
X123404874Y-96543152D02*
X123309636Y-96400295D01*
X123309636Y-96400295D02*
X123262017Y-96305057D01*
X123262017Y-96305057D02*
X123214398Y-96162200D01*
X123214398Y-96162200D02*
X123166779Y-95924104D01*
X123166779Y-95924104D02*
X123166779Y-95733628D01*
X123166779Y-95733628D02*
X123214398Y-95495533D01*
X123214398Y-95495533D02*
X123262017Y-95352676D01*
X123262017Y-95352676D02*
X123309636Y-95257438D01*
X123309636Y-95257438D02*
X123404874Y-95114580D01*
X123404874Y-95114580D02*
X123452493Y-95066961D01*
X123833446Y-96209819D02*
X123833446Y-95209819D01*
X123833446Y-95686009D02*
X124404874Y-95686009D01*
X124404874Y-96209819D02*
X124404874Y-95209819D01*
X124881065Y-96209819D02*
X124881065Y-95209819D01*
X125881064Y-95257438D02*
X125785826Y-95209819D01*
X125785826Y-95209819D02*
X125642969Y-95209819D01*
X125642969Y-95209819D02*
X125500112Y-95257438D01*
X125500112Y-95257438D02*
X125404874Y-95352676D01*
X125404874Y-95352676D02*
X125357255Y-95447914D01*
X125357255Y-95447914D02*
X125309636Y-95638390D01*
X125309636Y-95638390D02*
X125309636Y-95781247D01*
X125309636Y-95781247D02*
X125357255Y-95971723D01*
X125357255Y-95971723D02*
X125404874Y-96066961D01*
X125404874Y-96066961D02*
X125500112Y-96162200D01*
X125500112Y-96162200D02*
X125642969Y-96209819D01*
X125642969Y-96209819D02*
X125738207Y-96209819D01*
X125738207Y-96209819D02*
X125881064Y-96162200D01*
X125881064Y-96162200D02*
X125928683Y-96114580D01*
X125928683Y-96114580D02*
X125928683Y-95781247D01*
X125928683Y-95781247D02*
X125738207Y-95781247D01*
X126357255Y-96209819D02*
X126357255Y-95209819D01*
X126357255Y-95686009D02*
X126928683Y-95686009D01*
X126928683Y-96209819D02*
X126928683Y-95209819D01*
X128357255Y-95209819D02*
X128547731Y-95209819D01*
X128547731Y-95209819D02*
X128642969Y-95257438D01*
X128642969Y-95257438D02*
X128738207Y-95352676D01*
X128738207Y-95352676D02*
X128785826Y-95543152D01*
X128785826Y-95543152D02*
X128785826Y-95876485D01*
X128785826Y-95876485D02*
X128738207Y-96066961D01*
X128738207Y-96066961D02*
X128642969Y-96162200D01*
X128642969Y-96162200D02*
X128547731Y-96209819D01*
X128547731Y-96209819D02*
X128357255Y-96209819D01*
X128357255Y-96209819D02*
X128262017Y-96162200D01*
X128262017Y-96162200D02*
X128166779Y-96066961D01*
X128166779Y-96066961D02*
X128119160Y-95876485D01*
X128119160Y-95876485D02*
X128119160Y-95543152D01*
X128119160Y-95543152D02*
X128166779Y-95352676D01*
X128166779Y-95352676D02*
X128262017Y-95257438D01*
X128262017Y-95257438D02*
X128357255Y-95209819D01*
X129214398Y-95209819D02*
X129214398Y-96019342D01*
X129214398Y-96019342D02*
X129262017Y-96114580D01*
X129262017Y-96114580D02*
X129309636Y-96162200D01*
X129309636Y-96162200D02*
X129404874Y-96209819D01*
X129404874Y-96209819D02*
X129595350Y-96209819D01*
X129595350Y-96209819D02*
X129690588Y-96162200D01*
X129690588Y-96162200D02*
X129738207Y-96114580D01*
X129738207Y-96114580D02*
X129785826Y-96019342D01*
X129785826Y-96019342D02*
X129785826Y-95209819D01*
X130119160Y-95209819D02*
X130690588Y-95209819D01*
X130404874Y-96209819D02*
X130404874Y-95209819D01*
X131023922Y-96209819D02*
X131023922Y-95209819D01*
X131023922Y-95209819D02*
X131404874Y-95209819D01*
X131404874Y-95209819D02*
X131500112Y-95257438D01*
X131500112Y-95257438D02*
X131547731Y-95305057D01*
X131547731Y-95305057D02*
X131595350Y-95400295D01*
X131595350Y-95400295D02*
X131595350Y-95543152D01*
X131595350Y-95543152D02*
X131547731Y-95638390D01*
X131547731Y-95638390D02*
X131500112Y-95686009D01*
X131500112Y-95686009D02*
X131404874Y-95733628D01*
X131404874Y-95733628D02*
X131023922Y-95733628D01*
X132023922Y-95209819D02*
X132023922Y-96019342D01*
X132023922Y-96019342D02*
X132071541Y-96114580D01*
X132071541Y-96114580D02*
X132119160Y-96162200D01*
X132119160Y-96162200D02*
X132214398Y-96209819D01*
X132214398Y-96209819D02*
X132404874Y-96209819D01*
X132404874Y-96209819D02*
X132500112Y-96162200D01*
X132500112Y-96162200D02*
X132547731Y-96114580D01*
X132547731Y-96114580D02*
X132595350Y-96019342D01*
X132595350Y-96019342D02*
X132595350Y-95209819D01*
X132928684Y-95209819D02*
X133500112Y-95209819D01*
X133214398Y-96209819D02*
X133214398Y-95209819D01*
X133738208Y-96590771D02*
X133785827Y-96543152D01*
X133785827Y-96543152D02*
X133881065Y-96400295D01*
X133881065Y-96400295D02*
X133928684Y-96305057D01*
X133928684Y-96305057D02*
X133976303Y-96162200D01*
X133976303Y-96162200D02*
X134023922Y-95924104D01*
X134023922Y-95924104D02*
X134023922Y-95733628D01*
X134023922Y-95733628D02*
X133976303Y-95495533D01*
X133976303Y-95495533D02*
X133928684Y-95352676D01*
X133928684Y-95352676D02*
X133881065Y-95257438D01*
X133881065Y-95257438D02*
X133785827Y-95114580D01*
X133785827Y-95114580D02*
X133738208Y-95066961D01*
D10*
X80412568Y-107179619D02*
X80412568Y-106179619D01*
X80412568Y-106179619D02*
X80745901Y-106893904D01*
X80745901Y-106893904D02*
X81079234Y-106179619D01*
X81079234Y-106179619D02*
X81079234Y-107179619D01*
X81745901Y-106179619D02*
X81936377Y-106179619D01*
X81936377Y-106179619D02*
X82031615Y-106227238D01*
X82031615Y-106227238D02*
X82126853Y-106322476D01*
X82126853Y-106322476D02*
X82174472Y-106512952D01*
X82174472Y-106512952D02*
X82174472Y-106846285D01*
X82174472Y-106846285D02*
X82126853Y-107036761D01*
X82126853Y-107036761D02*
X82031615Y-107132000D01*
X82031615Y-107132000D02*
X81936377Y-107179619D01*
X81936377Y-107179619D02*
X81745901Y-107179619D01*
X81745901Y-107179619D02*
X81650663Y-107132000D01*
X81650663Y-107132000D02*
X81555425Y-107036761D01*
X81555425Y-107036761D02*
X81507806Y-106846285D01*
X81507806Y-106846285D02*
X81507806Y-106512952D01*
X81507806Y-106512952D02*
X81555425Y-106322476D01*
X81555425Y-106322476D02*
X81650663Y-106227238D01*
X81650663Y-106227238D02*
X81745901Y-106179619D01*
X82603044Y-107179619D02*
X82603044Y-106179619D01*
X82603044Y-106179619D02*
X82841139Y-106179619D01*
X82841139Y-106179619D02*
X82983996Y-106227238D01*
X82983996Y-106227238D02*
X83079234Y-106322476D01*
X83079234Y-106322476D02*
X83126853Y-106417714D01*
X83126853Y-106417714D02*
X83174472Y-106608190D01*
X83174472Y-106608190D02*
X83174472Y-106751047D01*
X83174472Y-106751047D02*
X83126853Y-106941523D01*
X83126853Y-106941523D02*
X83079234Y-107036761D01*
X83079234Y-107036761D02*
X82983996Y-107132000D01*
X82983996Y-107132000D02*
X82841139Y-107179619D01*
X82841139Y-107179619D02*
X82603044Y-107179619D01*
X83603044Y-106655809D02*
X83936377Y-106655809D01*
X84079234Y-107179619D02*
X83603044Y-107179619D01*
X83603044Y-107179619D02*
X83603044Y-106179619D01*
X83603044Y-106179619D02*
X84079234Y-106179619D01*
D13*
X171405779Y-115947819D02*
X171405779Y-115281152D01*
X171405779Y-115471628D02*
X171453398Y-115376390D01*
X171453398Y-115376390D02*
X171501017Y-115328771D01*
X171501017Y-115328771D02*
X171596255Y-115281152D01*
X171596255Y-115281152D02*
X171691493Y-115281152D01*
X172405779Y-115900200D02*
X172310541Y-115947819D01*
X172310541Y-115947819D02*
X172120065Y-115947819D01*
X172120065Y-115947819D02*
X172024827Y-115900200D01*
X172024827Y-115900200D02*
X171977208Y-115804961D01*
X171977208Y-115804961D02*
X171977208Y-115424009D01*
X171977208Y-115424009D02*
X172024827Y-115328771D01*
X172024827Y-115328771D02*
X172120065Y-115281152D01*
X172120065Y-115281152D02*
X172310541Y-115281152D01*
X172310541Y-115281152D02*
X172405779Y-115328771D01*
X172405779Y-115328771D02*
X172453398Y-115424009D01*
X172453398Y-115424009D02*
X172453398Y-115519247D01*
X172453398Y-115519247D02*
X171977208Y-115614485D01*
X173024827Y-115947819D02*
X172929589Y-115900200D01*
X172929589Y-115900200D02*
X172881970Y-115804961D01*
X172881970Y-115804961D02*
X172881970Y-114947819D01*
X173548637Y-115947819D02*
X173453399Y-115900200D01*
X173453399Y-115900200D02*
X173405780Y-115852580D01*
X173405780Y-115852580D02*
X173358161Y-115757342D01*
X173358161Y-115757342D02*
X173358161Y-115471628D01*
X173358161Y-115471628D02*
X173405780Y-115376390D01*
X173405780Y-115376390D02*
X173453399Y-115328771D01*
X173453399Y-115328771D02*
X173548637Y-115281152D01*
X173548637Y-115281152D02*
X173691494Y-115281152D01*
X173691494Y-115281152D02*
X173786732Y-115328771D01*
X173786732Y-115328771D02*
X173834351Y-115376390D01*
X173834351Y-115376390D02*
X173881970Y-115471628D01*
X173881970Y-115471628D02*
X173881970Y-115757342D01*
X173881970Y-115757342D02*
X173834351Y-115852580D01*
X173834351Y-115852580D02*
X173786732Y-115900200D01*
X173786732Y-115900200D02*
X173691494Y-115947819D01*
X173691494Y-115947819D02*
X173548637Y-115947819D01*
X174739113Y-115947819D02*
X174739113Y-115424009D01*
X174739113Y-115424009D02*
X174691494Y-115328771D01*
X174691494Y-115328771D02*
X174596256Y-115281152D01*
X174596256Y-115281152D02*
X174405780Y-115281152D01*
X174405780Y-115281152D02*
X174310542Y-115328771D01*
X174739113Y-115900200D02*
X174643875Y-115947819D01*
X174643875Y-115947819D02*
X174405780Y-115947819D01*
X174405780Y-115947819D02*
X174310542Y-115900200D01*
X174310542Y-115900200D02*
X174262923Y-115804961D01*
X174262923Y-115804961D02*
X174262923Y-115709723D01*
X174262923Y-115709723D02*
X174310542Y-115614485D01*
X174310542Y-115614485D02*
X174405780Y-115566866D01*
X174405780Y-115566866D02*
X174643875Y-115566866D01*
X174643875Y-115566866D02*
X174739113Y-115519247D01*
X175643875Y-115947819D02*
X175643875Y-114947819D01*
X175643875Y-115900200D02*
X175548637Y-115947819D01*
X175548637Y-115947819D02*
X175358161Y-115947819D01*
X175358161Y-115947819D02*
X175262923Y-115900200D01*
X175262923Y-115900200D02*
X175215304Y-115852580D01*
X175215304Y-115852580D02*
X175167685Y-115757342D01*
X175167685Y-115757342D02*
X175167685Y-115471628D01*
X175167685Y-115471628D02*
X175215304Y-115376390D01*
X175215304Y-115376390D02*
X175262923Y-115328771D01*
X175262923Y-115328771D02*
X175358161Y-115281152D01*
X175358161Y-115281152D02*
X175548637Y-115281152D01*
X175548637Y-115281152D02*
X175643875Y-115328771D01*
X176501018Y-115900200D02*
X176405780Y-115947819D01*
X176405780Y-115947819D02*
X176215304Y-115947819D01*
X176215304Y-115947819D02*
X176120066Y-115900200D01*
X176120066Y-115900200D02*
X176072447Y-115804961D01*
X176072447Y-115804961D02*
X176072447Y-115424009D01*
X176072447Y-115424009D02*
X176120066Y-115328771D01*
X176120066Y-115328771D02*
X176215304Y-115281152D01*
X176215304Y-115281152D02*
X176405780Y-115281152D01*
X176405780Y-115281152D02*
X176501018Y-115328771D01*
X176501018Y-115328771D02*
X176548637Y-115424009D01*
X176548637Y-115424009D02*
X176548637Y-115519247D01*
X176548637Y-115519247D02*
X176072447Y-115614485D01*
X177405780Y-115947819D02*
X177405780Y-114947819D01*
X177405780Y-115900200D02*
X177310542Y-115947819D01*
X177310542Y-115947819D02*
X177120066Y-115947819D01*
X177120066Y-115947819D02*
X177024828Y-115900200D01*
X177024828Y-115900200D02*
X176977209Y-115852580D01*
X176977209Y-115852580D02*
X176929590Y-115757342D01*
X176929590Y-115757342D02*
X176929590Y-115471628D01*
X176929590Y-115471628D02*
X176977209Y-115376390D01*
X176977209Y-115376390D02*
X177024828Y-115328771D01*
X177024828Y-115328771D02*
X177120066Y-115281152D01*
X177120066Y-115281152D02*
X177310542Y-115281152D01*
X177310542Y-115281152D02*
X177405780Y-115328771D01*
X178596257Y-115043057D02*
X178643876Y-114995438D01*
X178643876Y-114995438D02*
X178739114Y-114947819D01*
X178739114Y-114947819D02*
X178977209Y-114947819D01*
X178977209Y-114947819D02*
X179072447Y-114995438D01*
X179072447Y-114995438D02*
X179120066Y-115043057D01*
X179120066Y-115043057D02*
X179167685Y-115138295D01*
X179167685Y-115138295D02*
X179167685Y-115233533D01*
X179167685Y-115233533D02*
X179120066Y-115376390D01*
X179120066Y-115376390D02*
X178548638Y-115947819D01*
X178548638Y-115947819D02*
X179167685Y-115947819D01*
X179786733Y-114947819D02*
X179881971Y-114947819D01*
X179881971Y-114947819D02*
X179977209Y-114995438D01*
X179977209Y-114995438D02*
X180024828Y-115043057D01*
X180024828Y-115043057D02*
X180072447Y-115138295D01*
X180072447Y-115138295D02*
X180120066Y-115328771D01*
X180120066Y-115328771D02*
X180120066Y-115566866D01*
X180120066Y-115566866D02*
X180072447Y-115757342D01*
X180072447Y-115757342D02*
X180024828Y-115852580D01*
X180024828Y-115852580D02*
X179977209Y-115900200D01*
X179977209Y-115900200D02*
X179881971Y-115947819D01*
X179881971Y-115947819D02*
X179786733Y-115947819D01*
X179786733Y-115947819D02*
X179691495Y-115900200D01*
X179691495Y-115900200D02*
X179643876Y-115852580D01*
X179643876Y-115852580D02*
X179596257Y-115757342D01*
X179596257Y-115757342D02*
X179548638Y-115566866D01*
X179548638Y-115566866D02*
X179548638Y-115328771D01*
X179548638Y-115328771D02*
X179596257Y-115138295D01*
X179596257Y-115138295D02*
X179643876Y-115043057D01*
X179643876Y-115043057D02*
X179691495Y-114995438D01*
X179691495Y-114995438D02*
X179786733Y-114947819D01*
X180501019Y-115043057D02*
X180548638Y-114995438D01*
X180548638Y-114995438D02*
X180643876Y-114947819D01*
X180643876Y-114947819D02*
X180881971Y-114947819D01*
X180881971Y-114947819D02*
X180977209Y-114995438D01*
X180977209Y-114995438D02*
X181024828Y-115043057D01*
X181024828Y-115043057D02*
X181072447Y-115138295D01*
X181072447Y-115138295D02*
X181072447Y-115233533D01*
X181072447Y-115233533D02*
X181024828Y-115376390D01*
X181024828Y-115376390D02*
X180453400Y-115947819D01*
X180453400Y-115947819D02*
X181072447Y-115947819D01*
X181405781Y-114947819D02*
X182024828Y-114947819D01*
X182024828Y-114947819D02*
X181691495Y-115328771D01*
X181691495Y-115328771D02*
X181834352Y-115328771D01*
X181834352Y-115328771D02*
X181929590Y-115376390D01*
X181929590Y-115376390D02*
X181977209Y-115424009D01*
X181977209Y-115424009D02*
X182024828Y-115519247D01*
X182024828Y-115519247D02*
X182024828Y-115757342D01*
X182024828Y-115757342D02*
X181977209Y-115852580D01*
X181977209Y-115852580D02*
X181929590Y-115900200D01*
X181929590Y-115900200D02*
X181834352Y-115947819D01*
X181834352Y-115947819D02*
X181548638Y-115947819D01*
X181548638Y-115947819D02*
X181453400Y-115900200D01*
X181453400Y-115900200D02*
X181405781Y-115852580D01*
X183167685Y-114900200D02*
X182310543Y-116185914D01*
X183501019Y-115947819D02*
X183501019Y-115281152D01*
X183501019Y-115471628D02*
X183548638Y-115376390D01*
X183548638Y-115376390D02*
X183596257Y-115328771D01*
X183596257Y-115328771D02*
X183691495Y-115281152D01*
X183691495Y-115281152D02*
X183786733Y-115281152D01*
X184501019Y-115900200D02*
X184405781Y-115947819D01*
X184405781Y-115947819D02*
X184215305Y-115947819D01*
X184215305Y-115947819D02*
X184120067Y-115900200D01*
X184120067Y-115900200D02*
X184072448Y-115804961D01*
X184072448Y-115804961D02*
X184072448Y-115424009D01*
X184072448Y-115424009D02*
X184120067Y-115328771D01*
X184120067Y-115328771D02*
X184215305Y-115281152D01*
X184215305Y-115281152D02*
X184405781Y-115281152D01*
X184405781Y-115281152D02*
X184501019Y-115328771D01*
X184501019Y-115328771D02*
X184548638Y-115424009D01*
X184548638Y-115424009D02*
X184548638Y-115519247D01*
X184548638Y-115519247D02*
X184072448Y-115614485D01*
X184881972Y-115281152D02*
X185120067Y-115947819D01*
X185120067Y-115947819D02*
X185358162Y-115281152D01*
X185739115Y-115852580D02*
X185786734Y-115900200D01*
X185786734Y-115900200D02*
X185739115Y-115947819D01*
X185739115Y-115947819D02*
X185691496Y-115900200D01*
X185691496Y-115900200D02*
X185739115Y-115852580D01*
X185739115Y-115852580D02*
X185739115Y-115947819D01*
X186739114Y-115947819D02*
X186167686Y-115947819D01*
X186453400Y-115947819D02*
X186453400Y-114947819D01*
X186453400Y-114947819D02*
X186358162Y-115090676D01*
X186358162Y-115090676D02*
X186262924Y-115185914D01*
X186262924Y-115185914D02*
X186167686Y-115233533D01*
D10*
X80364949Y-114513904D02*
X80841139Y-114513904D01*
X80269711Y-114799619D02*
X80603044Y-113799619D01*
X80603044Y-113799619D02*
X80936377Y-114799619D01*
D14*
X170331424Y-113033357D02*
X171045710Y-113033357D01*
X170188567Y-113461928D02*
X170688567Y-111961928D01*
X170688567Y-111961928D02*
X171188567Y-113461928D01*
X171688566Y-112461928D02*
X171688566Y-113961928D01*
X171688566Y-112533357D02*
X171831424Y-112461928D01*
X171831424Y-112461928D02*
X172117138Y-112461928D01*
X172117138Y-112461928D02*
X172259995Y-112533357D01*
X172259995Y-112533357D02*
X172331424Y-112604785D01*
X172331424Y-112604785D02*
X172402852Y-112747642D01*
X172402852Y-112747642D02*
X172402852Y-113176214D01*
X172402852Y-113176214D02*
X172331424Y-113319071D01*
X172331424Y-113319071D02*
X172259995Y-113390500D01*
X172259995Y-113390500D02*
X172117138Y-113461928D01*
X172117138Y-113461928D02*
X171831424Y-113461928D01*
X171831424Y-113461928D02*
X171688566Y-113390500D01*
X173045709Y-112461928D02*
X173045709Y-113961928D01*
X173045709Y-112533357D02*
X173188567Y-112461928D01*
X173188567Y-112461928D02*
X173474281Y-112461928D01*
X173474281Y-112461928D02*
X173617138Y-112533357D01*
X173617138Y-112533357D02*
X173688567Y-112604785D01*
X173688567Y-112604785D02*
X173759995Y-112747642D01*
X173759995Y-112747642D02*
X173759995Y-113176214D01*
X173759995Y-113176214D02*
X173688567Y-113319071D01*
X173688567Y-113319071D02*
X173617138Y-113390500D01*
X173617138Y-113390500D02*
X173474281Y-113461928D01*
X173474281Y-113461928D02*
X173188567Y-113461928D01*
X173188567Y-113461928D02*
X173045709Y-113390500D01*
X174617138Y-113461928D02*
X174474281Y-113390500D01*
X174474281Y-113390500D02*
X174402852Y-113247642D01*
X174402852Y-113247642D02*
X174402852Y-111961928D01*
X175759995Y-113390500D02*
X175617138Y-113461928D01*
X175617138Y-113461928D02*
X175331424Y-113461928D01*
X175331424Y-113461928D02*
X175188566Y-113390500D01*
X175188566Y-113390500D02*
X175117138Y-113247642D01*
X175117138Y-113247642D02*
X175117138Y-112676214D01*
X175117138Y-112676214D02*
X175188566Y-112533357D01*
X175188566Y-112533357D02*
X175331424Y-112461928D01*
X175331424Y-112461928D02*
X175617138Y-112461928D01*
X175617138Y-112461928D02*
X175759995Y-112533357D01*
X175759995Y-112533357D02*
X175831424Y-112676214D01*
X175831424Y-112676214D02*
X175831424Y-112819071D01*
X175831424Y-112819071D02*
X175117138Y-112961928D01*
X177474280Y-113961928D02*
X177831423Y-113961928D01*
X177831423Y-113961928D02*
X177831423Y-111819071D01*
X177831423Y-111819071D02*
X177474280Y-111819071D01*
X179045709Y-113961928D02*
X178688566Y-113961928D01*
X178688566Y-113961928D02*
X178688566Y-111819071D01*
X178688566Y-111819071D02*
X179045709Y-111819071D01*
X180545709Y-112461928D02*
X181117137Y-112461928D01*
X180759994Y-113461928D02*
X180759994Y-112176214D01*
X180759994Y-112176214D02*
X180831423Y-112033357D01*
X180831423Y-112033357D02*
X180974280Y-111961928D01*
X180974280Y-111961928D02*
X181117137Y-111961928D01*
X181831423Y-113461928D02*
X181688566Y-113390500D01*
X181688566Y-113390500D02*
X181617137Y-113319071D01*
X181617137Y-113319071D02*
X181545709Y-113176214D01*
X181545709Y-113176214D02*
X181545709Y-112747642D01*
X181545709Y-112747642D02*
X181617137Y-112604785D01*
X181617137Y-112604785D02*
X181688566Y-112533357D01*
X181688566Y-112533357D02*
X181831423Y-112461928D01*
X181831423Y-112461928D02*
X182045709Y-112461928D01*
X182045709Y-112461928D02*
X182188566Y-112533357D01*
X182188566Y-112533357D02*
X182259995Y-112604785D01*
X182259995Y-112604785D02*
X182331423Y-112747642D01*
X182331423Y-112747642D02*
X182331423Y-113176214D01*
X182331423Y-113176214D02*
X182259995Y-113319071D01*
X182259995Y-113319071D02*
X182188566Y-113390500D01*
X182188566Y-113390500D02*
X182045709Y-113461928D01*
X182045709Y-113461928D02*
X181831423Y-113461928D01*
X182974280Y-113461928D02*
X182974280Y-112461928D01*
X182974280Y-112747642D02*
X183045709Y-112604785D01*
X183045709Y-112604785D02*
X183117138Y-112533357D01*
X183117138Y-112533357D02*
X183259995Y-112461928D01*
X183259995Y-112461928D02*
X183402852Y-112461928D01*
X184474280Y-113390500D02*
X184331423Y-113461928D01*
X184331423Y-113461928D02*
X184045709Y-113461928D01*
X184045709Y-113461928D02*
X183902851Y-113390500D01*
X183902851Y-113390500D02*
X183831423Y-113247642D01*
X183831423Y-113247642D02*
X183831423Y-112676214D01*
X183831423Y-112676214D02*
X183902851Y-112533357D01*
X183902851Y-112533357D02*
X184045709Y-112461928D01*
X184045709Y-112461928D02*
X184331423Y-112461928D01*
X184331423Y-112461928D02*
X184474280Y-112533357D01*
X184474280Y-112533357D02*
X184545709Y-112676214D01*
X184545709Y-112676214D02*
X184545709Y-112819071D01*
X184545709Y-112819071D02*
X183831423Y-112961928D01*
X185045708Y-112461928D02*
X185402851Y-113461928D01*
X185402851Y-113461928D02*
X185759994Y-112461928D01*
X186902851Y-113390500D02*
X186759994Y-113461928D01*
X186759994Y-113461928D02*
X186474280Y-113461928D01*
X186474280Y-113461928D02*
X186331422Y-113390500D01*
X186331422Y-113390500D02*
X186259994Y-113247642D01*
X186259994Y-113247642D02*
X186259994Y-112676214D01*
X186259994Y-112676214D02*
X186331422Y-112533357D01*
X186331422Y-112533357D02*
X186474280Y-112461928D01*
X186474280Y-112461928D02*
X186759994Y-112461928D01*
X186759994Y-112461928D02*
X186902851Y-112533357D01*
X186902851Y-112533357D02*
X186974280Y-112676214D01*
X186974280Y-112676214D02*
X186974280Y-112819071D01*
X186974280Y-112819071D02*
X186259994Y-112961928D01*
X187617136Y-113461928D02*
X187617136Y-112461928D01*
X187617136Y-112747642D02*
X187688565Y-112604785D01*
X187688565Y-112604785D02*
X187759994Y-112533357D01*
X187759994Y-112533357D02*
X187902851Y-112461928D01*
X187902851Y-112461928D02*
X188045708Y-112461928D01*
D13*
X132533922Y-90429819D02*
X133105350Y-90429819D01*
X132819636Y-91429819D02*
X132819636Y-90429819D01*
X133438684Y-91429819D02*
X133438684Y-90429819D01*
X133438684Y-90429819D02*
X133772017Y-91144104D01*
X133772017Y-91144104D02*
X134105350Y-90429819D01*
X134105350Y-90429819D02*
X134105350Y-91429819D01*
%TO.C,U1*%
X100838095Y-60414819D02*
X100838095Y-61224342D01*
X100838095Y-61224342D02*
X100885714Y-61319580D01*
X100885714Y-61319580D02*
X100933333Y-61367200D01*
X100933333Y-61367200D02*
X101028571Y-61414819D01*
X101028571Y-61414819D02*
X101219047Y-61414819D01*
X101219047Y-61414819D02*
X101314285Y-61367200D01*
X101314285Y-61367200D02*
X101361904Y-61319580D01*
X101361904Y-61319580D02*
X101409523Y-61224342D01*
X101409523Y-61224342D02*
X101409523Y-60414819D01*
X102409523Y-61414819D02*
X101838095Y-61414819D01*
X102123809Y-61414819D02*
X102123809Y-60414819D01*
X102123809Y-60414819D02*
X102028571Y-60557676D01*
X102028571Y-60557676D02*
X101933333Y-60652914D01*
X101933333Y-60652914D02*
X101838095Y-60700533D01*
%TO.C,U3*%
X168148095Y-60414819D02*
X168148095Y-61224342D01*
X168148095Y-61224342D02*
X168195714Y-61319580D01*
X168195714Y-61319580D02*
X168243333Y-61367200D01*
X168243333Y-61367200D02*
X168338571Y-61414819D01*
X168338571Y-61414819D02*
X168529047Y-61414819D01*
X168529047Y-61414819D02*
X168624285Y-61367200D01*
X168624285Y-61367200D02*
X168671904Y-61319580D01*
X168671904Y-61319580D02*
X168719523Y-61224342D01*
X168719523Y-61224342D02*
X168719523Y-60414819D01*
X169100476Y-60414819D02*
X169719523Y-60414819D01*
X169719523Y-60414819D02*
X169386190Y-60795771D01*
X169386190Y-60795771D02*
X169529047Y-60795771D01*
X169529047Y-60795771D02*
X169624285Y-60843390D01*
X169624285Y-60843390D02*
X169671904Y-60891009D01*
X169671904Y-60891009D02*
X169719523Y-60986247D01*
X169719523Y-60986247D02*
X169719523Y-61224342D01*
X169719523Y-61224342D02*
X169671904Y-61319580D01*
X169671904Y-61319580D02*
X169624285Y-61367200D01*
X169624285Y-61367200D02*
X169529047Y-61414819D01*
X169529047Y-61414819D02*
X169243333Y-61414819D01*
X169243333Y-61414819D02*
X169148095Y-61367200D01*
X169148095Y-61367200D02*
X169100476Y-61319580D01*
%TO.C,U6*%
X116078095Y-101054819D02*
X116078095Y-101864342D01*
X116078095Y-101864342D02*
X116125714Y-101959580D01*
X116125714Y-101959580D02*
X116173333Y-102007200D01*
X116173333Y-102007200D02*
X116268571Y-102054819D01*
X116268571Y-102054819D02*
X116459047Y-102054819D01*
X116459047Y-102054819D02*
X116554285Y-102007200D01*
X116554285Y-102007200D02*
X116601904Y-101959580D01*
X116601904Y-101959580D02*
X116649523Y-101864342D01*
X116649523Y-101864342D02*
X116649523Y-101054819D01*
X117554285Y-101054819D02*
X117363809Y-101054819D01*
X117363809Y-101054819D02*
X117268571Y-101102438D01*
X117268571Y-101102438D02*
X117220952Y-101150057D01*
X117220952Y-101150057D02*
X117125714Y-101292914D01*
X117125714Y-101292914D02*
X117078095Y-101483390D01*
X117078095Y-101483390D02*
X117078095Y-101864342D01*
X117078095Y-101864342D02*
X117125714Y-101959580D01*
X117125714Y-101959580D02*
X117173333Y-102007200D01*
X117173333Y-102007200D02*
X117268571Y-102054819D01*
X117268571Y-102054819D02*
X117459047Y-102054819D01*
X117459047Y-102054819D02*
X117554285Y-102007200D01*
X117554285Y-102007200D02*
X117601904Y-101959580D01*
X117601904Y-101959580D02*
X117649523Y-101864342D01*
X117649523Y-101864342D02*
X117649523Y-101626247D01*
X117649523Y-101626247D02*
X117601904Y-101531009D01*
X117601904Y-101531009D02*
X117554285Y-101483390D01*
X117554285Y-101483390D02*
X117459047Y-101435771D01*
X117459047Y-101435771D02*
X117268571Y-101435771D01*
X117268571Y-101435771D02*
X117173333Y-101483390D01*
X117173333Y-101483390D02*
X117125714Y-101531009D01*
X117125714Y-101531009D02*
X117078095Y-101626247D01*
%TO.C,U2*%
X141478095Y-98514819D02*
X141478095Y-99324342D01*
X141478095Y-99324342D02*
X141525714Y-99419580D01*
X141525714Y-99419580D02*
X141573333Y-99467200D01*
X141573333Y-99467200D02*
X141668571Y-99514819D01*
X141668571Y-99514819D02*
X141859047Y-99514819D01*
X141859047Y-99514819D02*
X141954285Y-99467200D01*
X141954285Y-99467200D02*
X142001904Y-99419580D01*
X142001904Y-99419580D02*
X142049523Y-99324342D01*
X142049523Y-99324342D02*
X142049523Y-98514819D01*
X142478095Y-98610057D02*
X142525714Y-98562438D01*
X142525714Y-98562438D02*
X142620952Y-98514819D01*
X142620952Y-98514819D02*
X142859047Y-98514819D01*
X142859047Y-98514819D02*
X142954285Y-98562438D01*
X142954285Y-98562438D02*
X143001904Y-98610057D01*
X143001904Y-98610057D02*
X143049523Y-98705295D01*
X143049523Y-98705295D02*
X143049523Y-98800533D01*
X143049523Y-98800533D02*
X143001904Y-98943390D01*
X143001904Y-98943390D02*
X142430476Y-99514819D01*
X142430476Y-99514819D02*
X143049523Y-99514819D01*
D12*
%TO.C,BT1*%
X194962333Y-103054862D02*
X194962333Y-101531053D01*
X179260137Y-77767333D02*
X180783947Y-77767333D01*
X180022042Y-78529238D02*
X180022042Y-77005428D01*
D13*
%TO.C,U4*%
X141478095Y-102324819D02*
X141478095Y-103134342D01*
X141478095Y-103134342D02*
X141525714Y-103229580D01*
X141525714Y-103229580D02*
X141573333Y-103277200D01*
X141573333Y-103277200D02*
X141668571Y-103324819D01*
X141668571Y-103324819D02*
X141859047Y-103324819D01*
X141859047Y-103324819D02*
X141954285Y-103277200D01*
X141954285Y-103277200D02*
X142001904Y-103229580D01*
X142001904Y-103229580D02*
X142049523Y-103134342D01*
X142049523Y-103134342D02*
X142049523Y-102324819D01*
X142954285Y-102658152D02*
X142954285Y-103324819D01*
X142716190Y-102277200D02*
X142478095Y-102991485D01*
X142478095Y-102991485D02*
X143097142Y-102991485D01*
%TO.C,U5*%
X100838095Y-101054819D02*
X100838095Y-101864342D01*
X100838095Y-101864342D02*
X100885714Y-101959580D01*
X100885714Y-101959580D02*
X100933333Y-102007200D01*
X100933333Y-102007200D02*
X101028571Y-102054819D01*
X101028571Y-102054819D02*
X101219047Y-102054819D01*
X101219047Y-102054819D02*
X101314285Y-102007200D01*
X101314285Y-102007200D02*
X101361904Y-101959580D01*
X101361904Y-101959580D02*
X101409523Y-101864342D01*
X101409523Y-101864342D02*
X101409523Y-101054819D01*
X102361904Y-101054819D02*
X101885714Y-101054819D01*
X101885714Y-101054819D02*
X101838095Y-101531009D01*
X101838095Y-101531009D02*
X101885714Y-101483390D01*
X101885714Y-101483390D02*
X101980952Y-101435771D01*
X101980952Y-101435771D02*
X102219047Y-101435771D01*
X102219047Y-101435771D02*
X102314285Y-101483390D01*
X102314285Y-101483390D02*
X102361904Y-101531009D01*
X102361904Y-101531009D02*
X102409523Y-101626247D01*
X102409523Y-101626247D02*
X102409523Y-101864342D01*
X102409523Y-101864342D02*
X102361904Y-101959580D01*
X102361904Y-101959580D02*
X102314285Y-102007200D01*
X102314285Y-102007200D02*
X102219047Y-102054819D01*
X102219047Y-102054819D02*
X101980952Y-102054819D01*
X101980952Y-102054819D02*
X101885714Y-102007200D01*
X101885714Y-102007200D02*
X101838095Y-101959580D01*
D15*
%TO.C,C5*%
X138220000Y-90440000D02*
X138205000Y-90440000D01*
X138220000Y-90440000D02*
X138220000Y-94980000D01*
X136095000Y-90440000D02*
X136080000Y-90440000D01*
X136080000Y-90440000D02*
X136080000Y-94980000D01*
X138220000Y-94980000D02*
X138205000Y-94980000D01*
X136095000Y-94980000D02*
X136080000Y-94980000D01*
%TO.C,C6*%
X102350000Y-95832500D02*
X103850000Y-95832500D01*
X102960000Y-98032500D02*
X104100000Y-98032500D01*
X103100000Y-95082500D02*
X103100000Y-96582500D01*
X104100000Y-95662500D02*
X104100000Y-100402500D01*
X104100000Y-95662500D02*
X105600000Y-95662500D01*
X104100000Y-100402500D02*
X105600000Y-100402500D01*
X105600000Y-95662500D02*
X106350000Y-96412500D01*
X105600000Y-100402500D02*
X106350000Y-99652500D01*
X106350000Y-96412500D02*
X107100000Y-95662500D01*
X106350000Y-99652500D02*
X107100000Y-100402500D01*
X107100000Y-95662500D02*
X114340000Y-95662500D01*
X107100000Y-100402500D02*
X114340000Y-100402500D01*
X114340000Y-95662500D02*
X114340000Y-100402500D01*
X115480000Y-98032500D02*
X114340000Y-98032500D01*
%TO.C,D1*%
X112395000Y-64490000D02*
X112395000Y-66940000D01*
X113315000Y-66940000D02*
X111475000Y-66940000D01*
X111475000Y-66940000D02*
X111475000Y-70220000D01*
X113315000Y-67396000D02*
X111475000Y-67396000D01*
X113315000Y-67516000D02*
X111475000Y-67516000D01*
X113315000Y-67636000D02*
X111475000Y-67636000D01*
X113315000Y-70220000D02*
X113315000Y-66940000D01*
X111475000Y-70220000D02*
X113315000Y-70220000D01*
X112395000Y-72670000D02*
X112395000Y-70220000D01*
%TO.C,R2*%
X112800000Y-123190000D02*
X113570000Y-123190000D01*
X113570000Y-121820000D02*
X113570000Y-124560000D01*
X113570000Y-124560000D02*
X120110000Y-124560000D01*
X120110000Y-121820000D02*
X113570000Y-121820000D01*
X120110000Y-124560000D02*
X120110000Y-121820000D01*
X120880000Y-123190000D02*
X120110000Y-123190000D01*
%TO.C,U1*%
X99350000Y-62170000D02*
X99350000Y-85150000D01*
X99350000Y-85150000D02*
X103850000Y-85150000D01*
X100600000Y-62170000D02*
X99350000Y-62170000D01*
X103850000Y-62170000D02*
X102600000Y-62170000D01*
X103850000Y-85150000D02*
X103850000Y-62170000D01*
X100600000Y-62170000D02*
G75*
G03*
X102600000Y-62170000I1000000J0D01*
G01*
%TO.C,C4*%
X91640000Y-121650000D02*
X91655000Y-121650000D01*
X91640000Y-121650000D02*
X91640000Y-117110000D01*
X93765000Y-121650000D02*
X93780000Y-121650000D01*
X93780000Y-121650000D02*
X93780000Y-117110000D01*
X91640000Y-117110000D02*
X91655000Y-117110000D01*
X93765000Y-117110000D02*
X93780000Y-117110000D01*
%TO.C,U3*%
X174045000Y-65060000D02*
X123125000Y-65060000D01*
X123125000Y-65060000D02*
X123125000Y-77180000D01*
X174045000Y-70120000D02*
X174045000Y-65060000D01*
X174045000Y-77180000D02*
X174045000Y-72120000D01*
X123125000Y-77180000D02*
X174045000Y-77180000D01*
X174045000Y-70120000D02*
G75*
G03*
X174045000Y-72120000I0J-1000000D01*
G01*
%TO.C,U6*%
X114600000Y-102805000D02*
X114600000Y-120705000D01*
X114600000Y-120705000D02*
X119100000Y-120705000D01*
X115850000Y-102805000D02*
X114600000Y-102805000D01*
X119100000Y-102805000D02*
X117850000Y-102805000D01*
X119100000Y-120705000D02*
X119100000Y-102805000D01*
X115850000Y-102805000D02*
G75*
G03*
X117850000Y-102805000I1000000J0D01*
G01*
%TO.C,XTAL1*%
X87500000Y-86397500D02*
X80600000Y-86397500D01*
X80600000Y-86397500D02*
X80600000Y-88857500D01*
X88400000Y-86677500D02*
X88600000Y-86677500D01*
X87500000Y-87277500D02*
X88400000Y-86677500D01*
X87500000Y-87977500D02*
X88400000Y-88577500D01*
X88400000Y-88577500D02*
X88600000Y-88577500D01*
X87500000Y-88857500D02*
X87500000Y-86397500D01*
X80600000Y-88857500D02*
X87500000Y-88857500D01*
%TO.C,TP1*%
X190430000Y-59690000D02*
G75*
G03*
X190430000Y-59690000I-1200000J0D01*
G01*
%TO.C,J3*%
X90170000Y-123190000D02*
X88900000Y-123190000D01*
X90170000Y-121920000D02*
X90170000Y-123190000D01*
%TO.C,C2*%
X84090000Y-94180000D02*
X84090000Y-94195000D01*
X84090000Y-94180000D02*
X88630000Y-94180000D01*
X84090000Y-96305000D02*
X84090000Y-96320000D01*
X84090000Y-96320000D02*
X88630000Y-96320000D01*
X88630000Y-94180000D02*
X88630000Y-94195000D01*
X88630000Y-96305000D02*
X88630000Y-96320000D01*
%TO.C,R1*%
X119380000Y-64540000D02*
X119380000Y-65310000D01*
X120750000Y-65310000D02*
X118010000Y-65310000D01*
X118010000Y-65310000D02*
X118010000Y-71850000D01*
X120750000Y-71850000D02*
X120750000Y-65310000D01*
X118010000Y-71850000D02*
X120750000Y-71850000D01*
X119380000Y-72620000D02*
X119380000Y-71850000D01*
%TO.C,J2*%
X90170000Y-110490000D02*
X88900000Y-110490000D01*
X90170000Y-109220000D02*
X90170000Y-110490000D01*
%TO.C,U2*%
X165150000Y-90470000D02*
X139630000Y-90470000D01*
X139630000Y-90470000D02*
X139630000Y-94970000D01*
X165150000Y-91720000D02*
X165150000Y-90470000D01*
X165150000Y-94970000D02*
X165150000Y-93720000D01*
X139630000Y-94970000D02*
X165150000Y-94970000D01*
X165150000Y-91720000D02*
G75*
G03*
X165150000Y-93720000I0J-1000000D01*
G01*
%TO.C,BT1*%
X175325000Y-109450000D02*
X175325000Y-69450000D01*
X176325000Y-68450000D02*
X198325000Y-68450000D01*
X198324999Y-110449999D02*
X176325000Y-110450000D01*
X199325000Y-69450000D02*
X199324999Y-109449999D01*
X176325000Y-68450000D02*
G75*
G03*
X175325000Y-69450000I-1J-999999D01*
G01*
X175325000Y-109450000D02*
G75*
G03*
X176325000Y-110450000I999999J-1D01*
G01*
X199325000Y-69450000D02*
G75*
G03*
X198325000Y-68450000I-1000000J0D01*
G01*
X198324999Y-110449999D02*
G75*
G03*
X199324999Y-109449999I1J999999D01*
G01*
%TO.C,U4*%
X167700000Y-106970000D02*
X137100000Y-106970000D01*
X137100000Y-106970000D02*
X137100000Y-119090000D01*
X167700000Y-112030000D02*
X167700000Y-106970000D01*
X167700000Y-119090000D02*
X167700000Y-114030000D01*
X137100000Y-119090000D02*
X167700000Y-119090000D01*
X167700000Y-112030000D02*
G75*
G03*
X167700000Y-114030000I0J-1000000D01*
G01*
%TO.C,D2*%
X115570000Y-64490000D02*
X115570000Y-66940000D01*
X116490000Y-66940000D02*
X114650000Y-66940000D01*
X114650000Y-66940000D02*
X114650000Y-70220000D01*
X116490000Y-67396000D02*
X114650000Y-67396000D01*
X116490000Y-67516000D02*
X114650000Y-67516000D01*
X116490000Y-67636000D02*
X114650000Y-67636000D01*
X116490000Y-70220000D02*
X116490000Y-66940000D01*
X114650000Y-70220000D02*
X116490000Y-70220000D01*
X115570000Y-72670000D02*
X115570000Y-70220000D01*
%TO.C,SW1*%
X82450000Y-62180000D02*
X82450000Y-72460000D01*
X82450000Y-72460000D02*
X87750000Y-72460000D01*
X84100000Y-62180000D02*
X82450000Y-62180000D01*
X87750000Y-62180000D02*
X86100000Y-62180000D01*
X87750000Y-72460000D02*
X87750000Y-62180000D01*
X84100000Y-62180000D02*
G75*
G03*
X86100000Y-62180000I1000000J0D01*
G01*
D16*
%TO.C,C1*%
X82296000Y-75819000D02*
X82275286Y-80137000D01*
X82285913Y-80128568D02*
G75*
G03*
X82296000Y-75819000I2707319J2148459D01*
G01*
X85990000Y-78105000D02*
G75*
G03*
X85990000Y-78105000I-900000J0D01*
G01*
%TO.C,REF\u002A\u002A*%
D17*
X179625814Y-119007931D02*
X179709635Y-119452555D01*
X180018920Y-119580053D01*
X180328206Y-119707551D01*
X180699246Y-119455246D01*
X180803157Y-119384996D01*
X180897087Y-119322272D01*
X180976652Y-119269938D01*
X181037470Y-119230857D01*
X181075157Y-119207893D01*
X181085421Y-119202942D01*
X181103910Y-119215676D01*
X181143420Y-119250882D01*
X181199522Y-119304062D01*
X181267787Y-119370718D01*
X181343786Y-119446354D01*
X181423092Y-119526472D01*
X181501275Y-119606574D01*
X181573907Y-119682164D01*
X181636559Y-119748745D01*
X181684803Y-119801818D01*
X181714210Y-119836887D01*
X181721241Y-119848623D01*
X181711123Y-119870260D01*
X181682759Y-119917662D01*
X181639129Y-119986193D01*
X181583218Y-120071215D01*
X181518006Y-120168093D01*
X181480219Y-120223350D01*
X181411343Y-120324248D01*
X181350140Y-120415299D01*
X181299578Y-120491970D01*
X181262628Y-120549728D01*
X181242258Y-120584043D01*
X181239197Y-120591254D01*
X181246136Y-120611748D01*
X181265051Y-120659513D01*
X181293087Y-120727832D01*
X181327391Y-120809989D01*
X181365109Y-120899270D01*
X181403387Y-120988958D01*
X181439370Y-121072338D01*
X181470206Y-121142694D01*
X181493039Y-121193310D01*
X181505017Y-121217471D01*
X181505724Y-121218422D01*
X181524531Y-121223036D01*
X181574618Y-121233328D01*
X181650793Y-121248287D01*
X181747865Y-121266901D01*
X181860643Y-121288159D01*
X181926442Y-121300418D01*
X182046950Y-121323362D01*
X182155797Y-121345195D01*
X182247476Y-121364722D01*
X182316481Y-121380748D01*
X182357304Y-121392079D01*
X182365511Y-121395674D01*
X182373548Y-121420006D01*
X182380033Y-121474959D01*
X182384970Y-121554108D01*
X182388364Y-121651026D01*
X182390218Y-121759287D01*
X182390538Y-121872465D01*
X182389327Y-121984135D01*
X182386590Y-122087868D01*
X182382331Y-122177241D01*
X182376555Y-122245826D01*
X182369267Y-122287197D01*
X182364895Y-122295810D01*
X182338764Y-122306133D01*
X182283393Y-122320892D01*
X182206107Y-122338352D01*
X182114230Y-122356780D01*
X182082158Y-122362741D01*
X181927524Y-122391066D01*
X181805375Y-122413876D01*
X181711673Y-122432080D01*
X181642384Y-122446583D01*
X181593471Y-122458292D01*
X181560897Y-122468115D01*
X181540628Y-122476956D01*
X181528626Y-122485724D01*
X181526947Y-122487457D01*
X181510184Y-122515371D01*
X181484614Y-122569695D01*
X181452788Y-122643777D01*
X181417260Y-122730965D01*
X181380583Y-122824608D01*
X181345311Y-122918052D01*
X181313996Y-123004647D01*
X181289193Y-123077740D01*
X181273454Y-123130678D01*
X181269332Y-123156811D01*
X181269676Y-123157726D01*
X181283641Y-123179086D01*
X181315322Y-123226084D01*
X181361391Y-123293827D01*
X181418518Y-123377423D01*
X181483373Y-123471982D01*
X181501843Y-123498854D01*
X181567699Y-123596275D01*
X181625650Y-123685163D01*
X181672538Y-123760412D01*
X181705207Y-123816920D01*
X181720500Y-123849581D01*
X181721241Y-123853593D01*
X181708392Y-123874684D01*
X181672888Y-123916464D01*
X181619293Y-123974445D01*
X181552171Y-124044135D01*
X181476087Y-124121045D01*
X181395604Y-124200683D01*
X181315287Y-124278561D01*
X181239699Y-124350186D01*
X181173405Y-124411070D01*
X181120969Y-124456721D01*
X181086955Y-124482650D01*
X181077545Y-124486883D01*
X181055643Y-124476912D01*
X181010800Y-124450020D01*
X180950321Y-124410736D01*
X180903789Y-124379117D01*
X180819475Y-124321098D01*
X180719626Y-124252784D01*
X180619473Y-124184579D01*
X180565627Y-124148075D01*
X180383371Y-124024800D01*
X180230381Y-124107520D01*
X180160682Y-124143759D01*
X180101414Y-124171926D01*
X180061311Y-124187991D01*
X180051103Y-124190226D01*
X180038829Y-124173722D01*
X180014613Y-124127082D01*
X179980263Y-124054609D01*
X179937588Y-123960606D01*
X179888394Y-123849374D01*
X179834490Y-123725215D01*
X179777684Y-123592432D01*
X179719782Y-123455327D01*
X179662593Y-123318202D01*
X179607924Y-123185358D01*
X179557584Y-123061098D01*
X179513380Y-122949725D01*
X179477119Y-122855539D01*
X179450609Y-122782844D01*
X179435658Y-122735941D01*
X179433254Y-122719833D01*
X179452311Y-122699286D01*
X179494036Y-122665933D01*
X179549706Y-122626702D01*
X179554378Y-122623599D01*
X179698264Y-122508423D01*
X179814283Y-122374053D01*
X179901430Y-122224784D01*
X179958699Y-122064913D01*
X179985086Y-121898737D01*
X179979585Y-121730552D01*
X179941190Y-121564655D01*
X179868895Y-121405342D01*
X179847626Y-121370487D01*
X179736996Y-121229737D01*
X179606302Y-121116714D01*
X179460064Y-121032003D01*
X179302808Y-120976194D01*
X179139057Y-120949874D01*
X178973333Y-120953630D01*
X178810162Y-120988050D01*
X178654065Y-121053723D01*
X178509567Y-121151235D01*
X178464869Y-121190813D01*
X178351112Y-121314703D01*
X178268218Y-121445124D01*
X178211356Y-121591315D01*
X178179687Y-121736088D01*
X178171869Y-121898860D01*
X178197938Y-122062440D01*
X178255245Y-122221298D01*
X178341144Y-122369906D01*
X178452986Y-122502735D01*
X178588123Y-122614256D01*
X178605883Y-122626011D01*
X178662150Y-122664508D01*
X178704923Y-122697863D01*
X178725372Y-122719160D01*
X178725669Y-122719833D01*
X178721279Y-122742871D01*
X178703876Y-122795157D01*
X178675268Y-122872390D01*
X178637265Y-122970268D01*
X178591674Y-123084491D01*
X178540303Y-123210758D01*
X178484962Y-123344767D01*
X178427458Y-123482218D01*
X178369601Y-123618808D01*
X178313198Y-123750237D01*
X178260058Y-123872205D01*
X178211990Y-123980409D01*
X178170801Y-124070549D01*
X178138301Y-124138323D01*
X178116297Y-124179430D01*
X178107436Y-124190226D01*
X178080360Y-124181819D01*
X178029697Y-124159272D01*
X177964183Y-124126613D01*
X177928159Y-124107520D01*
X177775168Y-124024800D01*
X177592912Y-124148075D01*
X177499875Y-124211228D01*
X177398015Y-124280727D01*
X177302562Y-124346165D01*
X177254750Y-124379117D01*
X177187505Y-124424273D01*
X177130564Y-124460057D01*
X177091354Y-124481938D01*
X177078619Y-124486563D01*
X177060083Y-124474085D01*
X177019059Y-124439252D01*
X176959525Y-124385678D01*
X176885458Y-124316983D01*
X176800835Y-124236781D01*
X176747315Y-124185286D01*
X176653681Y-124093286D01*
X176572759Y-124010999D01*
X176507823Y-123941945D01*
X176462142Y-123889644D01*
X176438989Y-123857616D01*
X176436768Y-123851116D01*
X176447076Y-123826394D01*
X176475561Y-123776405D01*
X176519063Y-123706212D01*
X176574423Y-123620875D01*
X176638480Y-123525456D01*
X176656697Y-123498854D01*
X176723073Y-123402167D01*
X176782622Y-123315117D01*
X176832016Y-123242595D01*
X176867925Y-123189493D01*
X176887019Y-123160703D01*
X176888864Y-123157726D01*
X176886105Y-123134782D01*
X176871462Y-123084336D01*
X176847487Y-123013041D01*
X176816734Y-122927547D01*
X176781756Y-122834507D01*
X176745107Y-122740574D01*
X176709339Y-122652399D01*
X176677006Y-122576634D01*
X176650662Y-122519931D01*
X176632858Y-122488943D01*
X176631593Y-122487457D01*
X176620706Y-122478601D01*
X176602318Y-122469843D01*
X176572394Y-122460277D01*
X176526897Y-122448996D01*
X176461791Y-122435093D01*
X176373039Y-122417663D01*
X176256607Y-122395798D01*
X176108458Y-122368591D01*
X176076382Y-122362741D01*
X175981314Y-122344374D01*
X175898435Y-122326405D01*
X175835070Y-122310569D01*
X175798542Y-122298600D01*
X175793644Y-122295810D01*
X175785573Y-122271072D01*
X175779013Y-122215790D01*
X175773967Y-122136389D01*
X175770441Y-122039296D01*
X175768439Y-121930938D01*
X175767964Y-121817740D01*
X175769023Y-121706128D01*
X175771618Y-121602529D01*
X175775754Y-121513368D01*
X175781437Y-121445072D01*
X175788669Y-121404066D01*
X175793029Y-121395674D01*
X175817302Y-121387208D01*
X175872574Y-121373435D01*
X175953338Y-121355550D01*
X176054088Y-121334748D01*
X176169317Y-121312223D01*
X176232098Y-121300418D01*
X176351213Y-121278151D01*
X176457435Y-121257979D01*
X176545573Y-121240915D01*
X176610434Y-121227969D01*
X176646826Y-121220155D01*
X176652816Y-121218422D01*
X176662939Y-121198890D01*
X176684338Y-121151843D01*
X176714161Y-121084003D01*
X176749555Y-121002091D01*
X176787668Y-120912828D01*
X176825647Y-120822935D01*
X176860640Y-120739135D01*
X176889794Y-120668147D01*
X176910257Y-120616694D01*
X176919177Y-120591497D01*
X176919343Y-120590396D01*
X176909231Y-120570519D01*
X176880883Y-120524777D01*
X176837277Y-120457717D01*
X176781394Y-120373884D01*
X176716213Y-120277826D01*
X176678321Y-120222650D01*
X176609275Y-120121481D01*
X176547950Y-120029630D01*
X176497337Y-119951744D01*
X176460429Y-119892469D01*
X176440218Y-119856451D01*
X176437299Y-119848377D01*
X176449847Y-119829584D01*
X176484537Y-119789457D01*
X176536937Y-119732493D01*
X176602616Y-119663185D01*
X176677144Y-119586031D01*
X176756087Y-119505525D01*
X176835017Y-119426163D01*
X176909500Y-119352440D01*
X176975106Y-119288852D01*
X177027404Y-119239894D01*
X177061961Y-119210061D01*
X177073522Y-119202942D01*
X177092346Y-119212953D01*
X177137369Y-119241078D01*
X177204213Y-119284454D01*
X177288501Y-119340218D01*
X177385856Y-119405506D01*
X177459293Y-119455246D01*
X177830333Y-119707551D01*
X178448905Y-119452555D01*
X178532725Y-119007931D01*
X178616546Y-118563307D01*
X179541994Y-118563307D01*
X179625814Y-119007931D01*
G36*
X179625814Y-119007931D02*
G01*
X179709635Y-119452555D01*
X180018920Y-119580053D01*
X180328206Y-119707551D01*
X180699246Y-119455246D01*
X180803157Y-119384996D01*
X180897087Y-119322272D01*
X180976652Y-119269938D01*
X181037470Y-119230857D01*
X181075157Y-119207893D01*
X181085421Y-119202942D01*
X181103910Y-119215676D01*
X181143420Y-119250882D01*
X181199522Y-119304062D01*
X181267787Y-119370718D01*
X181343786Y-119446354D01*
X181423092Y-119526472D01*
X181501275Y-119606574D01*
X181573907Y-119682164D01*
X181636559Y-119748745D01*
X181684803Y-119801818D01*
X181714210Y-119836887D01*
X181721241Y-119848623D01*
X181711123Y-119870260D01*
X181682759Y-119917662D01*
X181639129Y-119986193D01*
X181583218Y-120071215D01*
X181518006Y-120168093D01*
X181480219Y-120223350D01*
X181411343Y-120324248D01*
X181350140Y-120415299D01*
X181299578Y-120491970D01*
X181262628Y-120549728D01*
X181242258Y-120584043D01*
X181239197Y-120591254D01*
X181246136Y-120611748D01*
X181265051Y-120659513D01*
X181293087Y-120727832D01*
X181327391Y-120809989D01*
X181365109Y-120899270D01*
X181403387Y-120988958D01*
X181439370Y-121072338D01*
X181470206Y-121142694D01*
X181493039Y-121193310D01*
X181505017Y-121217471D01*
X181505724Y-121218422D01*
X181524531Y-121223036D01*
X181574618Y-121233328D01*
X181650793Y-121248287D01*
X181747865Y-121266901D01*
X181860643Y-121288159D01*
X181926442Y-121300418D01*
X182046950Y-121323362D01*
X182155797Y-121345195D01*
X182247476Y-121364722D01*
X182316481Y-121380748D01*
X182357304Y-121392079D01*
X182365511Y-121395674D01*
X182373548Y-121420006D01*
X182380033Y-121474959D01*
X182384970Y-121554108D01*
X182388364Y-121651026D01*
X182390218Y-121759287D01*
X182390538Y-121872465D01*
X182389327Y-121984135D01*
X182386590Y-122087868D01*
X182382331Y-122177241D01*
X182376555Y-122245826D01*
X182369267Y-122287197D01*
X182364895Y-122295810D01*
X182338764Y-122306133D01*
X182283393Y-122320892D01*
X182206107Y-122338352D01*
X182114230Y-122356780D01*
X182082158Y-122362741D01*
X181927524Y-122391066D01*
X181805375Y-122413876D01*
X181711673Y-122432080D01*
X181642384Y-122446583D01*
X181593471Y-122458292D01*
X181560897Y-122468115D01*
X181540628Y-122476956D01*
X181528626Y-122485724D01*
X181526947Y-122487457D01*
X181510184Y-122515371D01*
X181484614Y-122569695D01*
X181452788Y-122643777D01*
X181417260Y-122730965D01*
X181380583Y-122824608D01*
X181345311Y-122918052D01*
X181313996Y-123004647D01*
X181289193Y-123077740D01*
X181273454Y-123130678D01*
X181269332Y-123156811D01*
X181269676Y-123157726D01*
X181283641Y-123179086D01*
X181315322Y-123226084D01*
X181361391Y-123293827D01*
X181418518Y-123377423D01*
X181483373Y-123471982D01*
X181501843Y-123498854D01*
X181567699Y-123596275D01*
X181625650Y-123685163D01*
X181672538Y-123760412D01*
X181705207Y-123816920D01*
X181720500Y-123849581D01*
X181721241Y-123853593D01*
X181708392Y-123874684D01*
X181672888Y-123916464D01*
X181619293Y-123974445D01*
X181552171Y-124044135D01*
X181476087Y-124121045D01*
X181395604Y-124200683D01*
X181315287Y-124278561D01*
X181239699Y-124350186D01*
X181173405Y-124411070D01*
X181120969Y-124456721D01*
X181086955Y-124482650D01*
X181077545Y-124486883D01*
X181055643Y-124476912D01*
X181010800Y-124450020D01*
X180950321Y-124410736D01*
X180903789Y-124379117D01*
X180819475Y-124321098D01*
X180719626Y-124252784D01*
X180619473Y-124184579D01*
X180565627Y-124148075D01*
X180383371Y-124024800D01*
X180230381Y-124107520D01*
X180160682Y-124143759D01*
X180101414Y-124171926D01*
X180061311Y-124187991D01*
X180051103Y-124190226D01*
X180038829Y-124173722D01*
X180014613Y-124127082D01*
X179980263Y-124054609D01*
X179937588Y-123960606D01*
X179888394Y-123849374D01*
X179834490Y-123725215D01*
X179777684Y-123592432D01*
X179719782Y-123455327D01*
X179662593Y-123318202D01*
X179607924Y-123185358D01*
X179557584Y-123061098D01*
X179513380Y-122949725D01*
X179477119Y-122855539D01*
X179450609Y-122782844D01*
X179435658Y-122735941D01*
X179433254Y-122719833D01*
X179452311Y-122699286D01*
X179494036Y-122665933D01*
X179549706Y-122626702D01*
X179554378Y-122623599D01*
X179698264Y-122508423D01*
X179814283Y-122374053D01*
X179901430Y-122224784D01*
X179958699Y-122064913D01*
X179985086Y-121898737D01*
X179979585Y-121730552D01*
X179941190Y-121564655D01*
X179868895Y-121405342D01*
X179847626Y-121370487D01*
X179736996Y-121229737D01*
X179606302Y-121116714D01*
X179460064Y-121032003D01*
X179302808Y-120976194D01*
X179139057Y-120949874D01*
X178973333Y-120953630D01*
X178810162Y-120988050D01*
X178654065Y-121053723D01*
X178509567Y-121151235D01*
X178464869Y-121190813D01*
X178351112Y-121314703D01*
X178268218Y-121445124D01*
X178211356Y-121591315D01*
X178179687Y-121736088D01*
X178171869Y-121898860D01*
X178197938Y-122062440D01*
X178255245Y-122221298D01*
X178341144Y-122369906D01*
X178452986Y-122502735D01*
X178588123Y-122614256D01*
X178605883Y-122626011D01*
X178662150Y-122664508D01*
X178704923Y-122697863D01*
X178725372Y-122719160D01*
X178725669Y-122719833D01*
X178721279Y-122742871D01*
X178703876Y-122795157D01*
X178675268Y-122872390D01*
X178637265Y-122970268D01*
X178591674Y-123084491D01*
X178540303Y-123210758D01*
X178484962Y-123344767D01*
X178427458Y-123482218D01*
X178369601Y-123618808D01*
X178313198Y-123750237D01*
X178260058Y-123872205D01*
X178211990Y-123980409D01*
X178170801Y-124070549D01*
X178138301Y-124138323D01*
X178116297Y-124179430D01*
X178107436Y-124190226D01*
X178080360Y-124181819D01*
X178029697Y-124159272D01*
X177964183Y-124126613D01*
X177928159Y-124107520D01*
X177775168Y-124024800D01*
X177592912Y-124148075D01*
X177499875Y-124211228D01*
X177398015Y-124280727D01*
X177302562Y-124346165D01*
X177254750Y-124379117D01*
X177187505Y-124424273D01*
X177130564Y-124460057D01*
X177091354Y-124481938D01*
X177078619Y-124486563D01*
X177060083Y-124474085D01*
X177019059Y-124439252D01*
X176959525Y-124385678D01*
X176885458Y-124316983D01*
X176800835Y-124236781D01*
X176747315Y-124185286D01*
X176653681Y-124093286D01*
X176572759Y-124010999D01*
X176507823Y-123941945D01*
X176462142Y-123889644D01*
X176438989Y-123857616D01*
X176436768Y-123851116D01*
X176447076Y-123826394D01*
X176475561Y-123776405D01*
X176519063Y-123706212D01*
X176574423Y-123620875D01*
X176638480Y-123525456D01*
X176656697Y-123498854D01*
X176723073Y-123402167D01*
X176782622Y-123315117D01*
X176832016Y-123242595D01*
X176867925Y-123189493D01*
X176887019Y-123160703D01*
X176888864Y-123157726D01*
X176886105Y-123134782D01*
X176871462Y-123084336D01*
X176847487Y-123013041D01*
X176816734Y-122927547D01*
X176781756Y-122834507D01*
X176745107Y-122740574D01*
X176709339Y-122652399D01*
X176677006Y-122576634D01*
X176650662Y-122519931D01*
X176632858Y-122488943D01*
X176631593Y-122487457D01*
X176620706Y-122478601D01*
X176602318Y-122469843D01*
X176572394Y-122460277D01*
X176526897Y-122448996D01*
X176461791Y-122435093D01*
X176373039Y-122417663D01*
X176256607Y-122395798D01*
X176108458Y-122368591D01*
X176076382Y-122362741D01*
X175981314Y-122344374D01*
X175898435Y-122326405D01*
X175835070Y-122310569D01*
X175798542Y-122298600D01*
X175793644Y-122295810D01*
X175785573Y-122271072D01*
X175779013Y-122215790D01*
X175773967Y-122136389D01*
X175770441Y-122039296D01*
X175768439Y-121930938D01*
X175767964Y-121817740D01*
X175769023Y-121706128D01*
X175771618Y-121602529D01*
X175775754Y-121513368D01*
X175781437Y-121445072D01*
X175788669Y-121404066D01*
X175793029Y-121395674D01*
X175817302Y-121387208D01*
X175872574Y-121373435D01*
X175953338Y-121355550D01*
X176054088Y-121334748D01*
X176169317Y-121312223D01*
X176232098Y-121300418D01*
X176351213Y-121278151D01*
X176457435Y-121257979D01*
X176545573Y-121240915D01*
X176610434Y-121227969D01*
X176646826Y-121220155D01*
X176652816Y-121218422D01*
X176662939Y-121198890D01*
X176684338Y-121151843D01*
X176714161Y-121084003D01*
X176749555Y-121002091D01*
X176787668Y-120912828D01*
X176825647Y-120822935D01*
X176860640Y-120739135D01*
X176889794Y-120668147D01*
X176910257Y-120616694D01*
X176919177Y-120591497D01*
X176919343Y-120590396D01*
X176909231Y-120570519D01*
X176880883Y-120524777D01*
X176837277Y-120457717D01*
X176781394Y-120373884D01*
X176716213Y-120277826D01*
X176678321Y-120222650D01*
X176609275Y-120121481D01*
X176547950Y-120029630D01*
X176497337Y-119951744D01*
X176460429Y-119892469D01*
X176440218Y-119856451D01*
X176437299Y-119848377D01*
X176449847Y-119829584D01*
X176484537Y-119789457D01*
X176536937Y-119732493D01*
X176602616Y-119663185D01*
X176677144Y-119586031D01*
X176756087Y-119505525D01*
X176835017Y-119426163D01*
X176909500Y-119352440D01*
X176975106Y-119288852D01*
X177027404Y-119239894D01*
X177061961Y-119210061D01*
X177073522Y-119202942D01*
X177092346Y-119212953D01*
X177137369Y-119241078D01*
X177204213Y-119284454D01*
X177288501Y-119340218D01*
X177385856Y-119405506D01*
X177459293Y-119455246D01*
X177830333Y-119707551D01*
X178448905Y-119452555D01*
X178532725Y-119007931D01*
X178616546Y-118563307D01*
X179541994Y-118563307D01*
X179625814Y-119007931D01*
G37*
D15*
%TO.C,U5*%
X99350000Y-102805000D02*
X99350000Y-120705000D01*
X99350000Y-120705000D02*
X103850000Y-120705000D01*
X100600000Y-102805000D02*
X99350000Y-102805000D01*
X103850000Y-102805000D02*
X102600000Y-102805000D01*
X103850000Y-120705000D02*
X103850000Y-102805000D01*
X100600000Y-102805000D02*
G75*
G03*
X102600000Y-102805000I1000000J0D01*
G01*
%TO.C,C3*%
X197920000Y-117745000D02*
X197905000Y-117745000D01*
X197920000Y-117745000D02*
X197920000Y-122285000D01*
X195795000Y-117745000D02*
X195780000Y-117745000D01*
X195780000Y-117745000D02*
X195780000Y-122285000D01*
X197920000Y-122285000D02*
X197905000Y-122285000D01*
X195795000Y-122285000D02*
X195780000Y-122285000D01*
%TD*%
M02*
