M48
; DRILL file {KiCad 7.0.5-0} date 2023 June 19, Monday 18:26:58
; FORMAT={-:-/ absolute / inch / decimal}
; #@! TF.CreationDate,2023-06-19T18:26:58+02:00
; #@! TF.GenerationSoftware,Kicad,Pcbnew,7.0.5-0
; #@! TF.FileFunction,Plated,1,2,PTH
FMAT,2
INCH
; #@! TA.AperFunction,Plated,PTH,ComponentDrill
T1C0.0197
; #@! TA.AperFunction,Plated,PTH,ViaDrill
T2C0.0236
; #@! TA.AperFunction,Plated,PTH,ComponentDrill
T3C0.0295
; #@! TA.AperFunction,Plated,PTH,ComponentDrill
T4C0.0300
; #@! TA.AperFunction,Plated,PTH,ComponentDrill
T5C0.0315
; #@! TA.AperFunction,Plated,PTH,ComponentDrill
T6C0.0394
; #@! TA.AperFunction,Plated,PTH,ComponentDrill
T7C0.0472
%
G90
G05
T1
X3.5157Y-3.4125
X3.5157Y-3.4873
T2
X3.45Y-2.375
X3.525Y-2.425
X4.275Y-2.55
X4.4875Y-3.4337
X4.625Y-3.4
X4.875Y-4.025
X4.8998Y-3.35
X5.0Y-2.975
X5.0Y-4.35
X5.0Y-4.7
X5.0998Y-3.45
X5.15Y-2.575
X5.15Y-4.725
X5.2Y-4.825
X5.2458Y-4.7792
X5.45Y-2.725
X5.525Y-2.725
X5.5998Y-2.975
X5.7Y-2.925
X5.8Y-2.875
X5.8998Y-2.775
X6.15Y-4.65
X6.1998Y-2.925
X6.225Y-4.6
X6.266Y-4.541
X6.5Y-4.4
X6.55Y-4.05
X6.6Y-4.0
X6.65Y-3.625
X6.7625Y-4.8625
X7.225Y-4.925
X7.325Y-4.925
T3
X4.425Y-2.5
X4.425Y-2.9
X4.55Y-2.5
X4.55Y-2.9
T4
X3.2157Y-3.3625
X3.2157Y-3.5375
T5
X3.2004Y-2.5004
X3.2004Y-2.6004
X3.2004Y-2.7004
X3.2004Y-2.8004
X3.3016Y-3.75
X3.4984Y-3.75
X3.5004Y-2.5004
X3.5004Y-2.6004
X3.5004Y-2.7004
X3.5004Y-2.8004
X3.65Y-4.6016
X3.65Y-4.7984
X3.85Y-2.5
X3.85Y-2.6
X3.85Y-2.7
X3.85Y-2.8
X3.85Y-2.9
X3.85Y-3.0
X3.85Y-3.1
X3.85Y-3.2
X3.85Y-3.3
X3.85Y-4.0998
X3.85Y-4.1998
X3.85Y-4.2998
X3.85Y-4.3998
X3.85Y-4.4998
X3.85Y-4.5998
X3.85Y-4.6998
X4.15Y-2.5
X4.15Y-2.6
X4.15Y-2.7
X4.15Y-2.8
X4.15Y-2.9
X4.15Y-3.0
X4.15Y-3.1
X4.15Y-3.2
X4.15Y-3.3
X4.15Y-4.0998
X4.15Y-4.1998
X4.15Y-4.2998
X4.15Y-4.3998
X4.15Y-4.4998
X4.15Y-4.5998
X4.15Y-4.6998
X4.4Y-4.85
X4.4504Y-4.0998
X4.4504Y-4.1998
X4.4504Y-4.2998
X4.4504Y-4.3998
X4.4504Y-4.4998
X4.4504Y-4.5998
X4.4504Y-4.6998
X4.7Y-2.5
X4.7Y-2.9
X4.7504Y-4.0998
X4.7504Y-4.1998
X4.7504Y-4.2998
X4.7504Y-4.3998
X4.7504Y-4.4998
X4.7504Y-4.5998
X4.7504Y-4.6998
X4.8Y-4.85
X4.8998Y-2.5
X4.8998Y-3.1
X4.9998Y-2.5
X4.9998Y-3.1
X5.0998Y-2.5
X5.0998Y-3.1
X5.1998Y-2.5
X5.1998Y-3.1
X5.2998Y-2.5
X5.2998Y-3.1
X5.3996Y-3.5516
X5.3996Y-3.7484
X5.3998Y-2.5
X5.3998Y-3.1
X5.45Y-4.15
X5.45Y-4.75
X5.4998Y-2.5
X5.4998Y-3.1
X5.5496Y-3.5004
X5.5496Y-3.8004
X5.55Y-4.15
X5.55Y-4.75
X5.5998Y-2.5
X5.5998Y-3.1
X5.6496Y-3.5004
X5.6496Y-3.8004
X5.65Y-4.15
X5.65Y-4.75
X5.6998Y-2.5
X5.6998Y-3.1
X5.7496Y-3.5004
X5.7496Y-3.8004
X5.75Y-4.15
X5.75Y-4.75
X5.7998Y-2.5
X5.7998Y-3.1
X5.8496Y-3.5004
X5.8496Y-3.8004
X5.85Y-4.15
X5.85Y-4.75
X5.8998Y-2.5
X5.8998Y-3.1
X5.9496Y-3.5004
X5.9496Y-3.8004
X5.95Y-4.15
X5.95Y-4.75
X5.9998Y-2.5
X5.9998Y-3.1
X6.0496Y-3.5004
X6.0496Y-3.8004
X6.05Y-4.15
X6.05Y-4.75
X6.0998Y-2.5
X6.0998Y-3.1
X6.1496Y-3.5004
X6.1496Y-3.8004
X6.15Y-4.15
X6.15Y-4.75
X6.1998Y-2.5
X6.1998Y-3.1
X6.2496Y-3.5004
X6.2496Y-3.8004
X6.25Y-4.15
X6.25Y-4.75
X6.2998Y-2.5
X6.2998Y-3.1
X6.3496Y-3.5004
X6.3496Y-3.8004
X6.35Y-4.15
X6.35Y-4.75
X6.3998Y-2.5
X6.3998Y-3.1
X6.4496Y-3.5004
X6.4496Y-3.8004
X6.45Y-4.15
X6.45Y-4.75
X6.4998Y-2.5
X6.4998Y-3.1
X6.55Y-4.15
X6.55Y-4.75
X6.5998Y-2.5
X6.5998Y-3.1
X6.6998Y-2.5
X6.6998Y-3.1
X6.7998Y-2.5
X6.7998Y-3.1
X7.75Y-4.6266
X7.75Y-4.8234
T6
X3.5Y-4.0
X3.5Y-4.1
X3.5Y-4.2
X3.5Y-4.3
X3.5Y-4.5
X3.5Y-4.6
X3.5Y-4.7
X3.5Y-4.8
X4.0047Y-3.8595
X4.5953Y-3.8595
T7
X3.265Y-3.075
X3.47Y-3.075
X7.075Y-2.9508
X7.075Y-3.75
X7.675Y-3.25
X7.675Y-4.1516
T0
M30
