%TF.GenerationSoftware,KiCad,Pcbnew,7.0.5-0*%
%TF.CreationDate,2023-06-19T18:26:53+02:00*%
%TF.ProjectId,Apple TimeMaster - reloaded,4170706c-6520-4546-996d-654d61737465,rev?*%
%TF.SameCoordinates,Original*%
%TF.FileFunction,Soldermask,Bot*%
%TF.FilePolarity,Negative*%
%FSLAX46Y46*%
G04 Gerber Fmt 4.6, Leading zero omitted, Abs format (unit mm)*
G04 Created by KiCad (PCBNEW 7.0.5-0) date 2023-06-19 18:26:53*
%MOMM*%
%LPD*%
G01*
G04 APERTURE LIST*
G04 Aperture macros list*
%AMRoundRect*
0 Rectangle with rounded corners*
0 $1 Rounding radius*
0 $2 $3 $4 $5 $6 $7 $8 $9 X,Y pos of 4 corners*
0 Add a 4 corners polygon primitive as box body*
4,1,4,$2,$3,$4,$5,$6,$7,$8,$9,$2,$3,0*
0 Add four circle primitives for the rounded corners*
1,1,$1+$1,$2,$3*
1,1,$1+$1,$4,$5*
1,1,$1+$1,$6,$7*
1,1,$1+$1,$8,$9*
0 Add four rect primitives between the rounded corners*
20,1,$1+$1,$2,$3,$4,$5,0*
20,1,$1+$1,$4,$5,$6,$7,0*
20,1,$1+$1,$6,$7,$8,$9,0*
20,1,$1+$1,$8,$9,$2,$3,0*%
G04 Aperture macros list end*
%ADD10C,0.150000*%
%ADD11C,1.600000*%
%ADD12R,2.000000X2.000000*%
%ADD13O,2.000000X2.000000*%
%ADD14R,1.500000X1.500000*%
%ADD15O,1.500000X1.500000*%
%ADD16O,1.600000X1.600000*%
%ADD17R,2.400000X1.600000*%
%ADD18O,2.400000X1.600000*%
%ADD19R,1.600000X2.400000*%
%ADD20O,1.600000X2.400000*%
%ADD21C,1.000000*%
%ADD22C,1.524000*%
%ADD23R,1.700000X1.700000*%
%ADD24O,1.700000X1.700000*%
%ADD25RoundRect,0.381000X0.381000X3.289000X-0.381000X3.289000X-0.381000X-3.289000X0.381000X-3.289000X0*%
%ADD26C,2.524000*%
%ADD27R,1.600000X1.600000*%
%ADD28C,2.000000*%
%ADD29C,2.100000*%
G04 APERTURE END LIST*
D10*
X190576200Y-134493000D02*
X125679200Y-134493000D01*
X125603000Y-126365000D01*
X190576200Y-126365000D01*
X190576200Y-134493000D01*
G36*
X190576200Y-134493000D02*
G01*
X125679200Y-134493000D01*
X125603000Y-126365000D01*
X190576200Y-126365000D01*
X190576200Y-134493000D01*
G37*
D11*
%TO.C,C5*%
X137150000Y-90210000D03*
X137150000Y-95210000D03*
%TD*%
D12*
%TO.C,C6*%
X101720000Y-98032500D03*
D13*
X116720000Y-98032500D03*
%TD*%
D14*
%TO.C,D1*%
X112395000Y-63500000D03*
D15*
X112395000Y-73660000D03*
%TD*%
D11*
%TO.C,R2*%
X111760000Y-123190000D03*
D16*
X121920000Y-123190000D03*
%TD*%
D17*
%TO.C,U1*%
X97790000Y-63500000D03*
D18*
X97790000Y-66040000D03*
X97790000Y-68580000D03*
X97790000Y-71120000D03*
X97790000Y-73660000D03*
X97790000Y-76200000D03*
X97790000Y-78740000D03*
X97790000Y-81280000D03*
X97790000Y-83820000D03*
X105410000Y-83820000D03*
X105410000Y-81280000D03*
X105410000Y-78740000D03*
X105410000Y-76200000D03*
X105410000Y-73660000D03*
X105410000Y-71120000D03*
X105410000Y-68580000D03*
X105410000Y-66040000D03*
X105410000Y-63500000D03*
%TD*%
D11*
%TO.C,C4*%
X92710000Y-121880000D03*
X92710000Y-116880000D03*
%TD*%
D19*
%TO.C,U3*%
X172715000Y-63500000D03*
D20*
X170175000Y-63500000D03*
X167635000Y-63500000D03*
X165095000Y-63500000D03*
X162555000Y-63500000D03*
X160015000Y-63500000D03*
X157475000Y-63500000D03*
X154935000Y-63500000D03*
X152395000Y-63500000D03*
X149855000Y-63500000D03*
X147315000Y-63500000D03*
X144775000Y-63500000D03*
X142235000Y-63500000D03*
X139695000Y-63500000D03*
X137155000Y-63500000D03*
X134615000Y-63500000D03*
X132075000Y-63500000D03*
X129535000Y-63500000D03*
X126995000Y-63500000D03*
X124455000Y-63500000D03*
X124455000Y-78740000D03*
X126995000Y-78740000D03*
X129535000Y-78740000D03*
X132075000Y-78740000D03*
X134615000Y-78740000D03*
X137155000Y-78740000D03*
X139695000Y-78740000D03*
X142235000Y-78740000D03*
X144775000Y-78740000D03*
X147315000Y-78740000D03*
X149855000Y-78740000D03*
X152395000Y-78740000D03*
X154935000Y-78740000D03*
X157475000Y-78740000D03*
X160015000Y-78740000D03*
X162555000Y-78740000D03*
X165095000Y-78740000D03*
X167635000Y-78740000D03*
X170175000Y-78740000D03*
X172715000Y-78740000D03*
%TD*%
D17*
%TO.C,U6*%
X113040000Y-104135000D03*
D18*
X113040000Y-106675000D03*
X113040000Y-109215000D03*
X113040000Y-111755000D03*
X113040000Y-114295000D03*
X113040000Y-116835000D03*
X113040000Y-119375000D03*
X120660000Y-119375000D03*
X120660000Y-116835000D03*
X120660000Y-114295000D03*
X120660000Y-111755000D03*
X120660000Y-109215000D03*
X120660000Y-106675000D03*
X120660000Y-104135000D03*
%TD*%
D21*
%TO.C,XTAL1*%
X89300000Y-86677500D03*
X89300000Y-88577500D03*
D22*
X81680000Y-89852500D03*
X81680000Y-85407500D03*
%TD*%
D23*
%TO.C,J3*%
X88900000Y-121920000D03*
D24*
X88900000Y-119380000D03*
X88900000Y-116840000D03*
X88900000Y-114300000D03*
%TD*%
D11*
%TO.C,C2*%
X83860000Y-95250000D03*
X88860000Y-95250000D03*
%TD*%
%TO.C,R1*%
X119380000Y-63500000D03*
D16*
X119380000Y-73660000D03*
%TD*%
D23*
%TO.C,J2*%
X88900000Y-109220000D03*
D24*
X88900000Y-106680000D03*
X88900000Y-104140000D03*
X88900000Y-101600000D03*
%TD*%
D25*
%TO.C,J1*%
X188595000Y-130075000D03*
X186055000Y-130075000D03*
X183515000Y-130075000D03*
X180975000Y-130075000D03*
X178435000Y-130075000D03*
X175895000Y-130075000D03*
X173355000Y-130075000D03*
X170815000Y-130075000D03*
X168275000Y-130075000D03*
X165735000Y-130075000D03*
X163195000Y-130075000D03*
X160655000Y-130075000D03*
X158115000Y-130075000D03*
X155575000Y-130075000D03*
X153035000Y-130075000D03*
X150495000Y-130075000D03*
X147955000Y-130075000D03*
X145415000Y-130075000D03*
X142875000Y-130075000D03*
X140335000Y-130075000D03*
X137795000Y-130075000D03*
X135255000Y-130075000D03*
X132715000Y-130075000D03*
X130175000Y-130075000D03*
X127635000Y-130075000D03*
%TD*%
D19*
%TO.C,U2*%
X163820000Y-88910000D03*
D20*
X161280000Y-88910000D03*
X158740000Y-88910000D03*
X156200000Y-88910000D03*
X153660000Y-88910000D03*
X151120000Y-88910000D03*
X148580000Y-88910000D03*
X146040000Y-88910000D03*
X143500000Y-88910000D03*
X140960000Y-88910000D03*
X140960000Y-96530000D03*
X143500000Y-96530000D03*
X146040000Y-96530000D03*
X148580000Y-96530000D03*
X151120000Y-96530000D03*
X153660000Y-96530000D03*
X156200000Y-96530000D03*
X158740000Y-96530000D03*
X161280000Y-96530000D03*
X163820000Y-96530000D03*
%TD*%
D26*
%TO.C,BT1*%
X179705000Y-74950000D03*
X194945000Y-105450000D03*
X179705000Y-95250000D03*
X194945000Y-82550000D03*
%TD*%
D19*
%TO.C,U4*%
X166370000Y-105410000D03*
D20*
X163830000Y-105410000D03*
X161290000Y-105410000D03*
X158750000Y-105410000D03*
X156210000Y-105410000D03*
X153670000Y-105410000D03*
X151130000Y-105410000D03*
X148590000Y-105410000D03*
X146050000Y-105410000D03*
X143510000Y-105410000D03*
X140970000Y-105410000D03*
X138430000Y-105410000D03*
X138430000Y-120650000D03*
X140970000Y-120650000D03*
X143510000Y-120650000D03*
X146050000Y-120650000D03*
X148590000Y-120650000D03*
X151130000Y-120650000D03*
X153670000Y-120650000D03*
X156210000Y-120650000D03*
X158750000Y-120650000D03*
X161290000Y-120650000D03*
X163830000Y-120650000D03*
X166370000Y-120650000D03*
%TD*%
D14*
%TO.C,D2*%
X115570000Y-63500000D03*
D15*
X115570000Y-73660000D03*
%TD*%
D27*
%TO.C,SW1*%
X81290000Y-63510000D03*
D16*
X81290000Y-66050000D03*
X81290000Y-68590000D03*
X81290000Y-71130000D03*
X88910000Y-71130000D03*
X88910000Y-68590000D03*
X88910000Y-66050000D03*
X88910000Y-63510000D03*
%TD*%
D28*
%TO.C,C1*%
X82931000Y-78105000D03*
X88138000Y-78105000D03*
%TD*%
D29*
%TO.C,H1*%
X196850000Y-60960000D03*
%TD*%
D17*
%TO.C,U5*%
X97790000Y-104135000D03*
D18*
X97790000Y-106675000D03*
X97790000Y-109215000D03*
X97790000Y-111755000D03*
X97790000Y-114295000D03*
X97790000Y-116835000D03*
X97790000Y-119375000D03*
X105410000Y-119375000D03*
X105410000Y-116835000D03*
X105410000Y-114295000D03*
X105410000Y-111755000D03*
X105410000Y-109215000D03*
X105410000Y-106675000D03*
X105410000Y-104135000D03*
%TD*%
D11*
%TO.C,C3*%
X196850000Y-117515000D03*
X196850000Y-122515000D03*
%TD*%
M02*
