%TF.GenerationSoftware,KiCad,Pcbnew,7.0.5-0*%
%TF.CreationDate,2023-06-19T18:26:53+02:00*%
%TF.ProjectId,Apple TimeMaster - reloaded,4170706c-6520-4546-996d-654d61737465,rev?*%
%TF.SameCoordinates,Original*%
%TF.FileFunction,Copper,L2,Bot*%
%TF.FilePolarity,Positive*%
%FSLAX46Y46*%
G04 Gerber Fmt 4.6, Leading zero omitted, Abs format (unit mm)*
G04 Created by KiCad (PCBNEW 7.0.5-0) date 2023-06-19 18:26:53*
%MOMM*%
%LPD*%
G01*
G04 APERTURE LIST*
G04 Aperture macros list*
%AMRoundRect*
0 Rectangle with rounded corners*
0 $1 Rounding radius*
0 $2 $3 $4 $5 $6 $7 $8 $9 X,Y pos of 4 corners*
0 Add a 4 corners polygon primitive as box body*
4,1,4,$2,$3,$4,$5,$6,$7,$8,$9,$2,$3,0*
0 Add four circle primitives for the rounded corners*
1,1,$1+$1,$2,$3*
1,1,$1+$1,$4,$5*
1,1,$1+$1,$6,$7*
1,1,$1+$1,$8,$9*
0 Add four rect primitives between the rounded corners*
20,1,$1+$1,$2,$3,$4,$5,0*
20,1,$1+$1,$4,$5,$6,$7,0*
20,1,$1+$1,$6,$7,$8,$9,0*
20,1,$1+$1,$8,$9,$2,$3,0*%
G04 Aperture macros list end*
%TA.AperFunction,ComponentPad*%
%ADD10C,1.600000*%
%TD*%
%TA.AperFunction,ComponentPad*%
%ADD11R,2.000000X2.000000*%
%TD*%
%TA.AperFunction,ComponentPad*%
%ADD12O,2.000000X2.000000*%
%TD*%
%TA.AperFunction,ComponentPad*%
%ADD13R,1.500000X1.500000*%
%TD*%
%TA.AperFunction,ComponentPad*%
%ADD14O,1.500000X1.500000*%
%TD*%
%TA.AperFunction,ComponentPad*%
%ADD15O,1.600000X1.600000*%
%TD*%
%TA.AperFunction,ComponentPad*%
%ADD16R,2.400000X1.600000*%
%TD*%
%TA.AperFunction,ComponentPad*%
%ADD17O,2.400000X1.600000*%
%TD*%
%TA.AperFunction,ComponentPad*%
%ADD18R,1.600000X2.400000*%
%TD*%
%TA.AperFunction,ComponentPad*%
%ADD19O,1.600000X2.400000*%
%TD*%
%TA.AperFunction,ComponentPad*%
%ADD20C,1.000000*%
%TD*%
%TA.AperFunction,ComponentPad*%
%ADD21C,1.524000*%
%TD*%
%TA.AperFunction,ComponentPad*%
%ADD22R,1.700000X1.700000*%
%TD*%
%TA.AperFunction,ComponentPad*%
%ADD23O,1.700000X1.700000*%
%TD*%
%TA.AperFunction,SMDPad,CuDef*%
%ADD24RoundRect,0.381000X0.381000X3.289000X-0.381000X3.289000X-0.381000X-3.289000X0.381000X-3.289000X0*%
%TD*%
%TA.AperFunction,ComponentPad*%
%ADD25C,2.524000*%
%TD*%
%TA.AperFunction,ComponentPad*%
%ADD26R,1.600000X1.600000*%
%TD*%
%TA.AperFunction,ComponentPad*%
%ADD27C,2.000000*%
%TD*%
%TA.AperFunction,ViaPad*%
%ADD28C,1.200000*%
%TD*%
%TA.AperFunction,Conductor*%
%ADD29C,1.000000*%
%TD*%
%TA.AperFunction,Conductor*%
%ADD30C,0.500000*%
%TD*%
%TA.AperFunction,Conductor*%
%ADD31C,1.500000*%
%TD*%
G04 APERTURE END LIST*
D10*
%TO.P,C5,1*%
%TO.N,/VSS*%
X137150000Y-90210000D03*
%TO.P,C5,2*%
%TO.N,Net-(D1-K)*%
X137150000Y-95210000D03*
%TD*%
D11*
%TO.P,C6,1*%
%TO.N,Net-(D2-K)*%
X101720000Y-98032500D03*
D12*
%TO.P,C6,2*%
%TO.N,/VSS*%
X116720000Y-98032500D03*
%TD*%
D13*
%TO.P,D1,1,K*%
%TO.N,Net-(D1-K)*%
X112395000Y-63500000D03*
D14*
%TO.P,D1,2,A*%
%TO.N,Net-(D1-A)*%
X112395000Y-73660000D03*
%TD*%
D10*
%TO.P,R2,1*%
%TO.N,Net-(J1-+12V)*%
X111760000Y-123190000D03*
D15*
%TO.P,R2,2*%
%TO.N,Net-(D1-A)*%
X121920000Y-123190000D03*
%TD*%
D16*
%TO.P,U1,1,VDD*%
%TO.N,Net-(D2-K)*%
X97790000Y-63500000D03*
D17*
%TO.P,U1,2,WRITE*%
%TO.N,Net-(U1-WRITE)*%
X97790000Y-66040000D03*
%TO.P,U1,3,READ*%
%TO.N,Net-(U1-READ)*%
X97790000Y-68580000D03*
%TO.P,U1,4,A0*%
%TO.N,/AC0*%
X97790000Y-71120000D03*
%TO.P,U1,5,A1*%
%TO.N,/AC1*%
X97790000Y-73660000D03*
%TO.P,U1,6,A2*%
%TO.N,/AC2*%
X97790000Y-76200000D03*
%TO.P,U1,7,A3*%
%TO.N,/AC3*%
X97790000Y-78740000D03*
%TO.P,U1,8,CS*%
%TO.N,Net-(D1-K)*%
X97790000Y-81280000D03*
%TO.P,U1,9,D0*%
%TO.N,Net-(U1-D0)*%
X97790000Y-83820000D03*
%TO.P,U1,10,D1*%
%TO.N,Net-(U1-D1)*%
X105410000Y-83820000D03*
%TO.P,U1,11,D2*%
%TO.N,Net-(U1-D2)*%
X105410000Y-81280000D03*
%TO.P,U1,12,D3*%
%TO.N,Net-(U1-D3)*%
X105410000Y-78740000D03*
%TO.P,U1,13,VSS*%
%TO.N,/VSS*%
X105410000Y-76200000D03*
%TO.P,U1,14,TEST*%
%TO.N,unconnected-(U1-TEST-Pad14)*%
X105410000Y-73660000D03*
%TO.P,U1,15,ADJ*%
%TO.N,Net-(J2-Pin_4)*%
X105410000Y-71120000D03*
%TO.P,U1,16,XT*%
%TO.N,Net-(U1-XT)*%
X105410000Y-68580000D03*
%TO.P,U1,17,/XT*%
%TO.N,Net-(U1-{slash}XT)*%
X105410000Y-66040000D03*
%TO.P,U1,18,HOLD*%
%TO.N,Net-(U1-HOLD)*%
X105410000Y-63500000D03*
%TD*%
D10*
%TO.P,C4,1*%
%TO.N,/VSS*%
X92710000Y-121880000D03*
%TO.P,C4,2*%
%TO.N,Net-(D1-K)*%
X92710000Y-116880000D03*
%TD*%
D18*
%TO.P,U3,1,VSS*%
%TO.N,/VSS*%
X172715000Y-63500000D03*
D19*
%TO.P,U3,2,PA0*%
%TO.N,Net-(U1-D0)*%
X170175000Y-63500000D03*
%TO.P,U3,3,PA1*%
%TO.N,Net-(U1-D1)*%
X167635000Y-63500000D03*
%TO.P,U3,4,PA2*%
%TO.N,Net-(U1-D2)*%
X165095000Y-63500000D03*
%TO.P,U3,5,PA3*%
%TO.N,Net-(U1-D3)*%
X162555000Y-63500000D03*
%TO.P,U3,6,PA4*%
%TO.N,Net-(J2-Pin_2)*%
X160015000Y-63500000D03*
%TO.P,U3,7,PA5*%
%TO.N,unconnected-(U3-PA5-Pad7)*%
X157475000Y-63500000D03*
%TO.P,U3,8,PA6*%
%TO.N,Net-(J3-Pin_2)*%
X154935000Y-63500000D03*
%TO.P,U3,9,PA7*%
%TO.N,Net-(J3-Pin_4)*%
X152395000Y-63500000D03*
%TO.P,U3,10,PB0*%
%TO.N,/AC0*%
X149855000Y-63500000D03*
%TO.P,U3,11,PB1*%
%TO.N,/AC1*%
X147315000Y-63500000D03*
%TO.P,U3,12,PB2*%
%TO.N,/AC2*%
X144775000Y-63500000D03*
%TO.P,U3,13,PB3*%
%TO.N,/AC3*%
X142235000Y-63500000D03*
%TO.P,U3,14,PB4*%
%TO.N,Net-(U1-HOLD)*%
X139695000Y-63500000D03*
%TO.P,U3,15,PB5*%
%TO.N,Net-(U1-READ)*%
X137155000Y-63500000D03*
%TO.P,U3,16,PB6*%
%TO.N,Net-(U3-PB6)*%
X134615000Y-63500000D03*
%TO.P,U3,17,PB7*%
%TO.N,unconnected-(U3-PB7-Pad17)*%
X132075000Y-63500000D03*
%TO.P,U3,18,CB1*%
%TO.N,Net-(U1-D2)*%
X129535000Y-63500000D03*
%TO.P,U3,19,CB2*%
%TO.N,Net-(U1-D3)*%
X126995000Y-63500000D03*
%TO.P,U3,20,VCC*%
%TO.N,Net-(D1-K)*%
X124455000Y-63500000D03*
%TO.P,U3,21,R/W*%
%TO.N,Net-(J1-R{slash}W)*%
X124455000Y-78740000D03*
%TO.P,U3,22,CS0*%
%TO.N,Net-(D1-K)*%
X126995000Y-78740000D03*
%TO.P,U3,23,/CS2*%
%TO.N,Net-(J1-{slash}DEVSEL)*%
X129535000Y-78740000D03*
%TO.P,U3,24,CS1*%
%TO.N,Net-(D1-K)*%
X132075000Y-78740000D03*
%TO.P,U3,25,E*%
%TO.N,Net-(J1-PHIO)*%
X134615000Y-78740000D03*
%TO.P,U3,26,D7*%
%TO.N,Net-(U2-A7)*%
X137155000Y-78740000D03*
%TO.P,U3,27,D6*%
%TO.N,Net-(U2-A6)*%
X139695000Y-78740000D03*
%TO.P,U3,28,D5*%
%TO.N,Net-(U2-A5)*%
X142235000Y-78740000D03*
%TO.P,U3,29,D4*%
%TO.N,Net-(U2-A4)*%
X144775000Y-78740000D03*
%TO.P,U3,30,D3*%
%TO.N,Net-(U2-A3)*%
X147315000Y-78740000D03*
%TO.P,U3,31,D2*%
%TO.N,Net-(U2-A2)*%
X149855000Y-78740000D03*
%TO.P,U3,32,D1*%
%TO.N,Net-(U2-A1)*%
X152395000Y-78740000D03*
%TO.P,U3,33,D0*%
%TO.N,Net-(U2-A0)*%
X154935000Y-78740000D03*
%TO.P,U3,34,/RES*%
%TO.N,Net-(J1-{slash}RES)*%
X157475000Y-78740000D03*
%TO.P,U3,35,RS1*%
%TO.N,/A1*%
X160015000Y-78740000D03*
%TO.P,U3,36,RS0*%
%TO.N,/A0*%
X162555000Y-78740000D03*
%TO.P,U3,37,/IRQB*%
%TO.N,Net-(U3-{slash}IRQA)*%
X165095000Y-78740000D03*
%TO.P,U3,38,/IRQA*%
X167635000Y-78740000D03*
%TO.P,U3,39,CA2*%
%TO.N,Net-(U1-D1)*%
X170175000Y-78740000D03*
%TO.P,U3,40,CA1*%
%TO.N,Net-(U1-D0)*%
X172715000Y-78740000D03*
%TD*%
D16*
%TO.P,U6,1*%
%TO.N,Net-(J1-{slash}IOSEL)*%
X113040000Y-104135000D03*
D17*
%TO.P,U6,2*%
%TO.N,/A9*%
X113040000Y-106675000D03*
%TO.P,U6,3*%
%TO.N,Net-(U4-A9)*%
X113040000Y-109215000D03*
%TO.P,U6,4*%
%TO.N,/A10*%
X113040000Y-111755000D03*
%TO.P,U6,5*%
%TO.N,/A9*%
X113040000Y-114295000D03*
%TO.P,U6,6*%
%TO.N,Net-(U5-Pad9)*%
X113040000Y-116835000D03*
%TO.P,U6,7,VSS*%
%TO.N,/VSS*%
X113040000Y-119375000D03*
%TO.P,U6,8*%
%TO.N,Net-(U4-A8)*%
X120660000Y-119375000D03*
%TO.P,U6,9*%
%TO.N,/A8*%
X120660000Y-116835000D03*
%TO.P,U6,10*%
%TO.N,Net-(J1-{slash}IOSEL)*%
X120660000Y-114295000D03*
%TO.P,U6,11*%
%TO.N,Net-(U4-{slash}G_VPP)*%
X120660000Y-111755000D03*
%TO.P,U6,12*%
%TO.N,Net-(J1-{slash}IOSEL)*%
X120660000Y-109215000D03*
%TO.P,U6,13*%
%TO.N,Net-(J1-{slash}IOSTRB)*%
X120660000Y-106675000D03*
%TO.P,U6,14,VCC*%
%TO.N,Net-(D1-K)*%
X120660000Y-104135000D03*
%TD*%
D20*
%TO.P,XTAL1,1,1*%
%TO.N,Net-(U1-{slash}XT)*%
X89300000Y-86677500D03*
%TO.P,XTAL1,2,2*%
%TO.N,Net-(U1-XT)*%
X89300000Y-88577500D03*
D21*
%TO.P,XTAL1,3*%
%TO.N,N/C*%
X81680000Y-89852500D03*
%TO.P,XTAL1,4*%
X81680000Y-85407500D03*
%TD*%
D22*
%TO.P,J3,1,Pin_1*%
%TO.N,/VSS*%
X88900000Y-121920000D03*
D23*
%TO.P,J3,2,Pin_2*%
%TO.N,Net-(J3-Pin_2)*%
X88900000Y-119380000D03*
%TO.P,J3,3,Pin_3*%
%TO.N,Net-(D1-K)*%
X88900000Y-116840000D03*
%TO.P,J3,4,Pin_4*%
%TO.N,Net-(J3-Pin_4)*%
X88900000Y-114300000D03*
%TD*%
D10*
%TO.P,C2,1*%
%TO.N,/VSS*%
X83860000Y-95250000D03*
%TO.P,C2,2*%
%TO.N,Net-(U1-{slash}XT)*%
X88860000Y-95250000D03*
%TD*%
%TO.P,R1,1*%
%TO.N,Net-(D2-K)*%
X119380000Y-63500000D03*
D15*
%TO.P,R1,2*%
%TO.N,Net-(BT1-+)*%
X119380000Y-73660000D03*
%TD*%
D22*
%TO.P,J2,1,Pin_1*%
%TO.N,/VSS*%
X88900000Y-109220000D03*
D23*
%TO.P,J2,2,Pin_2*%
%TO.N,Net-(J2-Pin_2)*%
X88900000Y-106680000D03*
%TO.P,J2,3,Pin_3*%
%TO.N,Net-(D1-K)*%
X88900000Y-104140000D03*
%TO.P,J2,4,Pin_4*%
%TO.N,Net-(J2-Pin_4)*%
X88900000Y-101600000D03*
%TD*%
D24*
%TO.P,J1,26,GND*%
%TO.N,/VSS*%
X188595000Y-130075000D03*
%TO.P,J1,27,DMAin*%
%TO.N,Net-(J1-DMAin)*%
X186055000Y-130075000D03*
%TO.P,J1,28,INTin*%
%TO.N,Net-(J1-INTin)*%
X183515000Y-130075000D03*
%TO.P,J1,29,/NMI*%
%TO.N,Net-(J1-{slash}NMI)*%
X180975000Y-130075000D03*
%TO.P,J1,30,/IRQ*%
%TO.N,Net-(J1-{slash}IRQ)*%
X178435000Y-130075000D03*
%TO.P,J1,31,/RES*%
%TO.N,Net-(J1-{slash}RES)*%
X175895000Y-130075000D03*
%TO.P,J1,32,/INH*%
%TO.N,unconnected-(J1-{slash}INH-Pad32)*%
X173355000Y-130075000D03*
%TO.P,J1,33,-12V*%
%TO.N,unconnected-(J1--12V-Pad33)*%
X170815000Y-130075000D03*
%TO.P,J1,34,-5V*%
%TO.N,unconnected-(J1--5V-Pad34)*%
X168275000Y-130075000D03*
%TO.P,J1,35,COLOR_R.*%
%TO.N,unconnected-(J1-COLOR_R.-Pad35)*%
X165735000Y-130075000D03*
%TO.P,J1,36,7M*%
%TO.N,unconnected-(J1-7M-Pad36)*%
X163195000Y-130075000D03*
%TO.P,J1,37,Q3*%
%TO.N,unconnected-(J1-Q3-Pad37)*%
X160655000Y-130075000D03*
%TO.P,J1,38,PHI1*%
%TO.N,unconnected-(J1-PHI1-Pad38)*%
X158115000Y-130075000D03*
%TO.P,J1,39,USER1*%
%TO.N,unconnected-(J1-USER1-Pad39)*%
X155575000Y-130075000D03*
%TO.P,J1,40,PHIO*%
%TO.N,Net-(J1-PHIO)*%
X153035000Y-130075000D03*
%TO.P,J1,41,/DEVSEL*%
%TO.N,Net-(J1-{slash}DEVSEL)*%
X150495000Y-130075000D03*
%TO.P,J1,42,D7*%
%TO.N,/D7*%
X147955000Y-130075000D03*
%TO.P,J1,43,D6*%
%TO.N,/D6*%
X145415000Y-130075000D03*
%TO.P,J1,44,D5*%
%TO.N,/D5*%
X142875000Y-130075000D03*
%TO.P,J1,45,D4*%
%TO.N,/D4*%
X140335000Y-130075000D03*
%TO.P,J1,46,D3*%
%TO.N,/D3*%
X137795000Y-130075000D03*
%TO.P,J1,47,D2*%
%TO.N,/D2*%
X135255000Y-130075000D03*
%TO.P,J1,48,D1*%
%TO.N,/D1*%
X132715000Y-130075000D03*
%TO.P,J1,49,D0*%
%TO.N,/D0*%
X130175000Y-130075000D03*
%TO.P,J1,50,+12V*%
%TO.N,Net-(J1-+12V)*%
X127635000Y-130075000D03*
%TD*%
D18*
%TO.P,U2,1,A->B*%
%TO.N,Net-(J1-R{slash}W)*%
X163820000Y-88910000D03*
D19*
%TO.P,U2,2,A0*%
%TO.N,Net-(U2-A0)*%
X161280000Y-88910000D03*
%TO.P,U2,3,A1*%
%TO.N,Net-(U2-A1)*%
X158740000Y-88910000D03*
%TO.P,U2,4,A2*%
%TO.N,Net-(U2-A2)*%
X156200000Y-88910000D03*
%TO.P,U2,5,A3*%
%TO.N,Net-(U2-A3)*%
X153660000Y-88910000D03*
%TO.P,U2,6,A4*%
%TO.N,Net-(U2-A4)*%
X151120000Y-88910000D03*
%TO.P,U2,7,A5*%
%TO.N,Net-(U2-A5)*%
X148580000Y-88910000D03*
%TO.P,U2,8,A6*%
%TO.N,Net-(U2-A6)*%
X146040000Y-88910000D03*
%TO.P,U2,9,A7*%
%TO.N,Net-(U2-A7)*%
X143500000Y-88910000D03*
%TO.P,U2,10,GND*%
%TO.N,/VSS*%
X140960000Y-88910000D03*
%TO.P,U2,11,B7*%
%TO.N,/D7*%
X140960000Y-96530000D03*
%TO.P,U2,12,B6*%
%TO.N,/D6*%
X143500000Y-96530000D03*
%TO.P,U2,13,B5*%
%TO.N,/D5*%
X146040000Y-96530000D03*
%TO.P,U2,14,B4*%
%TO.N,/D4*%
X148580000Y-96530000D03*
%TO.P,U2,15,B3*%
%TO.N,/D3*%
X151120000Y-96530000D03*
%TO.P,U2,16,B2*%
%TO.N,/D2*%
X153660000Y-96530000D03*
%TO.P,U2,17,B1*%
%TO.N,/D1*%
X156200000Y-96530000D03*
%TO.P,U2,18,B0*%
%TO.N,/D0*%
X158740000Y-96530000D03*
%TO.P,U2,19,/CE*%
%TO.N,Net-(J1-{slash}DEVSEL)*%
X161280000Y-96530000D03*
%TO.P,U2,20,VCC*%
%TO.N,Net-(D1-K)*%
X163820000Y-96530000D03*
%TD*%
D25*
%TO.P,BT1,1,+*%
%TO.N,Net-(BT1-+)*%
X179705000Y-74950000D03*
%TO.P,BT1,2,-*%
%TO.N,/VSS*%
X194945000Y-105450000D03*
%TO.P,BT1,NC*%
%TO.N,N/C*%
X179705000Y-95250000D03*
X194945000Y-82550000D03*
%TD*%
D18*
%TO.P,U4,1,A7*%
%TO.N,/A7*%
X166370000Y-105410000D03*
D19*
%TO.P,U4,2,A6*%
%TO.N,/A6*%
X163830000Y-105410000D03*
%TO.P,U4,3,A5*%
%TO.N,/A5*%
X161290000Y-105410000D03*
%TO.P,U4,4,A4*%
%TO.N,/A4*%
X158750000Y-105410000D03*
%TO.P,U4,5,A3*%
%TO.N,/A3*%
X156210000Y-105410000D03*
%TO.P,U4,6,A2*%
%TO.N,/A2*%
X153670000Y-105410000D03*
%TO.P,U4,7,A1*%
%TO.N,/A1*%
X151130000Y-105410000D03*
%TO.P,U4,8,A0*%
%TO.N,/A0*%
X148590000Y-105410000D03*
%TO.P,U4,9,D0*%
%TO.N,/D0*%
X146050000Y-105410000D03*
%TO.P,U4,10,D1*%
%TO.N,/D1*%
X143510000Y-105410000D03*
%TO.P,U4,11,D2*%
%TO.N,/D2*%
X140970000Y-105410000D03*
%TO.P,U4,12,VSS*%
%TO.N,/VSS*%
X138430000Y-105410000D03*
%TO.P,U4,13,D3*%
%TO.N,/D3*%
X138430000Y-120650000D03*
%TO.P,U4,14,D4*%
%TO.N,/D4*%
X140970000Y-120650000D03*
%TO.P,U4,15,D5*%
%TO.N,/D5*%
X143510000Y-120650000D03*
%TO.P,U4,16,D6*%
%TO.N,/D6*%
X146050000Y-120650000D03*
%TO.P,U4,17,D7*%
%TO.N,/D7*%
X148590000Y-120650000D03*
%TO.P,U4,18,/E*%
%TO.N,Net-(U4-{slash}E)*%
X151130000Y-120650000D03*
%TO.P,U4,19,A10*%
%TO.N,Net-(J2-Pin_2)*%
X153670000Y-120650000D03*
%TO.P,U4,20,/G_VPP*%
%TO.N,Net-(U4-{slash}G_VPP)*%
X156210000Y-120650000D03*
%TO.P,U4,21,A11*%
%TO.N,Net-(D1-K)*%
X158750000Y-120650000D03*
%TO.P,U4,22,A9*%
%TO.N,Net-(U4-A9)*%
X161290000Y-120650000D03*
%TO.P,U4,23,A8*%
%TO.N,Net-(U4-A8)*%
X163830000Y-120650000D03*
%TO.P,U4,24,VCC*%
%TO.N,Net-(D1-K)*%
X166370000Y-120650000D03*
%TD*%
D13*
%TO.P,D2,1,K*%
%TO.N,Net-(D2-K)*%
X115570000Y-63500000D03*
D14*
%TO.P,D2,2,A*%
%TO.N,Net-(D1-A)*%
X115570000Y-73660000D03*
%TD*%
D26*
%TO.P,SW1,1*%
%TO.N,Net-(U1-WRITE)*%
X81290000Y-63510000D03*
D15*
%TO.P,SW1,2*%
%TO.N,/VSS*%
X81290000Y-66050000D03*
%TO.P,SW1,3*%
%TO.N,Net-(J1-{slash}NMI)*%
X81290000Y-68590000D03*
%TO.P,SW1,4*%
%TO.N,Net-(J1-{slash}IRQ)*%
X81290000Y-71130000D03*
%TO.P,SW1,5*%
%TO.N,Net-(U3-{slash}IRQA)*%
X88910000Y-71130000D03*
%TO.P,SW1,6*%
X88910000Y-68590000D03*
%TO.P,SW1,7*%
%TO.N,Net-(J2-Pin_2)*%
X88910000Y-66050000D03*
%TO.P,SW1,8*%
%TO.N,Net-(U3-PB6)*%
X88910000Y-63510000D03*
%TD*%
D27*
%TO.P,C1,1*%
%TO.N,Net-(U1-XT)*%
X82931000Y-78105000D03*
%TO.P,C1,2*%
%TO.N,/VSS*%
X88138000Y-78105000D03*
%TD*%
D16*
%TO.P,U5,1*%
%TO.N,Net-(J1-{slash}IOSEL)*%
X97790000Y-104135000D03*
D17*
%TO.P,U5,2*%
%TO.N,Net-(U4-{slash}E)*%
X97790000Y-106675000D03*
%TO.P,U5,3*%
%TO.N,Net-(U5-Pad3)*%
X97790000Y-109215000D03*
%TO.P,U5,4*%
X97790000Y-111755000D03*
%TO.P,U5,5*%
%TO.N,Net-(U5-Pad5)*%
X97790000Y-114295000D03*
%TO.P,U5,6*%
%TO.N,Net-(U4-{slash}E)*%
X97790000Y-116835000D03*
%TO.P,U5,7,VSS*%
%TO.N,/VSS*%
X97790000Y-119375000D03*
%TO.P,U5,8*%
%TO.N,Net-(U5-Pad5)*%
X105410000Y-119375000D03*
%TO.P,U5,9*%
%TO.N,Net-(U5-Pad9)*%
X105410000Y-116835000D03*
%TO.P,U5,10*%
%TO.N,Net-(U5-Pad10)*%
X105410000Y-114295000D03*
%TO.P,U5,11*%
X105410000Y-111755000D03*
%TO.P,U5,12*%
%TO.N,Net-(J1-{slash}IOSTRB)*%
X105410000Y-109215000D03*
%TO.P,U5,13*%
X105410000Y-106675000D03*
%TO.P,U5,14,VCC*%
%TO.N,Net-(D1-K)*%
X105410000Y-104135000D03*
%TD*%
D10*
%TO.P,C3,1*%
%TO.N,/VSS*%
X196850000Y-117515000D03*
%TO.P,C3,2*%
%TO.N,Net-(D1-K)*%
X196850000Y-122515000D03*
%TD*%
D28*
%TO.N,Net-(D2-K)*%
X108585000Y-64770000D03*
X117475000Y-86360000D03*
%TO.N,Net-(D1-A)*%
X113982500Y-87215500D03*
X123825000Y-102235000D03*
%TO.N,/A0*%
X167640000Y-101600000D03*
%TO.N,/A1*%
X166370000Y-102870000D03*
%TO.N,/A8*%
X156210000Y-118110000D03*
%TO.N,/A9*%
X158115000Y-116840000D03*
%TO.N,/A10*%
X159155363Y-115340363D03*
%TO.N,Net-(J1-R{slash}W)*%
X124455000Y-85090000D03*
X171767500Y-123507500D03*
%TO.N,Net-(J1-{slash}IOSTRB)*%
X165100000Y-111760000D03*
%TO.N,Net-(J1-{slash}NMI)*%
X87630000Y-60325000D03*
%TO.N,Net-(J1-{slash}IRQ)*%
X89535000Y-61595000D03*
%TO.N,Net-(J1-{slash}RES)*%
X157475000Y-74295000D03*
%TO.N,Net-(J1-{slash}DEVSEL)*%
X129535000Y-87630000D03*
%TO.N,/D2*%
X130810000Y-120015000D03*
%TO.N,/D1*%
X132080000Y-122555000D03*
%TO.N,/D0*%
X133242891Y-121392109D03*
%TO.N,Net-(U1-D3)*%
X127000000Y-75565000D03*
%TO.N,/AC0*%
X149855000Y-70485000D03*
%TO.N,/AC1*%
X147320000Y-73025000D03*
%TO.N,/AC2*%
X144780000Y-74295000D03*
%TO.N,/AC3*%
X142235000Y-75565000D03*
%TO.N,Net-(U4-A8)*%
X127000000Y-119380000D03*
X127000000Y-110490000D03*
%TO.N,Net-(J2-Pin_2)*%
X168910000Y-92075000D03*
%TO.N,Net-(J3-Pin_2)*%
X140335000Y-69215000D03*
%TO.N,Net-(J3-Pin_4)*%
X138430000Y-69215000D03*
%TO.N,Net-(J1-INTin)*%
X183515000Y-125095000D03*
%TO.N,Net-(J1-DMAin)*%
X186055000Y-125095000D03*
%TO.N,Net-(U1-HOLD)*%
X130810000Y-65405000D03*
%TD*%
D29*
%TO.N,Net-(D1-K)*%
X105410000Y-104135000D02*
X105415000Y-104135000D01*
X135255000Y-107315000D02*
X123840000Y-107315000D01*
X165110000Y-96530000D02*
X163820000Y-96530000D01*
D30*
X158750000Y-120650000D02*
X160528000Y-122428000D01*
X128773000Y-80518000D02*
X130297000Y-80518000D01*
D29*
X135255000Y-97105000D02*
X135255000Y-107315000D01*
X105405000Y-104135000D02*
X105410000Y-104135000D01*
X88900000Y-104140000D02*
X91440000Y-101600000D01*
X92670000Y-116840000D02*
X92710000Y-116880000D01*
X88900000Y-116840000D02*
X92670000Y-116840000D01*
X92710000Y-116880000D02*
X92710000Y-107950000D01*
X170175000Y-107320000D02*
X170175000Y-101595000D01*
X118125000Y-101600000D02*
X120660000Y-104135000D01*
D30*
X160528000Y-122428000D02*
X164592000Y-122428000D01*
X126995000Y-78740000D02*
X128773000Y-80518000D01*
D29*
X135885000Y-107320000D02*
X170175000Y-107320000D01*
X137150000Y-95210000D02*
X135255000Y-97105000D01*
X102870000Y-101600000D02*
X105405000Y-104135000D01*
X91440000Y-101600000D02*
X102870000Y-101600000D01*
X123840000Y-107315000D02*
X120660000Y-104135000D01*
X92710000Y-107950000D02*
X88900000Y-104140000D01*
X105415000Y-104135000D02*
X107950000Y-101600000D01*
X170175000Y-116845000D02*
X166370000Y-120650000D01*
D30*
X164592000Y-122428000D02*
X166370000Y-120650000D01*
X130297000Y-80518000D02*
X132075000Y-78740000D01*
D29*
X107950000Y-101600000D02*
X118125000Y-101600000D01*
X170175000Y-107320000D02*
X170175000Y-116845000D01*
X170175000Y-101595000D02*
X165110000Y-96530000D01*
D30*
%TO.N,Net-(U1-XT)*%
X82931000Y-78105000D02*
X82931000Y-82208500D01*
X82931000Y-82208500D02*
X89300000Y-88577500D01*
%TO.N,Net-(U1-{slash}XT)*%
X90805000Y-88182500D02*
X89300000Y-86677500D01*
X90805000Y-90170000D02*
X90805000Y-88182500D01*
X88860000Y-95250000D02*
X88860000Y-92115000D01*
X88860000Y-92115000D02*
X90805000Y-90170000D01*
%TO.N,Net-(D2-K)*%
X99060000Y-64770000D02*
X97790000Y-63500000D01*
X108585000Y-64770000D02*
X99060000Y-64770000D01*
X119380000Y-63500000D02*
X115570000Y-63500000D01*
X111954500Y-86165500D02*
X101720000Y-96400000D01*
X116840000Y-86360000D02*
X116645500Y-86165500D01*
X101720000Y-96400000D02*
X101720000Y-98032500D01*
X116645500Y-86165500D02*
X111954500Y-86165500D01*
X117475000Y-86360000D02*
X116840000Y-86360000D01*
%TO.N,Net-(D1-A)*%
X115570000Y-73660000D02*
X112395000Y-73660000D01*
X113982500Y-87312500D02*
X123825000Y-97155000D01*
X113982500Y-87215500D02*
X113982500Y-87312500D01*
X123825000Y-97155000D02*
X123825000Y-102235000D01*
%TO.N,Net-(J1-{slash}IOSEL)*%
X102250000Y-105425000D02*
X107300000Y-105425000D01*
X100960000Y-104135000D02*
X102250000Y-105425000D01*
X108590000Y-104135000D02*
X113040000Y-104135000D01*
X107300000Y-105425000D02*
X108590000Y-104135000D01*
X97790000Y-104135000D02*
X100960000Y-104135000D01*
%TO.N,/A0*%
X151765000Y-102235000D02*
X148590000Y-105410000D01*
X163195000Y-101600000D02*
X162560000Y-102235000D01*
X162560000Y-102235000D02*
X151765000Y-102235000D01*
X167640000Y-101600000D02*
X163195000Y-101600000D01*
%TO.N,/A1*%
X166370000Y-102870000D02*
X165735000Y-103505000D01*
X153035000Y-103505000D02*
X151130000Y-105410000D01*
X165735000Y-103505000D02*
X153035000Y-103505000D01*
%TO.N,/A8*%
X120660000Y-116835000D02*
X154935000Y-116835000D01*
X154935000Y-116835000D02*
X156210000Y-118110000D01*
%TO.N,/A9*%
X111252000Y-112507000D02*
X113040000Y-114295000D01*
X111252000Y-108463000D02*
X111252000Y-112507000D01*
X158115000Y-116840000D02*
X156845000Y-115570000D01*
X113040000Y-106675000D02*
X111252000Y-108463000D01*
X156845000Y-115570000D02*
X114315000Y-115570000D01*
X114315000Y-115570000D02*
X113040000Y-114295000D01*
%TO.N,/A10*%
X159155363Y-115340363D02*
X158115000Y-114300000D01*
X121920000Y-113030000D02*
X114315000Y-113030000D01*
X158115000Y-114300000D02*
X123190000Y-114300000D01*
X123190000Y-114300000D02*
X121920000Y-113030000D01*
X114315000Y-113030000D02*
X113040000Y-111755000D01*
%TO.N,Net-(J1-R{slash}W)*%
X171450000Y-88900000D02*
X173355000Y-90805000D01*
X163820000Y-88890000D02*
X163820000Y-88910000D01*
X124455000Y-85090000D02*
X160020000Y-85090000D01*
X171440000Y-88910000D02*
X171450000Y-88900000D01*
X173355000Y-90805000D02*
X173355000Y-121920000D01*
X173355000Y-121920000D02*
X171767500Y-123507500D01*
X160020000Y-85090000D02*
X163820000Y-88890000D01*
X163820000Y-88910000D02*
X171440000Y-88910000D01*
%TO.N,Net-(J1-{slash}IOSTRB)*%
X105410000Y-109215000D02*
X109215000Y-105410000D01*
X105410000Y-109215000D02*
X105410000Y-106675000D01*
X165100000Y-111760000D02*
X162560000Y-109220000D01*
X120645000Y-106675000D02*
X120660000Y-106675000D01*
X119380000Y-105410000D02*
X120645000Y-106675000D01*
X123205000Y-109220000D02*
X120660000Y-106675000D01*
X162560000Y-109220000D02*
X123205000Y-109220000D01*
X109215000Y-105410000D02*
X119380000Y-105410000D01*
%TO.N,Net-(J1-{slash}NMI)*%
X168925000Y-63480000D02*
X168925000Y-64785000D01*
X87630000Y-60325000D02*
X166751000Y-60325000D01*
X172720000Y-68580000D02*
X184150000Y-68580000D01*
X168910000Y-62484000D02*
X168910000Y-63465000D01*
X168925000Y-64785000D02*
X172720000Y-68580000D01*
X166751000Y-60325000D02*
X168910000Y-62484000D01*
X186690000Y-71120000D02*
X186690000Y-116840000D01*
X186690000Y-116840000D02*
X180975000Y-122555000D01*
X168910000Y-63465000D02*
X168925000Y-63480000D01*
X184150000Y-68580000D02*
X186690000Y-71120000D01*
X180975000Y-122555000D02*
X180975000Y-130075000D01*
%TO.N,Net-(J1-{slash}IRQ)*%
X185420000Y-71755000D02*
X185420000Y-116205000D01*
X183515000Y-69850000D02*
X185420000Y-71755000D01*
X89535000Y-61595000D02*
X165481000Y-61595000D01*
X171516117Y-69850000D02*
X183515000Y-69850000D01*
X185420000Y-116205000D02*
X178435000Y-123190000D01*
X166385000Y-64718883D02*
X171516117Y-69850000D01*
X178435000Y-123190000D02*
X178435000Y-130075000D01*
X165481000Y-61595000D02*
X166385000Y-62499000D01*
X166385000Y-62499000D02*
X166385000Y-64718883D01*
%TO.N,Net-(J1-{slash}RES)*%
X175895000Y-130075000D02*
X175895000Y-123190000D01*
X175895000Y-123190000D02*
X184150000Y-114935000D01*
X173990000Y-74295000D02*
X157475000Y-74295000D01*
X184150000Y-114935000D02*
X184150000Y-84455000D01*
X184150000Y-84455000D02*
X173990000Y-74295000D01*
%TO.N,Net-(J1-PHIO)*%
X134615000Y-78745000D02*
X136525000Y-76835000D01*
X173355000Y-76835000D02*
X174625000Y-78105000D01*
X154271000Y-124875000D02*
X153035000Y-126111000D01*
X136525000Y-76835000D02*
X173355000Y-76835000D01*
X174625000Y-123190000D02*
X172940000Y-124875000D01*
X153035000Y-126111000D02*
X153035000Y-130075000D01*
X174625000Y-78105000D02*
X174625000Y-123190000D01*
X172940000Y-124875000D02*
X154271000Y-124875000D01*
%TO.N,Net-(J1-{slash}DEVSEL)*%
X152908000Y-123698000D02*
X150495000Y-126111000D01*
X150495000Y-126111000D02*
X150495000Y-130075000D01*
X165735000Y-94615000D02*
X172085000Y-100965000D01*
X129535000Y-87630000D02*
X129650250Y-87630000D01*
X129650250Y-87630000D02*
X135365250Y-93345000D01*
X172085000Y-117475000D02*
X165862000Y-123698000D01*
X172085000Y-100965000D02*
X172085000Y-117475000D01*
X158095000Y-93345000D02*
X161280000Y-96530000D01*
X165862000Y-123698000D02*
X152908000Y-123698000D01*
X163195000Y-94615000D02*
X165735000Y-94615000D01*
X161280000Y-96530000D02*
X163195000Y-94615000D01*
X135365250Y-93345000D02*
X158095000Y-93345000D01*
%TO.N,/D7*%
X147955000Y-124460000D02*
X147955000Y-130075000D01*
X148590000Y-120650000D02*
X148590000Y-123825000D01*
X148590000Y-123825000D02*
X147955000Y-124460000D01*
%TO.N,/D6*%
X146050000Y-120650000D02*
X146050000Y-123825000D01*
X145415000Y-124460000D02*
X145415000Y-130075000D01*
X146050000Y-123825000D02*
X145415000Y-124460000D01*
%TO.N,/D5*%
X143510000Y-120650000D02*
X143510000Y-124460000D01*
X143510000Y-124460000D02*
X142875000Y-125095000D01*
X142875000Y-125095000D02*
X142875000Y-130075000D01*
%TO.N,/D4*%
X140970000Y-120650000D02*
X140970000Y-124460000D01*
X140335000Y-125095000D02*
X140335000Y-130075000D01*
X140970000Y-124460000D02*
X140335000Y-125095000D01*
%TO.N,/D3*%
X138430000Y-120650000D02*
X138430000Y-125095000D01*
X137795000Y-125730000D02*
X137795000Y-130075000D01*
X138430000Y-125095000D02*
X137795000Y-125730000D01*
%TO.N,/D2*%
X140970000Y-105410000D02*
X147955000Y-98425000D01*
X135255000Y-121412000D02*
X135255000Y-130075000D01*
X151765000Y-98425000D02*
X153660000Y-96530000D01*
X130810000Y-120015000D02*
X133858000Y-120015000D01*
X133858000Y-120015000D02*
X135255000Y-121412000D01*
X147955000Y-98425000D02*
X151765000Y-98425000D01*
%TO.N,/D1*%
X132715000Y-123190000D02*
X132715000Y-130075000D01*
X153035000Y-99695000D02*
X156200000Y-96530000D01*
X149225000Y-99695000D02*
X153035000Y-99695000D01*
X143510000Y-105410000D02*
X149225000Y-99695000D01*
X132080000Y-122555000D02*
X132715000Y-123190000D01*
%TO.N,/D0*%
X150495000Y-100965000D02*
X154305000Y-100965000D01*
X133242891Y-121392109D02*
X131337891Y-121392109D01*
X146050000Y-105410000D02*
X150495000Y-100965000D01*
X130110000Y-122620000D02*
X130110000Y-130010000D01*
X130110000Y-130010000D02*
X130175000Y-130075000D01*
X154305000Y-100965000D02*
X158740000Y-96530000D01*
X131337891Y-121392109D02*
X130110000Y-122620000D01*
%TO.N,Net-(J1-+12V)*%
X127635000Y-125730000D02*
X127000000Y-125095000D01*
X127635000Y-130075000D02*
X127635000Y-125730000D01*
X127000000Y-125095000D02*
X113665000Y-125095000D01*
X113665000Y-125095000D02*
X111760000Y-123190000D01*
%TO.N,Net-(BT1-+)*%
X176575000Y-71820000D02*
X179705000Y-74950000D01*
X121220000Y-71820000D02*
X176575000Y-71820000D01*
X119380000Y-73660000D02*
X121220000Y-71820000D01*
%TO.N,Net-(U3-{slash}IRQA)*%
X106660000Y-82570000D02*
X95905000Y-82570000D01*
X88910000Y-68590000D02*
X88910000Y-71130000D01*
X165095000Y-78740000D02*
X167635000Y-78740000D01*
X107950000Y-81280000D02*
X106660000Y-82570000D01*
X165035000Y-78805000D02*
X162560000Y-81280000D01*
X94615000Y-76835000D02*
X88910000Y-71130000D01*
X95905000Y-82570000D02*
X94615000Y-81280000D01*
X162560000Y-81280000D02*
X107950000Y-81280000D01*
X94615000Y-81280000D02*
X94615000Y-76835000D01*
%TO.N,Net-(U3-PB6)*%
X134615000Y-63719925D02*
X134615000Y-63500000D01*
X88910000Y-63510000D02*
X88920000Y-63500000D01*
X88920000Y-63500000D02*
X90170000Y-63500000D01*
X131024925Y-67310000D02*
X134615000Y-63719925D01*
X90170000Y-63500000D02*
X93980000Y-67310000D01*
X93980000Y-67310000D02*
X131024925Y-67310000D01*
%TO.N,Net-(U1-READ)*%
X137155000Y-63505000D02*
X137155000Y-63500000D01*
X97790000Y-68580000D02*
X99040000Y-69830000D01*
X106446000Y-69830000D02*
X107696000Y-68580000D01*
X132080000Y-68580000D02*
X137155000Y-63505000D01*
X107696000Y-68580000D02*
X132080000Y-68580000D01*
X99040000Y-69830000D02*
X106446000Y-69830000D01*
%TO.N,Net-(U1-D0)*%
X167640000Y-83820000D02*
X172715000Y-78745000D01*
X172715000Y-78745000D02*
X172715000Y-78740000D01*
X99060000Y-85090000D02*
X109220000Y-85090000D01*
X109220000Y-85090000D02*
X110490000Y-83820000D01*
X110490000Y-83820000D02*
X167640000Y-83820000D01*
X97790000Y-83820000D02*
X99060000Y-85090000D01*
%TO.N,Net-(U1-D1)*%
X170175000Y-78745000D02*
X166370000Y-82550000D01*
X107315000Y-83820000D02*
X105410000Y-83820000D01*
X108585000Y-82550000D02*
X107315000Y-83820000D01*
X170175000Y-78740000D02*
X170175000Y-78745000D01*
X166370000Y-82550000D02*
X108585000Y-82550000D01*
%TO.N,Net-(U1-D3)*%
X127000000Y-75565000D02*
X123825000Y-75565000D01*
X123825000Y-75565000D02*
X120650000Y-78740000D01*
X120650000Y-78740000D02*
X105410000Y-78740000D01*
%TO.N,/AC0*%
X110490000Y-70485000D02*
X108605000Y-72370000D01*
X99040000Y-72370000D02*
X97790000Y-71120000D01*
X149855000Y-70485000D02*
X110490000Y-70485000D01*
X108605000Y-72370000D02*
X99040000Y-72370000D01*
%TO.N,/AC1*%
X100330000Y-73660000D02*
X97790000Y-73660000D01*
X101600000Y-74930000D02*
X100330000Y-73660000D01*
X122555000Y-73025000D02*
X119380000Y-76200000D01*
X147320000Y-73025000D02*
X122555000Y-73025000D01*
X107950000Y-76200000D02*
X106680000Y-74930000D01*
X119380000Y-76200000D02*
X107950000Y-76200000D01*
X106680000Y-74930000D02*
X101600000Y-74930000D01*
%TO.N,/AC2*%
X144780000Y-74295000D02*
X123190000Y-74295000D01*
X120015000Y-77470000D02*
X99060000Y-77470000D01*
X99060000Y-77470000D02*
X97790000Y-76200000D01*
X123190000Y-74295000D02*
X120015000Y-77470000D01*
%TO.N,/AC3*%
X124412233Y-76615000D02*
X121017233Y-80010000D01*
X128279962Y-76615000D02*
X124412233Y-76615000D01*
X121017233Y-80010000D02*
X99060000Y-80010000D01*
X99060000Y-80010000D02*
X97790000Y-78740000D01*
X129329962Y-75565000D02*
X128279962Y-76615000D01*
X142235000Y-75565000D02*
X129329962Y-75565000D01*
%TO.N,Net-(U4-{slash}E)*%
X96012000Y-108453000D02*
X96012000Y-115057000D01*
X97790000Y-106675000D02*
X96012000Y-108453000D01*
X101732000Y-120777000D02*
X107823000Y-120777000D01*
X107823000Y-120777000D02*
X110475000Y-118125000D01*
X148605000Y-118125000D02*
X151130000Y-120650000D01*
X110475000Y-118125000D02*
X148605000Y-118125000D01*
X97790000Y-116835000D02*
X101732000Y-120777000D01*
X96012000Y-115057000D02*
X97790000Y-116835000D01*
%TO.N,Net-(U4-{slash}G_VPP)*%
X124460000Y-113030000D02*
X123185000Y-111755000D01*
X160205363Y-116654637D02*
X160205363Y-114485363D01*
X158750000Y-113030000D02*
X124460000Y-113030000D01*
X156210000Y-120650000D02*
X160205363Y-116654637D01*
X160205363Y-114485363D02*
X158750000Y-113030000D01*
X123185000Y-111755000D02*
X120660000Y-111755000D01*
%TO.N,Net-(U4-A9)*%
X161290000Y-113030000D02*
X160020000Y-111760000D01*
X125095000Y-111760000D02*
X123800000Y-110465000D01*
X161290000Y-120650000D02*
X161290000Y-113030000D01*
X114290000Y-110465000D02*
X113040000Y-109215000D01*
X123800000Y-110465000D02*
X114290000Y-110465000D01*
X160020000Y-111760000D02*
X125095000Y-111760000D01*
%TO.N,Net-(U4-A8)*%
X163830000Y-113030000D02*
X163830000Y-120650000D01*
X161290000Y-110490000D02*
X163830000Y-113030000D01*
X127000000Y-110490000D02*
X161290000Y-110490000D01*
X126995000Y-119375000D02*
X120660000Y-119375000D01*
X127000000Y-119380000D02*
X126995000Y-119375000D01*
%TO.N,Net-(U5-Pad3)*%
X97790000Y-111755000D02*
X97790000Y-109215000D01*
%TO.N,Net-(U5-Pad5)*%
X100330000Y-114295000D02*
X105410000Y-119375000D01*
X97790000Y-114295000D02*
X100330000Y-114295000D01*
%TO.N,Net-(U5-Pad9)*%
X105410000Y-116835000D02*
X113040000Y-116835000D01*
%TO.N,Net-(U5-Pad10)*%
X105410000Y-114295000D02*
X105410000Y-111755000D01*
%TO.N,Net-(J2-Pin_2)*%
X87503000Y-105283000D02*
X87503000Y-100457000D01*
X111125000Y-85090000D02*
X109855000Y-86360000D01*
X87503000Y-72263000D02*
X87503000Y-67457000D01*
X87503000Y-100457000D02*
X92710000Y-95250000D01*
X87503000Y-67457000D02*
X88910000Y-66050000D01*
X135890000Y-92075000D02*
X130175000Y-86360000D01*
X130175000Y-86360000D02*
X122975075Y-86360000D01*
X92710000Y-95250000D02*
X92710000Y-86360000D01*
X168910000Y-92075000D02*
X135890000Y-92075000D01*
X92710000Y-77470000D02*
X87503000Y-72263000D01*
X88900000Y-106680000D02*
X87503000Y-105283000D01*
X121705075Y-85090000D02*
X111125000Y-85090000D01*
X122975075Y-86360000D02*
X121705075Y-85090000D01*
X109855000Y-86360000D02*
X92710000Y-86360000D01*
X92710000Y-86360000D02*
X92710000Y-77470000D01*
%TO.N,Net-(J3-Pin_2)*%
X150495000Y-68580000D02*
X154935000Y-64140000D01*
X140970000Y-68580000D02*
X150495000Y-68580000D01*
X140335000Y-69215000D02*
X140970000Y-68580000D01*
X154935000Y-64140000D02*
X154935000Y-63500000D01*
%TO.N,Net-(J3-Pin_4)*%
X152395000Y-64140000D02*
X152395000Y-63500000D01*
X149225000Y-67310000D02*
X152395000Y-64140000D01*
X140335000Y-67310000D02*
X149225000Y-67310000D01*
X138430000Y-69215000D02*
X140335000Y-67310000D01*
%TO.N,Net-(J1-INTin)*%
X183515000Y-125095000D02*
X183515000Y-130075000D01*
%TO.N,Net-(J1-DMAin)*%
X186055000Y-125095000D02*
X186055000Y-130075000D01*
D31*
%TO.N,/VSS*%
X88138000Y-75438000D02*
X88138000Y-78105000D01*
X84455000Y-60325000D02*
X84455000Y-64770000D01*
X88900000Y-121920000D02*
X88900000Y-124460000D01*
X85090000Y-122555000D02*
X86995000Y-124460000D01*
D30*
X100965000Y-76200000D02*
X99695000Y-74930000D01*
D31*
X88900000Y-109220000D02*
X85090000Y-109220000D01*
X86360000Y-58420000D02*
X84455000Y-60325000D01*
D30*
X105410000Y-76200000D02*
X100965000Y-76200000D01*
D31*
X172715000Y-63500000D02*
X172715000Y-58425000D01*
X84445000Y-66050000D02*
X84455000Y-66040000D01*
X86995000Y-124460000D02*
X88900000Y-124460000D01*
X88900000Y-124460000D02*
X92710000Y-124460000D01*
X191770000Y-105450000D02*
X191770000Y-117515000D01*
D30*
X95885000Y-74930000D02*
X91440000Y-70485000D01*
D31*
X81290000Y-66050000D02*
X84445000Y-66050000D01*
X84455000Y-71755000D02*
X79375000Y-76835000D01*
X172715000Y-58425000D02*
X172720000Y-58420000D01*
D30*
X99695000Y-74930000D02*
X95885000Y-74930000D01*
D31*
X79375000Y-96520000D02*
X85090000Y-102235000D01*
X84455000Y-66040000D02*
X84455000Y-71755000D01*
X188595000Y-130075000D02*
X188595000Y-125095000D01*
X92710000Y-124460000D02*
X97790000Y-124460000D01*
X191770000Y-71124189D02*
X179065811Y-58420000D01*
X172720000Y-58420000D02*
X86360000Y-58420000D01*
X92710000Y-121880000D02*
X92710000Y-124460000D01*
X107955000Y-124460000D02*
X113040000Y-119375000D01*
X79375000Y-95250000D02*
X79375000Y-96520000D01*
X191770000Y-121920000D02*
X191770000Y-117515000D01*
X79375000Y-76835000D02*
X79375000Y-95250000D01*
X194945000Y-105450000D02*
X191770000Y-105450000D01*
D30*
X91440000Y-66812233D02*
X89397767Y-64770000D01*
D31*
X85090000Y-109220000D02*
X85090000Y-122555000D01*
X191770000Y-117515000D02*
X196850000Y-117515000D01*
X97790000Y-124460000D02*
X107955000Y-124460000D01*
X84455000Y-71755000D02*
X88138000Y-75438000D01*
X179065811Y-58420000D02*
X172720000Y-58420000D01*
X97790000Y-119375000D02*
X97790000Y-124460000D01*
D30*
X91440000Y-70485000D02*
X91440000Y-66812233D01*
D31*
X188595000Y-125095000D02*
X191770000Y-121920000D01*
X85090000Y-102235000D02*
X85090000Y-109220000D01*
X191770000Y-105450000D02*
X191770000Y-71124189D01*
D30*
X89397767Y-64770000D02*
X84455000Y-64770000D01*
D31*
X84455000Y-64770000D02*
X84455000Y-66040000D01*
X79375000Y-95250000D02*
X83860000Y-95250000D01*
D30*
%TO.N,Net-(U1-HOLD)*%
X130810000Y-65405000D02*
X111760000Y-65405000D01*
X111760000Y-65405000D02*
X109855000Y-63500000D01*
X109855000Y-63500000D02*
X105410000Y-63500000D01*
%TD*%
%TA.AperFunction,Conductor*%
%TO.N,/VSS*%
G36*
X179085677Y-58439685D02*
G01*
X179106319Y-58456319D01*
X187959999Y-67310000D01*
X187959999Y-67309999D01*
X188595000Y-67945000D01*
X188595000Y-71120000D01*
X176106680Y-58631681D01*
X176073196Y-58570358D01*
X176078180Y-58500666D01*
X176120052Y-58444733D01*
X176185516Y-58420316D01*
X176194362Y-58420000D01*
X179018638Y-58420000D01*
X179085677Y-58439685D01*
G37*
%TD.AperFunction*%
%TD*%
%TA.AperFunction,Conductor*%
%TO.N,/VSS*%
G36*
X188165203Y-66245649D02*
G01*
X188171681Y-66251681D01*
X193003681Y-71083681D01*
X193037166Y-71145004D01*
X193040000Y-71171362D01*
X193040000Y-121868638D01*
X193020315Y-121935677D01*
X193003681Y-121956319D01*
X189317681Y-125642319D01*
X189256358Y-125675804D01*
X189186666Y-125670820D01*
X189142319Y-125642319D01*
X187996319Y-124496319D01*
X187962834Y-124434996D01*
X187960000Y-124408638D01*
X187960000Y-70485000D01*
X188595000Y-71120000D01*
X188595000Y-67945000D01*
X187960000Y-67310000D01*
X187960000Y-67309999D01*
X187960000Y-66339362D01*
X187979685Y-66272323D01*
X188032489Y-66226568D01*
X188101647Y-66216624D01*
X188165203Y-66245649D01*
G37*
%TD.AperFunction*%
%TD*%
M02*
