%TF.GenerationSoftware,KiCad,Pcbnew,7.0.5-0*%
%TF.CreationDate,2023-06-19T18:26:53+02:00*%
%TF.ProjectId,Apple TimeMaster - reloaded,4170706c-6520-4546-996d-654d61737465,rev?*%
%TF.SameCoordinates,Original*%
%TF.FileFunction,Copper,L1,Top*%
%TF.FilePolarity,Positive*%
%FSLAX46Y46*%
G04 Gerber Fmt 4.6, Leading zero omitted, Abs format (unit mm)*
G04 Created by KiCad (PCBNEW 7.0.5-0) date 2023-06-19 18:26:53*
%MOMM*%
%LPD*%
G01*
G04 APERTURE LIST*
G04 Aperture macros list*
%AMRoundRect*
0 Rectangle with rounded corners*
0 $1 Rounding radius*
0 $2 $3 $4 $5 $6 $7 $8 $9 X,Y pos of 4 corners*
0 Add a 4 corners polygon primitive as box body*
4,1,4,$2,$3,$4,$5,$6,$7,$8,$9,$2,$3,0*
0 Add four circle primitives for the rounded corners*
1,1,$1+$1,$2,$3*
1,1,$1+$1,$4,$5*
1,1,$1+$1,$6,$7*
1,1,$1+$1,$8,$9*
0 Add four rect primitives between the rounded corners*
20,1,$1+$1,$2,$3,$4,$5,0*
20,1,$1+$1,$4,$5,$6,$7,0*
20,1,$1+$1,$6,$7,$8,$9,0*
20,1,$1+$1,$8,$9,$2,$3,0*%
G04 Aperture macros list end*
%TA.AperFunction,ComponentPad*%
%ADD10C,1.600000*%
%TD*%
%TA.AperFunction,ComponentPad*%
%ADD11R,2.000000X2.000000*%
%TD*%
%TA.AperFunction,ComponentPad*%
%ADD12O,2.000000X2.000000*%
%TD*%
%TA.AperFunction,ComponentPad*%
%ADD13R,1.500000X1.500000*%
%TD*%
%TA.AperFunction,ComponentPad*%
%ADD14O,1.500000X1.500000*%
%TD*%
%TA.AperFunction,ComponentPad*%
%ADD15O,1.600000X1.600000*%
%TD*%
%TA.AperFunction,ComponentPad*%
%ADD16R,2.400000X1.600000*%
%TD*%
%TA.AperFunction,ComponentPad*%
%ADD17O,2.400000X1.600000*%
%TD*%
%TA.AperFunction,ComponentPad*%
%ADD18R,1.600000X2.400000*%
%TD*%
%TA.AperFunction,ComponentPad*%
%ADD19O,1.600000X2.400000*%
%TD*%
%TA.AperFunction,ComponentPad*%
%ADD20C,1.000000*%
%TD*%
%TA.AperFunction,ComponentPad*%
%ADD21C,1.524000*%
%TD*%
%TA.AperFunction,SMDPad,CuDef*%
%ADD22C,2.000000*%
%TD*%
%TA.AperFunction,ComponentPad*%
%ADD23R,1.700000X1.700000*%
%TD*%
%TA.AperFunction,ComponentPad*%
%ADD24O,1.700000X1.700000*%
%TD*%
%TA.AperFunction,SMDPad,CuDef*%
%ADD25RoundRect,0.381000X0.381000X3.289000X-0.381000X3.289000X-0.381000X-3.289000X0.381000X-3.289000X0*%
%TD*%
%TA.AperFunction,ComponentPad*%
%ADD26C,2.524000*%
%TD*%
%TA.AperFunction,ComponentPad*%
%ADD27R,1.600000X1.600000*%
%TD*%
%TA.AperFunction,ComponentPad*%
%ADD28C,2.000000*%
%TD*%
%TA.AperFunction,ViaPad*%
%ADD29C,1.200000*%
%TD*%
%TA.AperFunction,Conductor*%
%ADD30C,0.500000*%
%TD*%
%TA.AperFunction,Conductor*%
%ADD31C,1.000000*%
%TD*%
%TA.AperFunction,Conductor*%
%ADD32C,1.500000*%
%TD*%
G04 APERTURE END LIST*
D10*
%TO.P,C5,1*%
%TO.N,/VSS*%
X137150000Y-90210000D03*
%TO.P,C5,2*%
%TO.N,Net-(D1-K)*%
X137150000Y-95210000D03*
%TD*%
D11*
%TO.P,C6,1*%
%TO.N,Net-(D2-K)*%
X101720000Y-98032500D03*
D12*
%TO.P,C6,2*%
%TO.N,/VSS*%
X116720000Y-98032500D03*
%TD*%
D13*
%TO.P,D1,1,K*%
%TO.N,Net-(D1-K)*%
X112395000Y-63500000D03*
D14*
%TO.P,D1,2,A*%
%TO.N,Net-(D1-A)*%
X112395000Y-73660000D03*
%TD*%
D10*
%TO.P,R2,1*%
%TO.N,Net-(J1-+12V)*%
X111760000Y-123190000D03*
D15*
%TO.P,R2,2*%
%TO.N,Net-(D1-A)*%
X121920000Y-123190000D03*
%TD*%
D16*
%TO.P,U1,1,VDD*%
%TO.N,Net-(D2-K)*%
X97790000Y-63500000D03*
D17*
%TO.P,U1,2,WRITE*%
%TO.N,Net-(U1-WRITE)*%
X97790000Y-66040000D03*
%TO.P,U1,3,READ*%
%TO.N,Net-(U1-READ)*%
X97790000Y-68580000D03*
%TO.P,U1,4,A0*%
%TO.N,/AC0*%
X97790000Y-71120000D03*
%TO.P,U1,5,A1*%
%TO.N,/AC1*%
X97790000Y-73660000D03*
%TO.P,U1,6,A2*%
%TO.N,/AC2*%
X97790000Y-76200000D03*
%TO.P,U1,7,A3*%
%TO.N,/AC3*%
X97790000Y-78740000D03*
%TO.P,U1,8,CS*%
%TO.N,Net-(D1-K)*%
X97790000Y-81280000D03*
%TO.P,U1,9,D0*%
%TO.N,Net-(U1-D0)*%
X97790000Y-83820000D03*
%TO.P,U1,10,D1*%
%TO.N,Net-(U1-D1)*%
X105410000Y-83820000D03*
%TO.P,U1,11,D2*%
%TO.N,Net-(U1-D2)*%
X105410000Y-81280000D03*
%TO.P,U1,12,D3*%
%TO.N,Net-(U1-D3)*%
X105410000Y-78740000D03*
%TO.P,U1,13,VSS*%
%TO.N,/VSS*%
X105410000Y-76200000D03*
%TO.P,U1,14,TEST*%
%TO.N,unconnected-(U1-TEST-Pad14)*%
X105410000Y-73660000D03*
%TO.P,U1,15,ADJ*%
%TO.N,Net-(J2-Pin_4)*%
X105410000Y-71120000D03*
%TO.P,U1,16,XT*%
%TO.N,Net-(U1-XT)*%
X105410000Y-68580000D03*
%TO.P,U1,17,/XT*%
%TO.N,Net-(U1-{slash}XT)*%
X105410000Y-66040000D03*
%TO.P,U1,18,HOLD*%
%TO.N,Net-(U1-HOLD)*%
X105410000Y-63500000D03*
%TD*%
D10*
%TO.P,C4,1*%
%TO.N,/VSS*%
X92710000Y-121880000D03*
%TO.P,C4,2*%
%TO.N,Net-(D1-K)*%
X92710000Y-116880000D03*
%TD*%
D18*
%TO.P,U3,1,VSS*%
%TO.N,/VSS*%
X172715000Y-63500000D03*
D19*
%TO.P,U3,2,PA0*%
%TO.N,Net-(U1-D0)*%
X170175000Y-63500000D03*
%TO.P,U3,3,PA1*%
%TO.N,Net-(U1-D1)*%
X167635000Y-63500000D03*
%TO.P,U3,4,PA2*%
%TO.N,Net-(U1-D2)*%
X165095000Y-63500000D03*
%TO.P,U3,5,PA3*%
%TO.N,Net-(U1-D3)*%
X162555000Y-63500000D03*
%TO.P,U3,6,PA4*%
%TO.N,Net-(J2-Pin_2)*%
X160015000Y-63500000D03*
%TO.P,U3,7,PA5*%
%TO.N,unconnected-(U3-PA5-Pad7)*%
X157475000Y-63500000D03*
%TO.P,U3,8,PA6*%
%TO.N,Net-(J3-Pin_2)*%
X154935000Y-63500000D03*
%TO.P,U3,9,PA7*%
%TO.N,Net-(J3-Pin_4)*%
X152395000Y-63500000D03*
%TO.P,U3,10,PB0*%
%TO.N,/AC0*%
X149855000Y-63500000D03*
%TO.P,U3,11,PB1*%
%TO.N,/AC1*%
X147315000Y-63500000D03*
%TO.P,U3,12,PB2*%
%TO.N,/AC2*%
X144775000Y-63500000D03*
%TO.P,U3,13,PB3*%
%TO.N,/AC3*%
X142235000Y-63500000D03*
%TO.P,U3,14,PB4*%
%TO.N,Net-(U1-HOLD)*%
X139695000Y-63500000D03*
%TO.P,U3,15,PB5*%
%TO.N,Net-(U1-READ)*%
X137155000Y-63500000D03*
%TO.P,U3,16,PB6*%
%TO.N,Net-(U3-PB6)*%
X134615000Y-63500000D03*
%TO.P,U3,17,PB7*%
%TO.N,unconnected-(U3-PB7-Pad17)*%
X132075000Y-63500000D03*
%TO.P,U3,18,CB1*%
%TO.N,Net-(U1-D2)*%
X129535000Y-63500000D03*
%TO.P,U3,19,CB2*%
%TO.N,Net-(U1-D3)*%
X126995000Y-63500000D03*
%TO.P,U3,20,VCC*%
%TO.N,Net-(D1-K)*%
X124455000Y-63500000D03*
%TO.P,U3,21,R/W*%
%TO.N,Net-(J1-R{slash}W)*%
X124455000Y-78740000D03*
%TO.P,U3,22,CS0*%
%TO.N,Net-(D1-K)*%
X126995000Y-78740000D03*
%TO.P,U3,23,/CS2*%
%TO.N,Net-(J1-{slash}DEVSEL)*%
X129535000Y-78740000D03*
%TO.P,U3,24,CS1*%
%TO.N,Net-(D1-K)*%
X132075000Y-78740000D03*
%TO.P,U3,25,E*%
%TO.N,Net-(J1-PHIO)*%
X134615000Y-78740000D03*
%TO.P,U3,26,D7*%
%TO.N,Net-(U2-A7)*%
X137155000Y-78740000D03*
%TO.P,U3,27,D6*%
%TO.N,Net-(U2-A6)*%
X139695000Y-78740000D03*
%TO.P,U3,28,D5*%
%TO.N,Net-(U2-A5)*%
X142235000Y-78740000D03*
%TO.P,U3,29,D4*%
%TO.N,Net-(U2-A4)*%
X144775000Y-78740000D03*
%TO.P,U3,30,D3*%
%TO.N,Net-(U2-A3)*%
X147315000Y-78740000D03*
%TO.P,U3,31,D2*%
%TO.N,Net-(U2-A2)*%
X149855000Y-78740000D03*
%TO.P,U3,32,D1*%
%TO.N,Net-(U2-A1)*%
X152395000Y-78740000D03*
%TO.P,U3,33,D0*%
%TO.N,Net-(U2-A0)*%
X154935000Y-78740000D03*
%TO.P,U3,34,/RES*%
%TO.N,Net-(J1-{slash}RES)*%
X157475000Y-78740000D03*
%TO.P,U3,35,RS1*%
%TO.N,/A1*%
X160015000Y-78740000D03*
%TO.P,U3,36,RS0*%
%TO.N,/A0*%
X162555000Y-78740000D03*
%TO.P,U3,37,/IRQB*%
%TO.N,Net-(U3-{slash}IRQA)*%
X165095000Y-78740000D03*
%TO.P,U3,38,/IRQA*%
X167635000Y-78740000D03*
%TO.P,U3,39,CA2*%
%TO.N,Net-(U1-D1)*%
X170175000Y-78740000D03*
%TO.P,U3,40,CA1*%
%TO.N,Net-(U1-D0)*%
X172715000Y-78740000D03*
%TD*%
D16*
%TO.P,U6,1*%
%TO.N,Net-(J1-{slash}IOSEL)*%
X113040000Y-104135000D03*
D17*
%TO.P,U6,2*%
%TO.N,/A9*%
X113040000Y-106675000D03*
%TO.P,U6,3*%
%TO.N,Net-(U4-A9)*%
X113040000Y-109215000D03*
%TO.P,U6,4*%
%TO.N,/A10*%
X113040000Y-111755000D03*
%TO.P,U6,5*%
%TO.N,/A9*%
X113040000Y-114295000D03*
%TO.P,U6,6*%
%TO.N,Net-(U5-Pad9)*%
X113040000Y-116835000D03*
%TO.P,U6,7,VSS*%
%TO.N,/VSS*%
X113040000Y-119375000D03*
%TO.P,U6,8*%
%TO.N,Net-(U4-A8)*%
X120660000Y-119375000D03*
%TO.P,U6,9*%
%TO.N,/A8*%
X120660000Y-116835000D03*
%TO.P,U6,10*%
%TO.N,Net-(J1-{slash}IOSEL)*%
X120660000Y-114295000D03*
%TO.P,U6,11*%
%TO.N,Net-(U4-{slash}G_VPP)*%
X120660000Y-111755000D03*
%TO.P,U6,12*%
%TO.N,Net-(J1-{slash}IOSEL)*%
X120660000Y-109215000D03*
%TO.P,U6,13*%
%TO.N,Net-(J1-{slash}IOSTRB)*%
X120660000Y-106675000D03*
%TO.P,U6,14,VCC*%
%TO.N,Net-(D1-K)*%
X120660000Y-104135000D03*
%TD*%
D20*
%TO.P,XTAL1,1,1*%
%TO.N,Net-(U1-{slash}XT)*%
X89300000Y-86677500D03*
%TO.P,XTAL1,2,2*%
%TO.N,Net-(U1-XT)*%
X89300000Y-88577500D03*
D21*
%TO.P,XTAL1,3*%
%TO.N,N/C*%
X81680000Y-89852500D03*
%TO.P,XTAL1,4*%
X81680000Y-85407500D03*
%TD*%
D22*
%TO.P,TP1,1,1*%
%TO.N,Net-(BT1-+)*%
X189230000Y-59690000D03*
%TD*%
D23*
%TO.P,J3,1,Pin_1*%
%TO.N,/VSS*%
X88900000Y-121920000D03*
D24*
%TO.P,J3,2,Pin_2*%
%TO.N,Net-(J3-Pin_2)*%
X88900000Y-119380000D03*
%TO.P,J3,3,Pin_3*%
%TO.N,Net-(D1-K)*%
X88900000Y-116840000D03*
%TO.P,J3,4,Pin_4*%
%TO.N,Net-(J3-Pin_4)*%
X88900000Y-114300000D03*
%TD*%
D10*
%TO.P,C2,1*%
%TO.N,/VSS*%
X83860000Y-95250000D03*
%TO.P,C2,2*%
%TO.N,Net-(U1-{slash}XT)*%
X88860000Y-95250000D03*
%TD*%
%TO.P,R1,1*%
%TO.N,Net-(D2-K)*%
X119380000Y-63500000D03*
D15*
%TO.P,R1,2*%
%TO.N,Net-(BT1-+)*%
X119380000Y-73660000D03*
%TD*%
D23*
%TO.P,J2,1,Pin_1*%
%TO.N,/VSS*%
X88900000Y-109220000D03*
D24*
%TO.P,J2,2,Pin_2*%
%TO.N,Net-(J2-Pin_2)*%
X88900000Y-106680000D03*
%TO.P,J2,3,Pin_3*%
%TO.N,Net-(D1-K)*%
X88900000Y-104140000D03*
%TO.P,J2,4,Pin_4*%
%TO.N,Net-(J2-Pin_4)*%
X88900000Y-101600000D03*
%TD*%
D25*
%TO.P,J1,1,/IOSEL*%
%TO.N,Net-(J1-{slash}IOSEL)*%
X127635000Y-130075000D03*
%TO.P,J1,2,A0*%
%TO.N,/A0*%
X130175000Y-130075000D03*
%TO.P,J1,3,A1*%
%TO.N,/A1*%
X132715000Y-130075000D03*
%TO.P,J1,4,A2*%
%TO.N,/A2*%
X135255000Y-130075000D03*
%TO.P,J1,5,A3*%
%TO.N,/A3*%
X137795000Y-130075000D03*
%TO.P,J1,6,A4*%
%TO.N,/A4*%
X140335000Y-130075000D03*
%TO.P,J1,7,A5*%
%TO.N,/A5*%
X142875000Y-130075000D03*
%TO.P,J1,8,A6*%
%TO.N,/A6*%
X145415000Y-130075000D03*
%TO.P,J1,9,A7*%
%TO.N,/A7*%
X147955000Y-130075000D03*
%TO.P,J1,10,A8*%
%TO.N,/A8*%
X150495000Y-130075000D03*
%TO.P,J1,11,A9*%
%TO.N,/A9*%
X153035000Y-130075000D03*
%TO.P,J1,12,A10*%
%TO.N,/A10*%
X155575000Y-130075000D03*
%TO.P,J1,13,A11*%
%TO.N,/A11*%
X158115000Y-130075000D03*
%TO.P,J1,14,A12*%
%TO.N,/A12*%
X160655000Y-130075000D03*
%TO.P,J1,15,A13*%
%TO.N,unconnected-(J1-A13-Pad15)*%
X163195000Y-130075000D03*
%TO.P,J1,16,A14*%
%TO.N,unconnected-(J1-A14-Pad16)*%
X165735000Y-130075000D03*
%TO.P,J1,17,A15*%
%TO.N,unconnected-(J1-A15-Pad17)*%
X168275000Y-130075000D03*
%TO.P,J1,18,R/W*%
%TO.N,Net-(J1-R{slash}W)*%
X170815000Y-130075000D03*
%TO.P,J1,19,VIDEO_S.*%
%TO.N,unconnected-(J1-VIDEO_S.-Pad19)*%
X173355000Y-130075000D03*
%TO.P,J1,20,/IOSTRB*%
%TO.N,Net-(J1-{slash}IOSTRB)*%
X175895000Y-130075000D03*
%TO.P,J1,21,RDY*%
%TO.N,unconnected-(J1-RDY-Pad21)*%
X178435000Y-130075000D03*
%TO.P,J1,22,DMA*%
%TO.N,unconnected-(J1-DMA-Pad22)*%
X180975000Y-130075000D03*
%TO.P,J1,23,INTout*%
%TO.N,Net-(J1-INTin)*%
X183515000Y-130075000D03*
%TO.P,J1,24,DMAout*%
%TO.N,Net-(J1-DMAin)*%
X186055000Y-130075000D03*
%TO.P,J1,25,+5V*%
%TO.N,Net-(D1-K)*%
X188595000Y-130075000D03*
%TD*%
D18*
%TO.P,U2,1,A->B*%
%TO.N,Net-(J1-R{slash}W)*%
X163820000Y-88910000D03*
D19*
%TO.P,U2,2,A0*%
%TO.N,Net-(U2-A0)*%
X161280000Y-88910000D03*
%TO.P,U2,3,A1*%
%TO.N,Net-(U2-A1)*%
X158740000Y-88910000D03*
%TO.P,U2,4,A2*%
%TO.N,Net-(U2-A2)*%
X156200000Y-88910000D03*
%TO.P,U2,5,A3*%
%TO.N,Net-(U2-A3)*%
X153660000Y-88910000D03*
%TO.P,U2,6,A4*%
%TO.N,Net-(U2-A4)*%
X151120000Y-88910000D03*
%TO.P,U2,7,A5*%
%TO.N,Net-(U2-A5)*%
X148580000Y-88910000D03*
%TO.P,U2,8,A6*%
%TO.N,Net-(U2-A6)*%
X146040000Y-88910000D03*
%TO.P,U2,9,A7*%
%TO.N,Net-(U2-A7)*%
X143500000Y-88910000D03*
%TO.P,U2,10,GND*%
%TO.N,/VSS*%
X140960000Y-88910000D03*
%TO.P,U2,11,B7*%
%TO.N,/D7*%
X140960000Y-96530000D03*
%TO.P,U2,12,B6*%
%TO.N,/D6*%
X143500000Y-96530000D03*
%TO.P,U2,13,B5*%
%TO.N,/D5*%
X146040000Y-96530000D03*
%TO.P,U2,14,B4*%
%TO.N,/D4*%
X148580000Y-96530000D03*
%TO.P,U2,15,B3*%
%TO.N,/D3*%
X151120000Y-96530000D03*
%TO.P,U2,16,B2*%
%TO.N,/D2*%
X153660000Y-96530000D03*
%TO.P,U2,17,B1*%
%TO.N,/D1*%
X156200000Y-96530000D03*
%TO.P,U2,18,B0*%
%TO.N,/D0*%
X158740000Y-96530000D03*
%TO.P,U2,19,/CE*%
%TO.N,Net-(J1-{slash}DEVSEL)*%
X161280000Y-96530000D03*
%TO.P,U2,20,VCC*%
%TO.N,Net-(D1-K)*%
X163820000Y-96530000D03*
%TD*%
D26*
%TO.P,BT1,1,+*%
%TO.N,Net-(BT1-+)*%
X179705000Y-74950000D03*
%TO.P,BT1,2,-*%
%TO.N,/VSS*%
X194945000Y-105450000D03*
%TO.P,BT1,NC*%
%TO.N,N/C*%
X179705000Y-95250000D03*
X194945000Y-82550000D03*
%TD*%
D18*
%TO.P,U4,1,A7*%
%TO.N,/A7*%
X166370000Y-105410000D03*
D19*
%TO.P,U4,2,A6*%
%TO.N,/A6*%
X163830000Y-105410000D03*
%TO.P,U4,3,A5*%
%TO.N,/A5*%
X161290000Y-105410000D03*
%TO.P,U4,4,A4*%
%TO.N,/A4*%
X158750000Y-105410000D03*
%TO.P,U4,5,A3*%
%TO.N,/A3*%
X156210000Y-105410000D03*
%TO.P,U4,6,A2*%
%TO.N,/A2*%
X153670000Y-105410000D03*
%TO.P,U4,7,A1*%
%TO.N,/A1*%
X151130000Y-105410000D03*
%TO.P,U4,8,A0*%
%TO.N,/A0*%
X148590000Y-105410000D03*
%TO.P,U4,9,D0*%
%TO.N,/D0*%
X146050000Y-105410000D03*
%TO.P,U4,10,D1*%
%TO.N,/D1*%
X143510000Y-105410000D03*
%TO.P,U4,11,D2*%
%TO.N,/D2*%
X140970000Y-105410000D03*
%TO.P,U4,12,VSS*%
%TO.N,/VSS*%
X138430000Y-105410000D03*
%TO.P,U4,13,D3*%
%TO.N,/D3*%
X138430000Y-120650000D03*
%TO.P,U4,14,D4*%
%TO.N,/D4*%
X140970000Y-120650000D03*
%TO.P,U4,15,D5*%
%TO.N,/D5*%
X143510000Y-120650000D03*
%TO.P,U4,16,D6*%
%TO.N,/D6*%
X146050000Y-120650000D03*
%TO.P,U4,17,D7*%
%TO.N,/D7*%
X148590000Y-120650000D03*
%TO.P,U4,18,/E*%
%TO.N,Net-(U4-{slash}E)*%
X151130000Y-120650000D03*
%TO.P,U4,19,A10*%
%TO.N,Net-(J2-Pin_2)*%
X153670000Y-120650000D03*
%TO.P,U4,20,/G_VPP*%
%TO.N,Net-(U4-{slash}G_VPP)*%
X156210000Y-120650000D03*
%TO.P,U4,21,A11*%
%TO.N,Net-(D1-K)*%
X158750000Y-120650000D03*
%TO.P,U4,22,A9*%
%TO.N,Net-(U4-A9)*%
X161290000Y-120650000D03*
%TO.P,U4,23,A8*%
%TO.N,Net-(U4-A8)*%
X163830000Y-120650000D03*
%TO.P,U4,24,VCC*%
%TO.N,Net-(D1-K)*%
X166370000Y-120650000D03*
%TD*%
D13*
%TO.P,D2,1,K*%
%TO.N,Net-(D2-K)*%
X115570000Y-63500000D03*
D14*
%TO.P,D2,2,A*%
%TO.N,Net-(D1-A)*%
X115570000Y-73660000D03*
%TD*%
D27*
%TO.P,SW1,1*%
%TO.N,Net-(U1-WRITE)*%
X81290000Y-63510000D03*
D15*
%TO.P,SW1,2*%
%TO.N,/VSS*%
X81290000Y-66050000D03*
%TO.P,SW1,3*%
%TO.N,Net-(J1-{slash}NMI)*%
X81290000Y-68590000D03*
%TO.P,SW1,4*%
%TO.N,Net-(J1-{slash}IRQ)*%
X81290000Y-71130000D03*
%TO.P,SW1,5*%
%TO.N,Net-(U3-{slash}IRQA)*%
X88910000Y-71130000D03*
%TO.P,SW1,6*%
X88910000Y-68590000D03*
%TO.P,SW1,7*%
%TO.N,Net-(J2-Pin_2)*%
X88910000Y-66050000D03*
%TO.P,SW1,8*%
%TO.N,Net-(U3-PB6)*%
X88910000Y-63510000D03*
%TD*%
D28*
%TO.P,C1,1*%
%TO.N,Net-(U1-XT)*%
X82931000Y-78105000D03*
%TO.P,C1,2*%
%TO.N,/VSS*%
X88138000Y-78105000D03*
%TD*%
D16*
%TO.P,U5,1*%
%TO.N,Net-(J1-{slash}IOSEL)*%
X97790000Y-104135000D03*
D17*
%TO.P,U5,2*%
%TO.N,Net-(U4-{slash}E)*%
X97790000Y-106675000D03*
%TO.P,U5,3*%
%TO.N,Net-(U5-Pad3)*%
X97790000Y-109215000D03*
%TO.P,U5,4*%
X97790000Y-111755000D03*
%TO.P,U5,5*%
%TO.N,Net-(U5-Pad5)*%
X97790000Y-114295000D03*
%TO.P,U5,6*%
%TO.N,Net-(U4-{slash}E)*%
X97790000Y-116835000D03*
%TO.P,U5,7,VSS*%
%TO.N,/VSS*%
X97790000Y-119375000D03*
%TO.P,U5,8*%
%TO.N,Net-(U5-Pad5)*%
X105410000Y-119375000D03*
%TO.P,U5,9*%
%TO.N,Net-(U5-Pad9)*%
X105410000Y-116835000D03*
%TO.P,U5,10*%
%TO.N,Net-(U5-Pad10)*%
X105410000Y-114295000D03*
%TO.P,U5,11*%
X105410000Y-111755000D03*
%TO.P,U5,12*%
%TO.N,Net-(J1-{slash}IOSTRB)*%
X105410000Y-109215000D03*
%TO.P,U5,13*%
X105410000Y-106675000D03*
%TO.P,U5,14,VCC*%
%TO.N,Net-(D1-K)*%
X105410000Y-104135000D03*
%TD*%
D10*
%TO.P,C3,1*%
%TO.N,/VSS*%
X196850000Y-117515000D03*
%TO.P,C3,2*%
%TO.N,Net-(D1-K)*%
X196850000Y-122515000D03*
%TD*%
D29*
%TO.N,Net-(D2-K)*%
X108585000Y-64770000D03*
X117475000Y-86360000D03*
%TO.N,Net-(D1-A)*%
X113982500Y-87215500D03*
X123825000Y-102235000D03*
%TO.N,/A0*%
X167640000Y-101600000D03*
%TO.N,/A1*%
X166370000Y-102870000D03*
%TO.N,/A8*%
X156210000Y-118110000D03*
%TO.N,/A9*%
X158115000Y-116840000D03*
%TO.N,/A10*%
X159155363Y-115340363D03*
%TO.N,Net-(J1-R{slash}W)*%
X124455000Y-85090000D03*
X171767500Y-123507500D03*
%TO.N,Net-(J1-{slash}IOSTRB)*%
X165100000Y-111760000D03*
%TO.N,Net-(J1-{slash}NMI)*%
X87630000Y-60325000D03*
%TO.N,Net-(J1-{slash}IRQ)*%
X89535000Y-61595000D03*
%TO.N,Net-(J1-{slash}RES)*%
X157475000Y-74295000D03*
%TO.N,Net-(J1-{slash}DEVSEL)*%
X129535000Y-87630000D03*
%TO.N,/D2*%
X130810000Y-120015000D03*
%TO.N,/D1*%
X132080000Y-122555000D03*
%TO.N,/D0*%
X133242891Y-121392109D03*
%TO.N,Net-(U1-D3)*%
X127000000Y-75565000D03*
%TO.N,/AC0*%
X149855000Y-70485000D03*
%TO.N,/AC1*%
X147320000Y-73025000D03*
%TO.N,/AC2*%
X144780000Y-74295000D03*
%TO.N,/AC3*%
X142235000Y-75565000D03*
%TO.N,Net-(U4-A8)*%
X127000000Y-119380000D03*
X127000000Y-110490000D03*
%TO.N,Net-(J2-Pin_2)*%
X168910000Y-92075000D03*
%TO.N,Net-(J3-Pin_2)*%
X140335000Y-69215000D03*
%TO.N,Net-(J3-Pin_4)*%
X138430000Y-69215000D03*
%TO.N,Net-(J1-INTin)*%
X183515000Y-125095000D03*
%TO.N,Net-(J1-DMAin)*%
X186055000Y-125095000D03*
%TO.N,Net-(U1-HOLD)*%
X130810000Y-65405000D03*
%TD*%
D30*
%TO.N,Net-(D1-K)*%
X99695000Y-59055000D02*
X99695000Y-79375000D01*
D31*
X169545000Y-117475000D02*
X166370000Y-120650000D01*
D32*
X100330000Y-58420000D02*
X112395000Y-58420000D01*
D31*
X189865000Y-117475000D02*
X189230000Y-117475000D01*
D32*
X191135000Y-122555000D02*
X196810000Y-122555000D01*
X175260000Y-81280000D02*
X189865000Y-95885000D01*
D31*
X196850000Y-122515000D02*
X191095000Y-122515000D01*
D30*
X126995000Y-78740000D02*
X124455000Y-76200000D01*
X112395000Y-63500000D02*
X112395000Y-58420000D01*
D32*
X112395000Y-58420000D02*
X124460000Y-58420000D01*
D31*
X188595000Y-125095000D02*
X191135000Y-122555000D01*
D30*
X99695000Y-79375000D02*
X97790000Y-81280000D01*
X124455000Y-76200000D02*
X124455000Y-63500000D01*
D31*
X124455000Y-63500000D02*
X124455000Y-58425000D01*
D30*
X124455000Y-58425000D02*
X124460000Y-58420000D01*
D31*
X196810000Y-122555000D02*
X196850000Y-122515000D01*
D32*
X124460000Y-58420000D02*
X175260000Y-58420000D01*
D31*
X189230000Y-117475000D02*
X169545000Y-117475000D01*
D30*
X100330000Y-58420000D02*
X99695000Y-59055000D01*
D32*
X191095000Y-122515000D02*
X189865000Y-121285000D01*
X189865000Y-121285000D02*
X189865000Y-117475000D01*
X189865000Y-95885000D02*
X189865000Y-117475000D01*
X175260000Y-58420000D02*
X175260000Y-81280000D01*
D31*
X188595000Y-130075000D02*
X188595000Y-125095000D01*
D30*
%TO.N,Net-(U1-XT)*%
X89300000Y-88577500D02*
X100017500Y-88577500D01*
X102235000Y-86360000D02*
X102235000Y-71755000D01*
X100017500Y-88577500D02*
X102235000Y-86360000D01*
X102235000Y-71755000D02*
X105410000Y-68580000D01*
%TO.N,Net-(U1-{slash}XT)*%
X100012500Y-86677500D02*
X100965000Y-85725000D01*
X100965000Y-70485000D02*
X105410000Y-66040000D01*
X89300000Y-86677500D02*
X100012500Y-86677500D01*
X100965000Y-85725000D02*
X100965000Y-70485000D01*
%TO.N,Net-(D2-K)*%
X108585000Y-64770000D02*
X114300000Y-64770000D01*
X114300000Y-64770000D02*
X115570000Y-63500000D01*
X117475000Y-86360000D02*
X117475000Y-65405000D01*
X117475000Y-65405000D02*
X119380000Y-63500000D01*
%TO.N,Net-(D1-A)*%
X113982500Y-87215500D02*
X112395000Y-85628000D01*
X123825000Y-121285000D02*
X123825000Y-102235000D01*
X112395000Y-85628000D02*
X112395000Y-73660000D01*
X121920000Y-123190000D02*
X123825000Y-121285000D01*
%TO.N,Net-(J1-{slash}IOSEL)*%
X118872000Y-112522000D02*
X118872000Y-111003000D01*
X118872000Y-122682000D02*
X118872000Y-116083000D01*
X118872000Y-116083000D02*
X120660000Y-114295000D01*
X118872000Y-111003000D02*
X120660000Y-109215000D01*
X113040000Y-104135000D02*
X115580000Y-104135000D01*
X121285000Y-125095000D02*
X118872000Y-122682000D01*
X127635000Y-130075000D02*
X127635000Y-125730000D01*
X115580000Y-104135000D02*
X120660000Y-109215000D01*
X127635000Y-125730000D02*
X127000000Y-125095000D01*
X120645000Y-114295000D02*
X118872000Y-112522000D01*
X120660000Y-114295000D02*
X120645000Y-114295000D01*
X127000000Y-125095000D02*
X121285000Y-125095000D01*
%TO.N,/A0*%
X148590000Y-105410000D02*
X134620000Y-119380000D01*
X167640000Y-85725000D02*
X162555000Y-80640000D01*
X162555000Y-80640000D02*
X162555000Y-78740000D01*
X134620000Y-119380000D02*
X134620000Y-121666000D01*
X134620000Y-121666000D02*
X130175000Y-126111000D01*
X167640000Y-101600000D02*
X167640000Y-85725000D01*
X130175000Y-126111000D02*
X130175000Y-130075000D01*
%TO.N,/A1*%
X151130000Y-105410000D02*
X135890000Y-120650000D01*
X166370000Y-86365000D02*
X160015000Y-80010000D01*
X135890000Y-120650000D02*
X135890000Y-122936000D01*
X160015000Y-80010000D02*
X160015000Y-78740000D01*
X135890000Y-122936000D02*
X132715000Y-126111000D01*
X166370000Y-102870000D02*
X166370000Y-86365000D01*
X132715000Y-126111000D02*
X132715000Y-130075000D01*
%TO.N,/A2*%
X149470233Y-109982000D02*
X150241000Y-109982000D01*
X135255000Y-130075000D02*
X135255000Y-126111000D01*
X139720000Y-119732233D02*
X149470233Y-109982000D01*
X139720000Y-121646000D02*
X139720000Y-119732233D01*
X135255000Y-126111000D02*
X139720000Y-121646000D01*
X150241000Y-109982000D02*
X153670000Y-106553000D01*
X153670000Y-106553000D02*
X153670000Y-105410000D01*
%TO.N,/A3*%
X142260000Y-119732233D02*
X150486233Y-111506000D01*
X151257000Y-111506000D02*
X156210000Y-106553000D01*
X150486233Y-111506000D02*
X151257000Y-111506000D01*
X137795000Y-130075000D02*
X137795000Y-126111000D01*
X156210000Y-106553000D02*
X156210000Y-105410000D01*
X142260000Y-121646000D02*
X142260000Y-119732233D01*
X137795000Y-126111000D02*
X142260000Y-121646000D01*
%TO.N,/A4*%
X140335000Y-126111000D02*
X144800000Y-121646000D01*
X158750000Y-106553000D02*
X158750000Y-105410000D01*
X144800000Y-119732233D02*
X151375233Y-113157000D01*
X151375233Y-113157000D02*
X152146000Y-113157000D01*
X152146000Y-113157000D02*
X158750000Y-106553000D01*
X144800000Y-121646000D02*
X144800000Y-119732233D01*
X140335000Y-130075000D02*
X140335000Y-126111000D01*
%TO.N,/A5*%
X142875000Y-130075000D02*
X142875000Y-126111000D01*
X152264233Y-114808000D02*
X153035000Y-114808000D01*
X147340000Y-121646000D02*
X147340000Y-119732233D01*
X142875000Y-126111000D02*
X147340000Y-121646000D01*
X161290000Y-106553000D02*
X161290000Y-105410000D01*
X147340000Y-119732233D02*
X152264233Y-114808000D01*
X153035000Y-114808000D02*
X161290000Y-106553000D01*
%TO.N,/A6*%
X153026233Y-116586000D02*
X153797000Y-116586000D01*
X163830000Y-106553000D02*
X163830000Y-105410000D01*
X149880000Y-121646000D02*
X149880000Y-119732233D01*
X149880000Y-119732233D02*
X153026233Y-116586000D01*
X153797000Y-116586000D02*
X163830000Y-106553000D01*
X145415000Y-126111000D02*
X149880000Y-121646000D01*
X145415000Y-130075000D02*
X145415000Y-126111000D01*
%TO.N,/A7*%
X147955000Y-126111000D02*
X152400000Y-121666000D01*
X163325126Y-108520000D02*
X164784000Y-108520000D01*
X152400000Y-121666000D02*
X152400000Y-119445126D01*
X164784000Y-108520000D02*
X166370000Y-106934000D01*
X147955000Y-130075000D02*
X147955000Y-126111000D01*
X166370000Y-106934000D02*
X166370000Y-105410000D01*
X152400000Y-119445126D02*
X163325126Y-108520000D01*
%TO.N,/A8*%
X154940000Y-119380000D02*
X154940000Y-121666000D01*
X150495000Y-126111000D02*
X150495000Y-130075000D01*
X154940000Y-121666000D02*
X150495000Y-126111000D01*
X156210000Y-118110000D02*
X154940000Y-119380000D01*
%TO.N,/A9*%
X153035000Y-126111000D02*
X153035000Y-130075000D01*
X157500000Y-117455000D02*
X157500000Y-121646000D01*
X157500000Y-121646000D02*
X153035000Y-126111000D01*
X158115000Y-116840000D02*
X157500000Y-117455000D01*
%TO.N,/A10*%
X160000000Y-121686000D02*
X155575000Y-126111000D01*
X159155363Y-115340363D02*
X160000000Y-116185000D01*
X155575000Y-126111000D02*
X155575000Y-130075000D01*
X160000000Y-116185000D02*
X160000000Y-121686000D01*
%TO.N,Net-(J1-R{slash}W)*%
X124455000Y-85090000D02*
X124455000Y-78740000D01*
X170815000Y-124460000D02*
X170815000Y-130075000D01*
X171767500Y-123507500D02*
X170815000Y-124460000D01*
%TO.N,Net-(J1-{slash}IOSTRB)*%
X162540000Y-114320000D02*
X165100000Y-111760000D01*
X174077925Y-122428000D02*
X163322000Y-122428000D01*
X162540000Y-121646000D02*
X162540000Y-114320000D01*
X175895000Y-130075000D02*
X175895000Y-124245075D01*
X163322000Y-122428000D02*
X162540000Y-121646000D01*
X175895000Y-124245075D02*
X174077925Y-122428000D01*
%TO.N,Net-(J1-{slash}NMI)*%
X85725000Y-64155000D02*
X81290000Y-68590000D01*
X85725000Y-62230000D02*
X85725000Y-64155000D01*
X87630000Y-60325000D02*
X85725000Y-62230000D01*
%TO.N,Net-(J1-{slash}IRQ)*%
X88900000Y-61595000D02*
X86995000Y-63500000D01*
X86995000Y-63500000D02*
X86995000Y-65425000D01*
X89535000Y-61595000D02*
X88900000Y-61595000D01*
X86995000Y-65425000D02*
X81290000Y-71130000D01*
%TO.N,Net-(J1-{slash}RES)*%
X157475000Y-74295000D02*
X157475000Y-78740000D01*
%TO.N,Net-(J1-{slash}DEVSEL)*%
X129535000Y-87630000D02*
X129535000Y-78740000D01*
%TO.N,/D7*%
X148590000Y-120032284D02*
X152798284Y-115824000D01*
X153289000Y-115824000D02*
X162550000Y-106563000D01*
X162550000Y-106563000D02*
X162550000Y-95250000D01*
X152798284Y-115824000D02*
X153289000Y-115824000D01*
X148590000Y-120650000D02*
X148590000Y-120032284D01*
X162550000Y-95250000D02*
X158105000Y-90805000D01*
X146675000Y-90815000D02*
X140960000Y-96530000D01*
X158105000Y-90805000D02*
X146675000Y-90805000D01*
X146675000Y-90805000D02*
X146675000Y-90815000D01*
%TO.N,/D6*%
X146050000Y-120032284D02*
X152036284Y-114046000D01*
X160010000Y-106563000D02*
X160010000Y-95250000D01*
X152527000Y-114046000D02*
X160010000Y-106563000D01*
X152036284Y-114046000D02*
X152527000Y-114046000D01*
X146050000Y-120650000D02*
X146050000Y-120032284D01*
X147945000Y-92075000D02*
X147945000Y-92085000D01*
X156835000Y-92075000D02*
X147945000Y-92075000D01*
X147945000Y-92085000D02*
X143500000Y-96530000D01*
X160010000Y-95250000D02*
X156835000Y-92075000D01*
%TO.N,/D5*%
X151147283Y-112395000D02*
X151638000Y-112395000D01*
X143510000Y-120650000D02*
X143510000Y-120032283D01*
X149225000Y-93345000D02*
X146040000Y-96530000D01*
X157470000Y-106563000D02*
X157470000Y-95250000D01*
X157470000Y-95250000D02*
X155565000Y-93345000D01*
X155565000Y-93345000D02*
X149225000Y-93345000D01*
X143510000Y-120032283D02*
X151147283Y-112395000D01*
X151638000Y-112395000D02*
X157470000Y-106563000D01*
%TO.N,/D4*%
X140970000Y-120650000D02*
X140970000Y-120032283D01*
X148580000Y-96520000D02*
X148580000Y-96530000D01*
X150485000Y-94615000D02*
X148580000Y-96520000D01*
X150687000Y-110806000D02*
X154930000Y-106563000D01*
X154930000Y-106563000D02*
X154930000Y-95250000D01*
X150196283Y-110806000D02*
X150687000Y-110806000D01*
X154930000Y-95250000D02*
X154295000Y-94615000D01*
X154295000Y-94615000D02*
X150485000Y-94615000D01*
X140970000Y-120032283D02*
X150196283Y-110806000D01*
%TO.N,/D3*%
X149733000Y-109220000D02*
X149242283Y-109220000D01*
X152400000Y-99070000D02*
X152400000Y-106553000D01*
X138430000Y-120032283D02*
X138430000Y-120650000D01*
X151120000Y-97790000D02*
X152400000Y-99070000D01*
X152400000Y-106553000D02*
X149733000Y-109220000D01*
X149242283Y-109220000D02*
X138430000Y-120032283D01*
X151120000Y-96530000D02*
X151120000Y-97790000D01*
%TO.N,/D2*%
X130810000Y-115570000D02*
X140970000Y-105410000D01*
X130810000Y-120015000D02*
X130810000Y-115570000D01*
%TO.N,/D1*%
X132080000Y-116840000D02*
X143510000Y-105410000D01*
X132080000Y-122555000D02*
X132080000Y-116840000D01*
%TO.N,/D0*%
X133350000Y-121285000D02*
X133350000Y-118110000D01*
X133350000Y-118110000D02*
X146050000Y-105410000D01*
X133242891Y-121392109D02*
X133350000Y-121285000D01*
D31*
%TO.N,Net-(BT1-+)*%
X189230000Y-59690000D02*
X179705000Y-69215000D01*
X179705000Y-69215000D02*
X179705000Y-74950000D01*
D30*
%TO.N,Net-(U1-WRITE)*%
X81290000Y-63510000D02*
X85745000Y-59055000D01*
X95250000Y-60325000D02*
X95250000Y-63881000D01*
X95250000Y-63881000D02*
X97409000Y-66040000D01*
X97409000Y-66040000D02*
X97790000Y-66040000D01*
X85745000Y-59055000D02*
X93980000Y-59055000D01*
X93980000Y-59055000D02*
X95250000Y-60325000D01*
%TO.N,Net-(U1-D0)*%
X172715000Y-78740000D02*
X172715000Y-66289000D01*
X170175000Y-63749000D02*
X170175000Y-63500000D01*
X172715000Y-66289000D02*
X170175000Y-63749000D01*
%TO.N,Net-(U1-D1)*%
X170175000Y-67310000D02*
X170180000Y-67305000D01*
X170180000Y-66040000D02*
X167640000Y-63500000D01*
X170180000Y-67305000D02*
X170180000Y-66040000D01*
X170175000Y-78740000D02*
X170175000Y-67310000D01*
X167640000Y-63500000D02*
X167635000Y-63500000D01*
%TO.N,Net-(U1-D2)*%
X128270000Y-76200000D02*
X128270000Y-64770000D01*
X128270000Y-64770000D02*
X129535000Y-63505000D01*
X105410000Y-81280000D02*
X112395000Y-88265000D01*
X128285000Y-76215000D02*
X128270000Y-76200000D01*
X163195000Y-61595000D02*
X165095000Y-63495000D01*
X128285000Y-84440000D02*
X128285000Y-76215000D01*
X165095000Y-63495000D02*
X165095000Y-63500000D01*
X131440000Y-61595000D02*
X163195000Y-61595000D01*
X112395000Y-88265000D02*
X124460000Y-88265000D01*
X124460000Y-88265000D02*
X128285000Y-84440000D01*
X129535000Y-63505000D02*
X129535000Y-63500000D01*
X129535000Y-63500000D02*
X131440000Y-61595000D01*
%TO.N,Net-(U1-D3)*%
X127000000Y-75565000D02*
X126995000Y-75560000D01*
X166370000Y-64516000D02*
X165608000Y-65278000D01*
X126995000Y-63500000D02*
X130170000Y-60325000D01*
X165608000Y-65278000D02*
X164333000Y-65278000D01*
X126995000Y-75560000D02*
X126995000Y-63500000D01*
X164211000Y-60325000D02*
X166370000Y-62484000D01*
X130170000Y-60325000D02*
X164211000Y-60325000D01*
X164333000Y-65278000D02*
X162555000Y-63500000D01*
X166370000Y-62484000D02*
X166370000Y-64516000D01*
%TO.N,Net-(U2-A0)*%
X154935000Y-82550000D02*
X154935000Y-78740000D01*
X161280000Y-88910000D02*
X161280000Y-88895000D01*
X161280000Y-88895000D02*
X154935000Y-82550000D01*
%TO.N,Net-(U2-A1)*%
X152395000Y-82550000D02*
X152395000Y-78740000D01*
X158740000Y-88910000D02*
X158740000Y-88895000D01*
X158740000Y-88895000D02*
X152395000Y-82550000D01*
%TO.N,Net-(U2-A2)*%
X156200000Y-88910000D02*
X156200000Y-88895000D01*
X156200000Y-88895000D02*
X149855000Y-82550000D01*
X149855000Y-82550000D02*
X149855000Y-78740000D01*
%TO.N,/AC0*%
X149855000Y-70485000D02*
X149855000Y-63500000D01*
%TO.N,/AC1*%
X147315000Y-73020000D02*
X147315000Y-63500000D01*
X147320000Y-73025000D02*
X147315000Y-73020000D01*
%TO.N,/AC2*%
X144775000Y-74290000D02*
X144775000Y-63500000D01*
X144780000Y-74295000D02*
X144775000Y-74290000D01*
%TO.N,/AC3*%
X142235000Y-75565000D02*
X142235000Y-63500000D01*
%TO.N,Net-(U2-A3)*%
X153660000Y-88910000D02*
X153660000Y-88895000D01*
X147315000Y-82550000D02*
X147315000Y-78740000D01*
X153660000Y-88895000D02*
X147315000Y-82550000D01*
%TO.N,Net-(U2-A4)*%
X151120000Y-88895000D02*
X144775000Y-82550000D01*
X151120000Y-88910000D02*
X151120000Y-88895000D01*
X144775000Y-82550000D02*
X144775000Y-78740000D01*
%TO.N,Net-(U2-A5)*%
X148580000Y-88910000D02*
X148580000Y-88890000D01*
X142235000Y-82545000D02*
X142235000Y-78740000D01*
X148580000Y-88890000D02*
X142235000Y-82545000D01*
%TO.N,Net-(U2-A6)*%
X146040000Y-88910000D02*
X139700000Y-82570000D01*
X139700000Y-78745000D02*
X139695000Y-78740000D01*
X139700000Y-82570000D02*
X139700000Y-78745000D01*
%TO.N,Net-(U2-A7)*%
X143500000Y-88910000D02*
X137155000Y-82565000D01*
X137155000Y-82565000D02*
X137155000Y-78740000D01*
%TO.N,Net-(U4-A8)*%
X127000000Y-110490000D02*
X127000000Y-119380000D01*
%TO.N,Net-(J2-Pin_2)*%
X168910000Y-106045000D02*
X165735000Y-109220000D01*
X165735000Y-109220000D02*
X163615075Y-109220000D01*
X153670000Y-119165075D02*
X153670000Y-120650000D01*
X163615075Y-109220000D02*
X153670000Y-119165075D01*
X168910000Y-92075000D02*
X168910000Y-106045000D01*
X166345000Y-82525000D02*
X166345000Y-69830000D01*
X166345000Y-69830000D02*
X160015000Y-63500000D01*
X168910000Y-92075000D02*
X168910000Y-85090000D01*
X168910000Y-85090000D02*
X166345000Y-82525000D01*
%TO.N,Net-(J3-Pin_2)*%
X135890000Y-86495395D02*
X131580395Y-90805000D01*
X92710000Y-113030000D02*
X90805000Y-114935000D01*
X131580395Y-90805000D02*
X103505000Y-90805000D01*
X103505000Y-90805000D02*
X92710000Y-101600000D01*
X140335000Y-69215000D02*
X135890000Y-73660000D01*
X90805000Y-117475000D02*
X88900000Y-119380000D01*
X135890000Y-73660000D02*
X135890000Y-86495395D01*
X92710000Y-101600000D02*
X92710000Y-113030000D01*
X90805000Y-114935000D02*
X90805000Y-117475000D01*
%TO.N,Net-(J3-Pin_4)*%
X138430000Y-69215000D02*
X133350000Y-74295000D01*
X130810000Y-89535000D02*
X102870000Y-89535000D01*
X133350000Y-74295000D02*
X133350000Y-86995000D01*
X91440000Y-111760000D02*
X88900000Y-114300000D01*
X91440000Y-100965000D02*
X91440000Y-111760000D01*
X102870000Y-89535000D02*
X91440000Y-100965000D01*
X133350000Y-86995000D02*
X130810000Y-89535000D01*
%TO.N,Net-(J1-INTin)*%
X183515000Y-130075000D02*
X183515000Y-125095000D01*
%TO.N,Net-(J1-DMAin)*%
X186055000Y-130075000D02*
X186055000Y-125095000D01*
%TO.N,Net-(J2-Pin_4)*%
X103505000Y-73025000D02*
X105410000Y-71120000D01*
X88900000Y-101600000D02*
X103505000Y-86995000D01*
X103505000Y-86995000D02*
X103505000Y-73025000D01*
D31*
%TO.N,/VSS*%
X110490000Y-102848287D02*
X110490000Y-116825000D01*
X110490000Y-116825000D02*
X113040000Y-119375000D01*
X121845000Y-98032500D02*
X116720000Y-98032500D01*
X115305787Y-98032500D02*
X110490000Y-102848287D01*
X138430000Y-105410000D02*
X129222500Y-105410000D01*
X138430000Y-105410000D02*
X135255000Y-102235000D01*
X129222500Y-105410000D02*
X121845000Y-98032500D01*
X116720000Y-98032500D02*
X115305787Y-98032500D01*
X140950000Y-88900000D02*
X140960000Y-88910000D01*
X135255000Y-102235000D02*
X135255000Y-92105000D01*
X135255000Y-92105000D02*
X137150000Y-90210000D01*
X138460000Y-88900000D02*
X140950000Y-88900000D01*
X137150000Y-90210000D02*
X138460000Y-88900000D01*
D30*
%TO.N,Net-(U1-HOLD)*%
X130810000Y-65405000D02*
X137790000Y-65405000D01*
X137790000Y-65405000D02*
X139695000Y-63500000D01*
%TD*%
M02*
